<svg class="marks" width="460" height="510" version="1.1" xmlns="http://www.w3.org/2000/svg" xmlns:xlink="http://www.w3.org/1999/xlink"><g transform="translate(53,12)"><g class="mark-group"><g transform="translate(0,0)"><rect class="background" width="1" height="1" style="fill: none;"></rect><g class="mark-group root"><g transform="translate(0,0)"><rect class="background" width="400" height="400" style="fill: none;"></rect><g class="mark-group"><g transform="translate(0,400)"><rect class="background" width="0" height="0" style="pointer-events: none; fill: none;"></rect><g class="mark-rule" style="pointer-events: none;"><line transform="translate(0.5,-400)" x2="0" y2="400" style="fill: none; stroke: #000; stroke-width: 1; stroke-opacity: 0.15; opacity: 1;"></line><line transform="translate(137.5,-400)" x2="0" y2="400" style="fill: none; stroke: #000; stroke-width: 1; stroke-opacity: 0.15; opacity: 1;"></line><line transform="translate(274.5,-400)" x2="0" y2="400" style="fill: none; stroke: #000; stroke-width: 1; stroke-opacity: 0.15; opacity: 1;"></line></g><g class="mark-rule" style="pointer-events: none;"><line transform="translate(0.5,0)" x2="0" y2="6" style="fill: none; stroke: #000; stroke-width: 1; opacity: 1;"></line><line transform="translate(137.5,0)" x2="0" y2="6" style="fill: none; stroke: #000; stroke-width: 1; opacity: 1;"></line><line transform="translate(274.5,0)" x2="0" y2="6" style="fill: none; stroke: #000; stroke-width: 1; opacity: 1;"></line></g><g class="mark-rule" style="pointer-events: none;"></g><g class="mark-text"><text text-anchor="end" transform="translate(0.5,9) rotate(270) translate(0,3)" style="font: 11px sans-serif; fill: #000; opacity: 1;">2014-January</text><text text-anchor="end" transform="translate(137.5,9) rotate(270) translate(0,3)" style="font: 11px sans-serif; fill: #000; opacity: 1;">2015-January</text><text text-anchor="end" transform="translate(274.5,9) rotate(270) translate(0,3)" style="font: 11px sans-serif; fill: #000; opacity: 1;">2016-January</text></g><g class="mark-path" style="pointer-events: none;"><path transform="translate(0.5,0.5)" d="M0,6V0H400V6" style="fill: none; stroke: #000; stroke-width: 1;"></path></g><g class="mark-text"><text text-anchor="middle" transform="translate(200,90)" style="font: bold 11px sans-serif; fill: #000;">YEARMONTH(date)</text></g></g></g><g class="mark-group"><g transform="translate(0,0)"><rect class="background" width="0" height="0" style="pointer-events: none; fill: none;"></rect><g class="mark-rule" style="pointer-events: none;"><line transform="translate(0,400.5)" x2="400" y2="0" style="fill: none; stroke: #000; stroke-width: 1; stroke-opacity: 0.15; opacity: 1;"></line><line transform="translate(0,369.5)" x2="400" y2="0" style="fill: none; stroke: #000; stroke-width: 1; stroke-opacity: 0.15; opacity: 1;"></line><line transform="translate(0,338.5)" x2="400" y2="0" style="fill: none; stroke: #000; stroke-width: 1; stroke-opacity: 0.15; opacity: 1;"></line><line transform="translate(0,308.5)" x2="400" y2="0" style="fill: none; stroke: #000; stroke-width: 1; stroke-opacity: 0.15; opacity: 1;"></line><line transform="translate(0,277.5)" x2="400" y2="0" style="fill: none; stroke: #000; stroke-width: 1; stroke-opacity: 0.15; opacity: 1;"></line><line transform="translate(0,246.5)" x2="400" y2="0" style="fill: none; stroke: #000; stroke-width: 1; stroke-opacity: 0.15; opacity: 1;"></line><line transform="translate(0,215.5)" x2="400" y2="0" style="fill: none; stroke: #000; stroke-width: 1; stroke-opacity: 0.15; opacity: 1;"></line><line transform="translate(0,185.5)" x2="400" y2="0" style="fill: none; stroke: #000; stroke-width: 1; stroke-opacity: 0.15; opacity: 1;"></line><line transform="translate(0,154.5)" x2="400" y2="0" style="fill: none; stroke: #000; stroke-width: 1; stroke-opacity: 0.15; opacity: 1;"></line><line transform="translate(0,123.5)" x2="400" y2="0" style="fill: none; stroke: #000; stroke-width: 1; stroke-opacity: 0.15; opacity: 1;"></line><line transform="translate(0,92.5)" x2="400" y2="0" style="fill: none; stroke: #000; stroke-width: 1; stroke-opacity: 0.15; opacity: 1;"></line><line transform="translate(0,62.5)" x2="400" y2="0" style="fill: none; stroke: #000; stroke-width: 1; stroke-opacity: 0.15; opacity: 1;"></line><line transform="translate(0,31.5)" x2="400" y2="0" style="fill: none; stroke: #000; stroke-width: 1; stroke-opacity: 0.15; opacity: 1;"></line><line transform="translate(0,0.5)" x2="400" y2="0" style="fill: none; stroke: #000; stroke-width: 1; stroke-opacity: 0.15; opacity: 1;"></line></g><g class="mark-rule" style="pointer-events: none;"><line transform="translate(-6,400.5)" x2="6" y2="0" style="fill: none; stroke: #000; stroke-width: 1; opacity: 1;"></line><line transform="translate(-6,369.5)" x2="6" y2="0" style="fill: none; stroke: #000; stroke-width: 1; opacity: 1;"></line><line transform="translate(-6,338.5)" x2="6" y2="0" style="fill: none; stroke: #000; stroke-width: 1; opacity: 1;"></line><line transform="translate(-6,308.5)" x2="6" y2="0" style="fill: none; stroke: #000; stroke-width: 1; opacity: 1;"></line><line transform="translate(-6,277.5)" x2="6" y2="0" style="fill: none; stroke: #000; stroke-width: 1; opacity: 1;"></line><line transform="translate(-6,246.5)" x2="6" y2="0" style="fill: none; stroke: #000; stroke-width: 1; opacity: 1;"></line><line transform="translate(-6,215.5)" x2="6" y2="0" style="fill: none; stroke: #000; stroke-width: 1; opacity: 1;"></line><line transform="translate(-6,185.5)" x2="6" y2="0" style="fill: none; stroke: #000; stroke-width: 1; opacity: 1;"></line><line transform="translate(-6,154.5)" x2="6" y2="0" style="fill: none; stroke: #000; stroke-width: 1; opacity: 1;"></line><line transform="translate(-6,123.5)" x2="6" y2="0" style="fill: none; stroke: #000; stroke-width: 1; opacity: 1;"></line><line transform="translate(-6,92.5)" x2="6" y2="0" style="fill: none; stroke: #000; stroke-width: 1; opacity: 1;"></line><line transform="translate(-6,62.5)" x2="6" y2="0" style="fill: none; stroke: #000; stroke-width: 1; opacity: 1;"></line><line transform="translate(-6,31.5)" x2="6" y2="0" style="fill: none; stroke: #000; stroke-width: 1; opacity: 1;"></line><line transform="translate(-6,0.5)" x2="6" y2="0" style="fill: none; stroke: #000; stroke-width: 1; opacity: 1;"></line></g><g class="mark-rule" style="pointer-events: none;"></g><g class="mark-text"><text text-anchor="end" transform="translate(-9,403.5)" style="font: 11px sans-serif; fill: #000; opacity: 1;">0.0k</text><text text-anchor="end" transform="translate(-9,372.5)" style="font: 11px sans-serif; fill: #000; opacity: 1;">0.1k</text><text text-anchor="end" transform="translate(-9,341.5)" style="font: 11px sans-serif; fill: #000; opacity: 1;">0.2k</text><text text-anchor="end" transform="translate(-9,311.5)" style="font: 11px sans-serif; fill: #000; opacity: 1;">0.3k</text><text text-anchor="end" transform="translate(-9,280.5)" style="font: 11px sans-serif; fill: #000; opacity: 1;">0.4k</text><text text-anchor="end" transform="translate(-9,249.5)" style="font: 11px sans-serif; fill: #000; opacity: 1;">0.5k</text><text text-anchor="end" transform="translate(-9,218.5)" style="font: 11px sans-serif; fill: #000; opacity: 1;">0.6k</text><text text-anchor="end" transform="translate(-9,188.5)" style="font: 11px sans-serif; fill: #000; opacity: 1;">0.7k</text><text text-anchor="end" transform="translate(-9,157.5)" style="font: 11px sans-serif; fill: #000; opacity: 1;">0.8k</text><text text-anchor="end" transform="translate(-9,126.5)" style="font: 11px sans-serif; fill: #000; opacity: 1;">0.9k</text><text text-anchor="end" transform="translate(-9,95.5)" style="font: 11px sans-serif; fill: #000; opacity: 1;">1.0k</text><text text-anchor="end" transform="translate(-9,65.5)" style="font: 11px sans-serif; fill: #000; opacity: 1;">1.1k</text><text text-anchor="end" transform="translate(-9,34.5)" style="font: 11px sans-serif; fill: #000; opacity: 1;">1.2k</text><text text-anchor="end" transform="translate(-9,3.5)" style="font: 11px sans-serif; fill: #000; opacity: 1;">1.3k</text></g><g class="mark-path" style="pointer-events: none;"><path transform="translate(0.5,0.5)" d="M-6,0H0V400H-6" style="fill: none; stroke: #000; stroke-width: 1;"></path></g><g class="mark-text"><text text-anchor="middle" transform="translate(-41,200) rotate(-90) translate(0,3)" style="font: bold 11px sans-serif; fill: #000;">SUM(deadMissing)</text></g></g></g><g class="mark-rect"><rect transform="translate(227,317)" width="2" height="83" style="fill: #4682b4; stroke-width: 2;"></rect><rect transform="translate(250,357)" width="2" height="43" style="fill: #4682b4; stroke-width: 2;"></rect><rect transform="translate(239,266)" width="2" height="134" style="fill: #4682b4; stroke-width: 2;"></rect><rect transform="translate(216,188)" width="2" height="212" style="fill: #4682b4; stroke-width: 2;"></rect><rect transform="translate(181,378)" width="2" height="22" style="fill: #4682b4; stroke-width: 2;"></rect><rect transform="translate(170,24)" width="2" height="376" style="fill: #4682b4; stroke-width: 2;"></rect><rect transform="translate(158,381)" width="2" height="19" style="fill: #4682b4; stroke-width: 2;"></rect><rect transform="translate(148,294)" width="2" height="106" style="fill: #4682b4; stroke-width: 2;"></rect><rect transform="translate(136,375)" width="2" height="25" style="fill: #4682b4; stroke-width: 2;"></rect><rect transform="translate(124,371)" width="2" height="29" style="fill: #4682b4; stroke-width: 2;"></rect><rect transform="translate(113,393)" width="2" height="7" style="fill: #4682b4; stroke-width: 2;"></rect><rect transform="translate(102,361)" width="2" height="39" style="fill: #4682b4; stroke-width: 2;"></rect><rect transform="translate(90,150)" width="2" height="250" style="fill: #4682b4; stroke-width: 2;"></rect><rect transform="translate(79,210)" width="2" height="190" style="fill: #4682b4; stroke-width: 2;"></rect><rect transform="translate(67,134)" width="2" height="266" style="fill: #4682b4; stroke-width: 2;"></rect><rect transform="translate(56,302)" width="2" height="98" style="fill: #4682b4; stroke-width: 2;"></rect><rect transform="translate(44,299)" width="2" height="101" style="fill: #4682b4; stroke-width: 2;"></rect><rect transform="translate(33,385)" width="2" height="15" style="fill: #4682b4; stroke-width: 2;"></rect><rect transform="translate(21,397)" width="2" height="3" style="fill: #4682b4; stroke-width: 2;"></rect><rect transform="translate(11,393)" width="2" height="7" style="fill: #4682b4; stroke-width: 2;"></rect><rect transform="translate(-1,396)" width="2" height="4" style="fill: #4682b4; stroke-width: 2;"></rect><rect transform="translate(204,331)" width="2" height="69" style="fill: #4682b4; stroke-width: 2;"></rect><rect transform="translate(193,390)" width="2" height="10" style="fill: #4682b4; stroke-width: 2;"></rect><rect transform="translate(262,346)" width="2" height="54" style="fill: #4682b4; stroke-width: 2;"></rect><rect transform="translate(273,286)" width="2" height="114" style="fill: #4682b4; stroke-width: 2;"></rect><rect transform="translate(285,383)" width="2" height="17" style="fill: #4682b4; stroke-width: 2;"></rect><rect transform="translate(296,300)" width="2" height="100" style="fill: #4682b4; stroke-width: 2;"></rect><rect transform="translate(307,206)" width="2" height="194" style="fill: #4682b4; stroke-width: 2;"></rect><rect transform="translate(319,51)" width="2" height="349" style="fill: #4682b4; stroke-width: 2;"></rect><rect transform="translate(330,280)" width="2" height="120" style="fill: #4682b4; stroke-width: 2;"></rect><rect transform="translate(342,330)" width="2" height="70" style="fill: #4682b4; stroke-width: 2;"></rect><rect transform="translate(353,383)" width="2" height="17" style="fill: #4682b4; stroke-width: 2;"></rect><rect transform="translate(365,287)" width="2" height="113" style="fill: #4682b4; stroke-width: 2;"></rect><rect transform="translate(376,233)" width="2" height="167" style="fill: #4682b4; stroke-width: 2;"></rect><rect transform="translate(388,213)" width="2" height="187" style="fill: #4682b4; stroke-width: 2;"></rect><rect transform="translate(399,334)" width="2" height="66" style="fill: #4682b4; stroke-width: 2;"></rect></g></g></g></g></g></g></svg>