<?xml version="1.0" encoding="UTF-8" standalone="no"?>
<svg width="296.926mm" height="209.973mm"
 viewBox="0 0 3507 2480"
 xmlns="http://www.w3.org/2000/svg" xmlns:xlink="http://www.w3.org/1999/xlink"  version="1.2" baseProfile="tiny">
<desc>Generated with Qt</desc>
<defs>
</defs>
<g fill="none" stroke="black" stroke-width="1" fill-rule="evenodd" stroke-linecap="square" stroke-linejoin="bevel" >

<g fill="none" stroke="#000000" stroke-opacity="1" stroke-width="1" stroke-linecap="square" stroke-linejoin="bevel" transform="matrix(1,0,0,1,0,0)"
font-family=".SF NS Text" font-size="54.1667" font-weight="400" font-style="normal" 
>
</g>

<g fill="none" stroke="#000000" stroke-opacity="1" stroke-width="1" stroke-linecap="square" stroke-linejoin="bevel" transform="matrix(11.8081,0,0,11.8081,0,0)"
font-family=".SF NS Text" font-size="54.1667" font-weight="400" font-style="normal" 
>
</g>

<g fill="#ffffff" fill-opacity="1" stroke="none" transform="matrix(0.999751,0,0,0.999751,0,0)"
font-family=".SF NS Text" font-size="54.1667" font-weight="400" font-style="normal" 
>
<path vector-effect="none" fill-rule="evenodd" d="M-1,-1 L3508.87,-1 L3508.87,2481.31 L-1,2481.31 L-1,-1"/>
</g>

<g fill="none" stroke="#000000" stroke-opacity="1" stroke-width="1" stroke-linecap="square" stroke-linejoin="bevel" transform="matrix(11.8081,0,0,11.8081,0,0)"
font-family=".SF NS Text" font-size="54.1667" font-weight="400" font-style="normal" 
>
</g>

<g fill="none" stroke="#000000" stroke-opacity="1" stroke-width="1" stroke-linecap="square" stroke-linejoin="bevel" transform="matrix(11.8081,0,0,11.8081,0,0)"
font-family=".SF NS Text" font-size="54.1667" font-weight="400" font-style="normal" 
>
</g>

<g fill="none" stroke="#000000" stroke-opacity="1" stroke-width="1" stroke-linecap="square" stroke-linejoin="bevel" transform="matrix(11.8081,0,0,11.8081,307.01,82.6566)"
font-family=".SF NS Text" font-size="54.1667" font-weight="400" font-style="normal" 
>
</g>

<g fill="none" stroke="#000000" stroke-opacity="1" stroke-width="1" stroke-linecap="square" stroke-linejoin="bevel" transform="matrix(11.8081,0,0,11.8081,307.01,82.6566)"
font-family=".SF NS Text" font-size="54.1667" font-weight="400" font-style="normal" 
>
</g>

<g fill="#4c4c4c" fill-opacity="1" stroke="none" transform="matrix(11.8081,0,0,11.8081,307.01,82.6566)"
font-family=".SF NS Text" font-size="54.1667" font-weight="400" font-style="normal" 
>
<path vector-effect="non-scaling-stroke" fill-rule="evenodd" d="M0,0 L245,0 L245,188 L0,188 L0,0"/>
</g>

<g fill="none" stroke="#000000" stroke-opacity="1" stroke-width="1" stroke-linecap="square" stroke-linejoin="bevel" transform="matrix(11.8081,0,0,11.8081,307.01,82.6566)"
font-family=".SF NS Text" font-size="54.1667" font-weight="400" font-style="normal" 
>
</g>

<g fill="#000000" fill-opacity="0" stroke="none" transform="matrix(0.999751,0,0,0.999751,307.01,82.6566)"
font-family=".SF NS Text" font-size="54.1667" font-weight="400" font-style="normal" 
>
<path vector-effect="non-scaling-stroke" fill-rule="evenodd" d="M0,0 L2894,0 L2894,2220 L0,2220 L0,0"/>
</g>

<g fill="#ff7f00" fill-opacity="1" stroke="#000000" stroke-opacity="1" stroke-width="1" stroke-linecap="square" stroke-linejoin="bevel" transform="matrix(0.999751,0,0,0.999751,307.01,82.6566)"
font-family=".SF NS Text" font-size="54.1667" font-weight="400" font-style="normal" 
>
<path vector-effect="non-scaling-stroke" fill-rule="evenodd" d="M1170.66,926.971 C1170.66,959.586 1144.22,986.026 1111.61,986.026 C1078.99,986.026 1052.55,959.586 1052.55,926.971 C1052.55,894.356 1078.99,867.916 1111.61,867.916 C1144.22,867.916 1170.66,894.356 1170.66,926.971 "/>
<path vector-effect="non-scaling-stroke" fill-rule="evenodd" d="M964.361,912.707 C964.361,940.559 941.782,963.138 913.931,963.138 C886.079,963.138 863.5,940.559 863.5,912.707 C863.5,884.856 886.079,862.277 913.931,862.277 C941.782,862.277 964.361,884.856 964.361,912.707 "/>
<path vector-effect="non-scaling-stroke" fill-rule="evenodd" d="M1089.61,962.051 C1089.61,988.601 1068.08,1010.12 1041.53,1010.12 C1014.99,1010.12 993.463,988.601 993.463,962.051 C993.463,935.502 1014.99,913.98 1041.53,913.98 C1068.08,913.98 1089.61,935.502 1089.61,962.051 "/>
<path vector-effect="non-scaling-stroke" fill-rule="evenodd" d="M934.431,958.323 C934.431,984.659 913.081,1006.01 886.746,1006.01 C860.41,1006.01 839.061,984.659 839.061,958.323 C839.061,931.988 860.41,910.638 886.746,910.638 C913.081,910.638 934.431,931.988 934.431,958.323 "/>
<path vector-effect="non-scaling-stroke" fill-rule="evenodd" d="M1591.21,1454.7 C1591.21,1480.14 1570.59,1500.77 1545.15,1500.77 C1519.71,1500.77 1499.09,1480.14 1499.09,1454.7 C1499.09,1429.27 1519.71,1408.64 1545.15,1408.64 C1570.59,1408.64 1591.21,1429.27 1591.21,1454.7 "/>
<path vector-effect="non-scaling-stroke" fill-rule="evenodd" d="M1366.3,968.603 C1366.3,992.365 1347.03,1011.63 1323.27,1011.63 C1299.51,1011.63 1280.25,992.365 1280.25,968.603 C1280.25,944.841 1299.51,925.578 1323.27,925.578 C1347.03,925.578 1366.3,944.841 1366.3,968.603 "/>
<path vector-effect="non-scaling-stroke" fill-rule="evenodd" d="M976.783,994.6 C976.783,1017.5 958.22,1036.06 935.321,1036.06 C912.422,1036.06 893.859,1017.5 893.859,994.6 C893.859,971.701 912.422,953.137 935.321,953.137 C958.22,953.137 976.783,971.701 976.783,994.6 "/>
<path vector-effect="non-scaling-stroke" fill-rule="evenodd" d="M1611.6,1377.26 C1611.6,1399.17 1593.84,1416.93 1571.92,1416.93 C1550.01,1416.93 1532.25,1399.17 1532.25,1377.26 C1532.25,1355.34 1550.01,1337.58 1571.92,1337.58 C1593.84,1337.58 1611.6,1355.34 1611.6,1377.26 "/>
<path vector-effect="non-scaling-stroke" fill-rule="evenodd" d="M1026.9,902.324 C1026.9,923.951 1009.37,941.484 987.742,941.484 C966.115,941.484 948.583,923.951 948.583,902.324 C948.583,880.697 966.115,863.164 987.742,863.164 C1009.37,863.164 1026.9,880.697 1026.9,902.324 "/>
<path vector-effect="non-scaling-stroke" fill-rule="evenodd" d="M1830.22,1701.12 C1830.22,1721.38 1813.8,1737.79 1793.55,1737.79 C1773.3,1737.79 1756.88,1721.38 1756.88,1701.12 C1756.88,1680.87 1773.3,1664.45 1793.55,1664.45 C1813.8,1664.45 1830.22,1680.87 1830.22,1701.12 "/>
<path vector-effect="non-scaling-stroke" fill-rule="evenodd" d="M930.813,965.467 C930.813,984.541 915.351,1000 896.277,1000 C877.204,1000 861.742,984.541 861.742,965.467 C861.742,946.394 877.204,930.931 896.277,930.931 C915.351,930.931 930.813,946.394 930.813,965.467 "/>
<path vector-effect="non-scaling-stroke" fill-rule="evenodd" d="M1180.89,930.756 C1180.89,949.507 1165.69,964.707 1146.94,964.707 C1128.19,964.707 1112.99,949.507 1112.99,930.756 C1112.99,912.006 1128.19,896.806 1146.94,896.806 C1165.69,896.806 1180.89,912.006 1180.89,930.756 "/>
<path vector-effect="non-scaling-stroke" fill-rule="evenodd" d="M1236.58,1011.25 C1236.58,1029.82 1221.53,1044.87 1202.96,1044.87 C1184.39,1044.87 1169.34,1029.82 1169.34,1011.25 C1169.34,992.678 1184.39,977.625 1202.96,977.625 C1221.53,977.625 1236.58,992.678 1236.58,1011.25 "/>
<path vector-effect="non-scaling-stroke" fill-rule="evenodd" d="M1170.25,966.321 C1170.25,984.032 1155.9,998.389 1138.19,998.389 C1120.48,998.389 1106.12,984.032 1106.12,966.321 C1106.12,948.61 1120.48,934.253 1138.19,934.253 C1155.9,934.253 1170.25,948.61 1170.25,966.321 "/>
<path vector-effect="non-scaling-stroke" fill-rule="evenodd" d="M1052.74,991.135 C1052.74,1008.38 1038.76,1022.37 1021.51,1022.37 C1004.26,1022.37 990.282,1008.38 990.282,991.135 C990.282,973.888 1004.26,959.906 1021.51,959.906 C1038.76,959.906 1052.74,973.888 1052.74,991.135 "/>
<path vector-effect="non-scaling-stroke" fill-rule="evenodd" d="M1140.92,1099.73 C1140.92,1116.86 1127.03,1130.75 1109.9,1130.75 C1092.77,1130.75 1078.89,1116.86 1078.89,1099.73 C1078.89,1082.6 1092.77,1068.72 1109.9,1068.72 C1127.03,1068.72 1140.92,1082.6 1140.92,1099.73 "/>
<path vector-effect="non-scaling-stroke" fill-rule="evenodd" d="M1092.39,933.678 C1092.39,950.729 1078.57,964.552 1061.52,964.552 C1044.46,964.552 1030.64,950.729 1030.64,933.678 C1030.64,916.627 1044.46,902.804 1061.52,902.804 C1078.57,902.804 1092.39,916.627 1092.39,933.678 "/>
<path vector-effect="non-scaling-stroke" fill-rule="evenodd" d="M936.775,972.667 C936.775,989.718 922.952,1003.54 905.901,1003.54 C888.849,1003.54 875.027,989.718 875.027,972.667 C875.027,955.615 888.849,941.793 905.901,941.793 C922.952,941.793 936.775,955.615 936.775,972.667 "/>
<path vector-effect="non-scaling-stroke" fill-rule="evenodd" d="M1985.2,1101.91 C1985.2,1118.24 1971.97,1131.47 1955.64,1131.47 C1939.32,1131.47 1926.08,1118.24 1926.08,1101.91 C1926.08,1085.59 1939.32,1072.35 1955.64,1072.35 C1971.97,1072.35 1985.2,1085.59 1985.2,1101.91 "/>
<path vector-effect="non-scaling-stroke" fill-rule="evenodd" d="M1092.13,1021.28 C1092.13,1037.19 1079.23,1050.09 1063.32,1050.09 C1047.41,1050.09 1034.52,1037.19 1034.52,1021.28 C1034.52,1005.37 1047.41,992.476 1063.32,992.476 C1079.23,992.476 1092.13,1005.37 1092.13,1021.28 "/>
<path vector-effect="non-scaling-stroke" fill-rule="evenodd" d="M1019.29,969.092 C1019.29,984.661 1006.66,997.282 991.096,997.282 C975.527,997.282 962.906,984.661 962.906,969.092 C962.906,953.524 975.527,940.903 991.096,940.903 C1006.66,940.903 1019.29,953.524 1019.29,969.092 "/>
<path vector-effect="non-scaling-stroke" fill-rule="evenodd" d="M1940.09,1210.52 C1940.09,1225.15 1928.22,1237.02 1913.59,1237.02 C1898.95,1237.02 1887.08,1225.15 1887.08,1210.52 C1887.08,1195.88 1898.95,1184.01 1913.59,1184.01 C1928.22,1184.01 1940.09,1195.88 1940.09,1210.52 "/>
<path vector-effect="non-scaling-stroke" fill-rule="evenodd" d="M1144.85,995.471 C1144.85,1009.74 1133.28,1021.31 1119.01,1021.31 C1104.75,1021.31 1093.18,1009.74 1093.18,995.471 C1093.18,981.203 1104.75,969.636 1119.01,969.636 C1133.28,969.636 1144.85,981.203 1144.85,995.471 "/>
<path vector-effect="non-scaling-stroke" fill-rule="evenodd" d="M1057.02,912.677 C1057.02,926.614 1045.72,937.912 1031.79,937.912 C1017.85,937.912 1006.55,926.614 1006.55,912.677 C1006.55,898.74 1017.85,887.443 1031.79,887.443 C1045.72,887.443 1057.02,898.74 1057.02,912.677 "/>
<path vector-effect="non-scaling-stroke" fill-rule="evenodd" d="M1066.84,919.625 C1066.84,933.561 1055.55,944.859 1041.61,944.859 C1027.67,944.859 1016.37,933.561 1016.37,919.625 C1016.37,905.688 1027.67,894.39 1041.61,894.39 C1055.55,894.39 1066.84,905.688 1066.84,919.625 "/>
<path vector-effect="non-scaling-stroke" fill-rule="evenodd" d="M950.219,987.233 C950.219,1000.93 939.117,1012.03 925.422,1012.03 C911.727,1012.03 900.625,1000.93 900.625,987.233 C900.625,973.538 911.727,962.436 925.422,962.436 C939.117,962.436 950.219,973.538 950.219,987.233 "/>
<path vector-effect="non-scaling-stroke" fill-rule="evenodd" d="M901.837,951.235 C901.837,964.784 890.854,975.766 877.306,975.766 C863.758,975.766 852.775,964.784 852.775,951.235 C852.775,937.687 863.758,926.704 877.306,926.704 C890.854,926.704 901.837,937.687 901.837,951.235 "/>
<path vector-effect="non-scaling-stroke" fill-rule="evenodd" d="M1021.58,909.17 C1021.58,922.569 1010.71,933.432 997.315,933.432 C983.916,933.432 973.053,922.569 973.053,909.17 C973.053,895.77 983.916,884.908 997.315,884.908 C1010.71,884.908 1021.58,895.77 1021.58,909.17 "/>
<path vector-effect="non-scaling-stroke" fill-rule="evenodd" d="M989.897,972.667 C989.897,985.916 979.156,996.656 965.907,996.656 C952.658,996.656 941.917,985.916 941.917,972.667 C941.917,959.417 952.658,948.677 965.907,948.677 C979.156,948.677 989.897,959.417 989.897,972.667 "/>
<path vector-effect="non-scaling-stroke" fill-rule="evenodd" d="M1085.49,892.294 C1085.49,905.392 1074.87,916.009 1061.77,916.009 C1048.68,916.009 1038.06,905.392 1038.06,892.294 C1038.06,879.197 1048.68,868.58 1061.77,868.58 C1074.87,868.58 1085.49,879.197 1085.49,892.294 "/>
<path vector-effect="non-scaling-stroke" fill-rule="evenodd" d="M1913.2,1235.74 C1913.2,1248.73 1902.67,1259.27 1889.68,1259.27 C1876.68,1259.27 1866.15,1248.73 1866.15,1235.74 C1866.15,1222.74 1876.68,1212.21 1889.68,1212.21 C1902.67,1212.21 1913.2,1222.74 1913.2,1235.74 "/>
<path vector-effect="non-scaling-stroke" fill-rule="evenodd" d="M1025.9,892.153 C1025.9,904.889 1015.57,915.213 1002.84,915.213 C990.103,915.213 979.779,904.889 979.779,892.153 C979.779,879.418 990.103,869.094 1002.84,869.094 C1015.57,869.094 1025.9,879.418 1025.9,892.153 "/>
<path vector-effect="non-scaling-stroke" fill-rule="evenodd" d="M1014.82,926.457 C1014.82,939.14 1004.54,949.422 991.856,949.422 C979.174,949.422 968.892,939.14 968.892,926.457 C968.892,913.775 979.174,903.493 991.856,903.493 C1004.54,903.493 1014.82,913.775 1014.82,926.457 "/>
<path vector-effect="non-scaling-stroke" fill-rule="evenodd" d="M1110.18,973.181 C1110.18,985.758 1099.99,995.954 1087.41,995.954 C1074.83,995.954 1064.64,985.758 1064.64,973.181 C1064.64,960.604 1074.83,950.408 1087.41,950.408 C1099.99,950.408 1110.18,960.604 1110.18,973.181 "/>
<path vector-effect="non-scaling-stroke" fill-rule="evenodd" d="M1064.82,1006.1 C1064.82,1018.57 1054.71,1028.68 1042.24,1028.68 C1029.77,1028.68 1019.66,1018.57 1019.66,1006.1 C1019.66,993.631 1029.77,983.522 1042.24,983.522 C1054.71,983.522 1064.82,993.631 1064.82,1006.1 "/>
<path vector-effect="non-scaling-stroke" fill-rule="evenodd" d="M1990.2,1109.96 C1990.2,1121.88 1980.53,1131.55 1968.61,1131.55 C1956.69,1131.55 1947.02,1121.88 1947.02,1109.96 C1947.02,1098.04 1956.69,1088.37 1968.61,1088.37 C1980.53,1088.37 1990.2,1098.04 1990.2,1109.96 "/>
<path vector-effect="non-scaling-stroke" fill-rule="evenodd" d="M971.728,1028.34 C971.728,1040.2 962.108,1049.82 950.242,1049.82 C938.376,1049.82 928.756,1040.2 928.756,1028.34 C928.756,1016.47 938.376,1006.85 950.242,1006.85 C962.108,1006.85 971.728,1016.47 971.728,1028.34 "/>
<path vector-effect="non-scaling-stroke" fill-rule="evenodd" d="M1756.77,1712.57 C1756.77,1724.44 1747.15,1734.06 1735.29,1734.06 C1723.42,1734.06 1713.8,1724.44 1713.8,1712.57 C1713.8,1700.71 1723.42,1691.09 1735.29,1691.09 C1747.15,1691.09 1756.77,1700.71 1756.77,1712.57 "/>
<path vector-effect="non-scaling-stroke" fill-rule="evenodd" d="M1036.61,1123.28 C1036.61,1134.92 1027.17,1144.36 1015.53,1144.36 C1003.9,1144.36 994.461,1134.92 994.461,1123.28 C994.461,1111.65 1003.9,1102.21 1015.53,1102.21 C1027.17,1102.21 1036.61,1111.65 1036.61,1123.28 "/>
<path vector-effect="non-scaling-stroke" fill-rule="evenodd" d="M1146.18,742.24 C1146.18,753.587 1136.98,762.786 1125.63,762.786 C1114.29,762.786 1105.09,753.587 1105.09,742.24 C1105.09,730.893 1114.29,721.695 1125.63,721.695 C1136.98,721.695 1146.18,730.893 1146.18,742.24 "/>
<path vector-effect="non-scaling-stroke" fill-rule="evenodd" d="M1001.18,1005.83 C1001.18,1017.06 992.079,1026.16 980.85,1026.16 C969.622,1026.16 960.52,1017.06 960.52,1005.83 C960.52,994.602 969.622,985.499 980.85,985.499 C992.079,985.499 1001.18,994.602 1001.18,1005.83 "/>
<path vector-effect="non-scaling-stroke" fill-rule="evenodd" d="M1271.34,900.756 C1271.34,911.864 1262.34,920.869 1251.23,920.869 C1240.12,920.869 1231.12,911.864 1231.12,900.756 C1231.12,889.648 1240.12,880.643 1251.23,880.643 C1262.34,880.643 1271.34,889.648 1271.34,900.756 "/>
<path vector-effect="non-scaling-stroke" fill-rule="evenodd" d="M1897.49,1248.54 C1897.49,1259.52 1888.58,1268.43 1877.6,1268.43 C1866.61,1268.43 1857.71,1259.52 1857.71,1248.54 C1857.71,1237.55 1866.61,1228.65 1877.6,1228.65 C1888.58,1228.65 1897.49,1237.55 1897.49,1248.54 "/>
<path vector-effect="non-scaling-stroke" fill-rule="evenodd" d="M1922.94,1244.51 C1922.94,1255.31 1914.19,1264.07 1903.39,1264.07 C1892.59,1264.07 1883.83,1255.31 1883.83,1244.51 C1883.83,1233.71 1892.59,1224.95 1903.39,1224.95 C1914.19,1224.95 1922.94,1233.71 1922.94,1244.51 "/>
<path vector-effect="non-scaling-stroke" fill-rule="evenodd" d="M1976.12,1121.5 C1976.12,1131.99 1967.62,1140.49 1957.14,1140.49 C1946.65,1140.49 1938.15,1131.99 1938.15,1121.5 C1938.15,1111.02 1946.65,1102.52 1957.14,1102.52 C1967.62,1102.52 1976.12,1111.02 1976.12,1121.5 "/>
<path vector-effect="non-scaling-stroke" fill-rule="evenodd" d="M1897.67,1270.38 C1897.67,1280.54 1889.44,1288.77 1879.28,1288.77 C1869.12,1288.77 1860.89,1280.54 1860.89,1270.38 C1860.89,1260.22 1869.12,1251.99 1879.28,1251.99 C1889.44,1251.99 1897.67,1260.22 1897.67,1270.38 "/>
<path vector-effect="non-scaling-stroke" fill-rule="evenodd" d="M1040.44,905.783 C1040.44,915.94 1032.21,924.175 1022.05,924.175 C1011.89,924.175 1003.66,915.94 1003.66,905.783 C1003.66,895.625 1011.89,887.391 1022.05,887.391 C1032.21,887.391 1040.44,895.625 1040.44,905.783 "/>
<path vector-effect="non-scaling-stroke" fill-rule="evenodd" d="M1909.52,1257.38 C1909.52,1267.4 1901.4,1275.53 1891.37,1275.53 C1881.35,1275.53 1873.23,1267.4 1873.23,1257.38 C1873.23,1247.36 1881.35,1239.23 1891.37,1239.23 C1901.4,1239.23 1909.52,1247.36 1909.52,1257.38 "/>
<path vector-effect="non-scaling-stroke" fill-rule="evenodd" d="M1846.54,1750.97 C1846.54,1760.79 1838.58,1768.75 1828.76,1768.75 C1818.94,1768.75 1810.98,1760.79 1810.98,1750.97 C1810.98,1741.15 1818.94,1733.19 1828.76,1733.19 C1838.58,1733.19 1846.54,1741.15 1846.54,1750.97 "/>
<path vector-effect="non-scaling-stroke" fill-rule="evenodd" d="M612.729,482.108 C612.729,491.716 604.94,499.505 595.332,499.505 C585.725,499.505 577.936,491.716 577.936,482.108 C577.936,472.5 585.725,464.712 595.332,464.712 C604.94,464.712 612.729,472.5 612.729,482.108 "/>
<path vector-effect="non-scaling-stroke" fill-rule="evenodd" d="M919.366,947.607 C919.366,957.144 911.635,964.875 902.098,964.875 C892.561,964.875 884.83,957.144 884.83,947.607 C884.83,938.071 892.561,930.34 902.098,930.34 C911.635,930.34 919.366,938.071 919.366,947.607 "/>
<path vector-effect="non-scaling-stroke" fill-rule="evenodd" d="M1143.4,836.63 C1143.4,846.094 1135.73,853.767 1126.26,853.767 C1116.8,853.767 1109.12,846.094 1109.12,836.63 C1109.12,827.165 1116.8,819.492 1126.26,819.492 C1135.73,819.492 1143.4,827.165 1143.4,836.63 "/>
<path vector-effect="non-scaling-stroke" fill-rule="evenodd" d="M1083.91,958.585 C1083.91,968.049 1076.24,975.722 1066.78,975.722 C1057.31,975.722 1049.64,968.049 1049.64,958.585 C1049.64,949.12 1057.31,941.447 1066.78,941.447 C1076.24,941.447 1083.91,949.12 1083.91,958.585 "/>
<path vector-effect="non-scaling-stroke" fill-rule="evenodd" d="M1921.81,1266.26 C1921.81,1275.43 1914.38,1282.86 1905.21,1282.86 C1896.03,1282.86 1888.6,1275.43 1888.6,1266.26 C1888.6,1257.09 1896.03,1249.65 1905.21,1249.65 C1914.38,1249.65 1921.81,1257.09 1921.81,1266.26 "/>
<path vector-effect="non-scaling-stroke" fill-rule="evenodd" d="M1211.1,843.634 C1211.1,852.804 1203.66,860.239 1194.49,860.239 C1185.32,860.239 1177.89,852.804 1177.89,843.634 C1177.89,834.463 1185.32,827.028 1194.49,827.028 C1203.66,827.028 1211.1,834.463 1211.1,843.634 "/>
<path vector-effect="non-scaling-stroke" fill-rule="evenodd" d="M1959.2,1093.9 C1959.2,1102.99 1951.82,1110.36 1942.73,1110.36 C1933.63,1110.36 1926.26,1102.99 1926.26,1093.9 C1926.26,1084.8 1933.63,1077.43 1942.73,1077.43 C1951.82,1077.43 1959.2,1084.8 1959.2,1093.9 "/>
<path vector-effect="non-scaling-stroke" fill-rule="evenodd" d="M1201.78,876.366 C1201.78,885.462 1194.41,892.835 1185.31,892.835 C1176.21,892.835 1168.84,885.462 1168.84,876.366 C1168.84,867.27 1176.21,859.897 1185.31,859.897 C1194.41,859.897 1201.78,867.27 1201.78,876.366 "/>
<path vector-effect="non-scaling-stroke" fill-rule="evenodd" d="M591.31,518.956 C591.31,528.051 583.937,535.425 574.841,535.425 C565.745,535.425 558.372,528.051 558.372,518.956 C558.372,509.86 565.745,502.486 574.841,502.486 C583.937,502.486 591.31,509.86 591.31,518.956 "/>
<path vector-effect="non-scaling-stroke" fill-rule="evenodd" d="M1068.07,969.331 C1068.07,978.351 1060.75,985.663 1051.74,985.663 C1042.72,985.663 1035.4,978.351 1035.4,969.331 C1035.4,960.311 1042.72,952.999 1051.74,952.999 C1060.75,952.999 1068.07,960.311 1068.07,969.331 "/>
<path vector-effect="non-scaling-stroke" fill-rule="evenodd" d="M1144.91,1068.11 C1144.91,1077.05 1137.66,1084.3 1128.72,1084.3 C1119.77,1084.3 1112.52,1077.05 1112.52,1068.11 C1112.52,1059.17 1119.77,1051.92 1128.72,1051.92 C1137.66,1051.92 1144.91,1059.17 1144.91,1068.11 "/>
<path vector-effect="non-scaling-stroke" fill-rule="evenodd" d="M920.74,905.905 C920.74,914.771 913.553,921.958 904.688,921.958 C895.822,921.958 888.635,914.771 888.635,905.905 C888.635,897.04 895.822,889.853 904.688,889.853 C913.553,889.853 920.74,897.04 920.74,905.905 "/>
<path vector-effect="non-scaling-stroke" fill-rule="evenodd" d="M1997.54,1118.04 C1997.54,1126.83 1990.42,1133.95 1981.63,1133.95 C1972.84,1133.95 1965.72,1126.83 1965.72,1118.04 C1965.72,1109.26 1972.84,1102.13 1981.63,1102.13 C1990.42,1102.13 1997.54,1109.26 1997.54,1118.04 "/>
<path vector-effect="non-scaling-stroke" fill-rule="evenodd" d="M1161.81,889.432 C1161.81,898.219 1154.69,905.342 1145.9,905.342 C1137.11,905.342 1129.99,898.219 1129.99,889.432 C1129.99,880.645 1137.11,873.521 1145.9,873.521 C1154.69,873.521 1161.81,880.645 1161.81,889.432 "/>
<path vector-effect="non-scaling-stroke" fill-rule="evenodd" d="M952.449,951.097 C952.449,959.884 945.326,967.007 936.539,967.007 C927.751,967.007 920.628,959.884 920.628,951.097 C920.628,942.309 927.751,935.186 936.539,935.186 C945.326,935.186 952.449,942.309 952.449,951.097 "/>
<path vector-effect="non-scaling-stroke" fill-rule="evenodd" d="M1015.96,1135.49 C1015.96,1144.2 1008.9,1151.26 1000.2,1151.26 C991.489,1151.26 984.43,1144.2 984.43,1135.49 C984.43,1126.78 991.489,1119.72 1000.2,1119.72 C1008.9,1119.72 1015.96,1126.78 1015.96,1135.49 "/>
<path vector-effect="non-scaling-stroke" fill-rule="evenodd" d="M1917,1223.06 C1917,1231.53 1910.14,1238.39 1901.67,1238.39 C1893.21,1238.39 1886.34,1231.53 1886.34,1223.06 C1886.34,1214.6 1893.21,1207.74 1901.67,1207.74 C1910.14,1207.74 1917,1214.6 1917,1223.06 "/>
<path vector-effect="non-scaling-stroke" fill-rule="evenodd" d="M1140.27,1087.86 C1140.27,1096.33 1133.41,1103.19 1124.94,1103.19 C1116.48,1103.19 1109.61,1096.33 1109.61,1087.86 C1109.61,1079.4 1116.48,1072.53 1124.94,1072.53 C1133.41,1072.53 1140.27,1079.4 1140.27,1087.86 "/>
<path vector-effect="non-scaling-stroke" fill-rule="evenodd" d="M1924.18,1148.55 C1924.18,1156.94 1917.39,1163.73 1909,1163.73 C1900.62,1163.73 1893.83,1156.94 1893.83,1148.55 C1893.83,1140.17 1900.62,1133.38 1909,1133.38 C1917.39,1133.38 1924.18,1140.17 1924.18,1148.55 "/>
<path vector-effect="non-scaling-stroke" fill-rule="evenodd" d="M1046.7,998.591 C1046.7,1006.8 1040.04,1013.46 1031.83,1013.46 C1023.62,1013.46 1016.96,1006.8 1016.96,998.591 C1016.96,990.378 1023.62,983.72 1031.83,983.72 C1040.04,983.72 1046.7,990.378 1046.7,998.591 "/>
<path vector-effect="non-scaling-stroke" fill-rule="evenodd" d="M930.487,979.922 C930.487,988.135 923.829,994.793 915.616,994.793 C907.402,994.793 900.744,988.135 900.744,979.922 C900.744,971.709 907.402,965.05 915.616,965.05 C923.829,965.05 930.487,971.709 930.487,979.922 "/>
<path vector-effect="non-scaling-stroke" fill-rule="evenodd" d="M1092.2,842.815 C1092.2,850.855 1085.68,857.372 1077.64,857.372 C1069.6,857.372 1063.08,850.855 1063.08,842.815 C1063.08,834.775 1069.6,828.257 1077.64,828.257 C1085.68,828.257 1092.2,834.775 1092.2,842.815 "/>
<path vector-effect="non-scaling-stroke" fill-rule="evenodd" d="M1081.15,777.429 C1081.15,785.29 1074.77,791.663 1066.91,791.663 C1059.05,791.663 1052.68,785.29 1052.68,777.429 C1052.68,769.567 1059.05,763.194 1066.91,763.194 C1074.77,763.194 1081.15,769.567 1081.15,777.429 "/>
<path vector-effect="non-scaling-stroke" fill-rule="evenodd" d="M1090.93,882.256 C1090.93,890.118 1084.56,896.491 1076.7,896.491 C1068.83,896.491 1062.46,890.118 1062.46,882.256 C1062.46,874.395 1068.83,868.021 1076.7,868.021 C1084.56,868.021 1090.93,874.395 1090.93,882.256 "/>
<path vector-effect="non-scaling-stroke" fill-rule="evenodd" d="M1165.64,1018.23 C1165.64,1026.09 1159.26,1032.47 1151.4,1032.47 C1143.54,1032.47 1137.17,1026.09 1137.17,1018.23 C1137.17,1010.37 1143.54,1004 1151.4,1004 C1159.26,1004 1165.64,1010.37 1165.64,1018.23 "/>
<path vector-effect="non-scaling-stroke" fill-rule="evenodd" d="M1051.83,1024.91 C1051.83,1032.77 1045.46,1039.15 1037.6,1039.15 C1029.74,1039.15 1023.36,1032.77 1023.36,1024.91 C1023.36,1017.05 1029.74,1010.68 1037.6,1010.68 C1045.46,1010.68 1051.83,1017.05 1051.83,1024.91 "/>
<path vector-effect="non-scaling-stroke" fill-rule="evenodd" d="M1007.43,885.418 C1007.43,893.189 1001.13,899.488 993.363,899.488 C985.592,899.488 979.293,893.189 979.293,885.418 C979.293,877.648 985.592,871.348 993.363,871.348 C1001.13,871.348 1007.43,877.648 1007.43,885.418 "/>
<path vector-effect="non-scaling-stroke" fill-rule="evenodd" d="M1070.66,951.366 C1070.66,959.136 1064.36,965.436 1056.59,965.436 C1048.82,965.436 1042.52,959.136 1042.52,951.366 C1042.52,943.595 1048.82,937.296 1056.59,937.296 C1064.36,937.296 1070.66,943.595 1070.66,951.366 "/>
<path vector-effect="non-scaling-stroke" fill-rule="evenodd" d="M1015.52,1020.94 C1015.52,1028.71 1009.22,1035.01 1001.45,1035.01 C993.679,1035.01 987.38,1028.71 987.38,1020.94 C987.38,1013.17 993.679,1006.87 1001.45,1006.87 C1009.22,1006.87 1015.52,1013.17 1015.52,1020.94 "/>
<path vector-effect="non-scaling-stroke" fill-rule="evenodd" d="M1110.25,895.855 C1110.25,903.533 1104.02,909.758 1096.34,909.758 C1088.67,909.758 1082.44,903.533 1082.44,895.855 C1082.44,888.177 1088.67,881.953 1096.34,881.953 C1104.02,881.953 1110.25,888.177 1110.25,895.855 "/>
<path vector-effect="non-scaling-stroke" fill-rule="evenodd" d="M975.389,947.539 C975.389,955.217 969.165,961.441 961.487,961.441 C953.809,961.441 947.584,955.217 947.584,947.539 C947.584,939.861 953.809,933.636 961.487,933.636 C969.165,933.636 975.389,939.861 975.389,947.539 "/>
<path vector-effect="non-scaling-stroke" fill-rule="evenodd" d="M1192.05,952.313 C1192.05,959.897 1185.9,966.046 1178.32,966.046 C1170.73,966.046 1164.58,959.897 1164.58,952.313 C1164.58,944.729 1170.73,938.581 1178.32,938.581 C1185.9,938.581 1192.05,944.729 1192.05,952.313 "/>
<path vector-effect="non-scaling-stroke" fill-rule="evenodd" d="M1920.69,1288.31 C1920.69,1295.8 1914.62,1301.87 1907.13,1301.87 C1899.64,1301.87 1893.57,1295.8 1893.57,1288.31 C1893.57,1280.82 1899.64,1274.75 1907.13,1274.75 C1914.62,1274.75 1920.69,1280.82 1920.69,1288.31 "/>
<path vector-effect="non-scaling-stroke" fill-rule="evenodd" d="M984.826,954.669 C984.826,962.157 978.755,968.228 971.267,968.228 C963.778,968.228 957.707,962.157 957.707,954.669 C957.707,947.18 963.778,941.11 971.267,941.11 C978.755,941.11 984.826,947.18 984.826,954.669 "/>
<path vector-effect="non-scaling-stroke" fill-rule="evenodd" d="M1081.21,1002.52 C1081.21,1009.92 1075.22,1015.91 1067.82,1015.91 C1060.43,1015.91 1054.44,1009.92 1054.44,1002.52 C1054.44,995.133 1060.43,989.141 1067.82,989.141 C1075.22,989.141 1081.21,995.133 1081.21,1002.52 "/>
<path vector-effect="non-scaling-stroke" fill-rule="evenodd" d="M1960.36,1153.25 C1960.36,1160.54 1954.45,1166.45 1947.16,1166.45 C1939.87,1166.45 1933.96,1160.54 1933.96,1153.25 C1933.96,1145.95 1939.87,1140.04 1947.16,1140.04 C1954.45,1140.04 1960.36,1145.95 1960.36,1153.25 "/>
<path vector-effect="non-scaling-stroke" fill-rule="evenodd" d="M1064.72,926.625 C1064.72,933.917 1058.81,939.829 1051.52,939.829 C1044.23,939.829 1038.32,933.917 1038.32,926.625 C1038.32,919.333 1044.23,913.421 1051.52,913.421 C1058.81,913.421 1064.72,919.333 1064.72,926.625 "/>
<path vector-effect="non-scaling-stroke" fill-rule="evenodd" d="M688.994,507.662 C688.994,514.853 683.164,520.683 675.972,520.683 C668.781,520.683 662.951,514.853 662.951,507.662 C662.951,500.47 668.781,494.64 675.972,494.64 C683.164,494.64 688.994,500.47 688.994,507.662 "/>
<path vector-effect="non-scaling-stroke" fill-rule="evenodd" d="M602.015,512.273 C602.015,519.362 596.269,525.108 589.18,525.108 C582.092,525.108 576.345,519.362 576.345,512.273 C576.345,505.184 582.092,499.438 589.18,499.438 C596.269,499.438 602.015,505.184 602.015,512.273 "/>
<path vector-effect="non-scaling-stroke" fill-rule="evenodd" d="M1049.32,937.087 C1049.32,944.176 1043.57,949.923 1036.48,949.923 C1029.39,949.923 1023.65,944.176 1023.65,937.087 C1023.65,929.999 1029.39,924.252 1036.48,924.252 C1043.57,924.252 1049.32,929.999 1049.32,937.087 "/>
<path vector-effect="non-scaling-stroke" fill-rule="evenodd" d="M1071.73,1040.33 C1071.73,1047.42 1065.98,1053.16 1058.89,1053.16 C1051.8,1053.16 1046.06,1047.42 1046.06,1040.33 C1046.06,1033.24 1051.8,1027.49 1058.89,1027.49 C1065.98,1027.49 1071.73,1033.24 1071.73,1040.33 "/>
<path vector-effect="non-scaling-stroke" fill-rule="evenodd" d="M1163.27,872.718 C1163.27,879.701 1157.61,885.363 1150.63,885.363 C1143.64,885.363 1137.98,879.701 1137.98,872.718 C1137.98,865.734 1143.64,860.073 1150.63,860.073 C1157.61,860.073 1163.27,865.734 1163.27,872.718 "/>
<path vector-effect="non-scaling-stroke" fill-rule="evenodd" d="M1029.37,923.022 C1029.37,930.006 1023.71,935.667 1016.72,935.667 C1009.74,935.667 1004.08,930.006 1004.08,923.022 C1004.08,916.038 1009.74,910.377 1016.72,910.377 C1023.71,910.377 1029.37,916.038 1029.37,923.022 "/>
<path vector-effect="non-scaling-stroke" fill-rule="evenodd" d="M1982.67,1129.65 C1982.67,1136.53 1977.1,1142.1 1970.22,1142.1 C1963.34,1142.1 1957.77,1136.53 1957.77,1129.65 C1957.77,1122.78 1963.34,1117.2 1970.22,1117.2 C1977.1,1117.2 1982.67,1122.78 1982.67,1129.65 "/>
<path vector-effect="non-scaling-stroke" fill-rule="evenodd" d="M717.253,494.706 C717.253,501.583 711.678,507.157 704.802,507.157 C697.925,507.157 692.351,501.583 692.351,494.706 C692.351,487.83 697.925,482.256 704.802,482.256 C711.678,482.256 717.253,487.83 717.253,494.706 "/>
<path vector-effect="non-scaling-stroke" fill-rule="evenodd" d="M1998.39,1403.24 C1998.39,1410.12 1992.82,1415.69 1985.94,1415.69 C1979.06,1415.69 1973.49,1410.12 1973.49,1403.24 C1973.49,1396.36 1979.06,1390.79 1985.94,1390.79 C1992.82,1390.79 1998.39,1396.36 1998.39,1403.24 "/>
<path vector-effect="non-scaling-stroke" fill-rule="evenodd" d="M1212.1,966.939 C1212.1,973.816 1206.53,979.39 1199.65,979.39 C1192.77,979.39 1187.2,973.816 1187.2,966.939 C1187.2,960.063 1192.77,954.489 1199.65,954.489 C1206.53,954.489 1212.1,960.063 1212.1,966.939 "/>
<path vector-effect="non-scaling-stroke" fill-rule="evenodd" d="M1049.53,895.598 C1049.53,902.475 1043.96,908.049 1037.08,908.049 C1030.2,908.049 1024.63,902.475 1024.63,895.598 C1024.63,888.722 1030.2,883.147 1037.08,883.147 C1043.96,883.147 1049.53,888.722 1049.53,895.598 "/>
<path vector-effect="non-scaling-stroke" fill-rule="evenodd" d="M1078.96,916.265 C1078.96,923.142 1073.39,928.716 1066.51,928.716 C1059.63,928.716 1054.06,923.142 1054.06,916.265 C1054.06,909.389 1059.63,903.814 1066.51,903.814 C1073.39,903.814 1078.96,909.389 1078.96,916.265 "/>
<path vector-effect="non-scaling-stroke" fill-rule="evenodd" d="M1023.91,940.534 C1023.91,947.41 1018.34,952.985 1011.46,952.985 C1004.59,952.985 999.012,947.41 999.012,940.534 C999.012,933.658 1004.59,928.083 1011.46,928.083 C1018.34,928.083 1023.91,933.658 1023.91,940.534 "/>
<path vector-effect="non-scaling-stroke" fill-rule="evenodd" d="M1905.43,1279.33 C1905.43,1286.09 1899.94,1291.58 1893.18,1291.58 C1886.41,1291.58 1880.92,1286.09 1880.92,1279.33 C1880.92,1272.56 1886.41,1267.07 1893.18,1267.07 C1899.94,1267.07 1905.43,1272.56 1905.43,1279.33 "/>
<path vector-effect="non-scaling-stroke" fill-rule="evenodd" d="M1192.17,853.225 C1192.17,859.992 1186.69,865.477 1179.92,865.477 C1173.16,865.477 1167.67,859.992 1167.67,853.225 C1167.67,846.458 1173.16,840.973 1179.92,840.973 C1186.69,840.973 1192.17,846.458 1192.17,853.225 "/>
<path vector-effect="non-scaling-stroke" fill-rule="evenodd" d="M1186.26,970.292 C1186.26,976.947 1180.87,982.341 1174.22,982.341 C1167.56,982.341 1162.17,976.947 1162.17,970.292 C1162.17,963.638 1167.56,958.244 1174.22,958.244 C1180.87,958.244 1186.26,963.638 1186.26,970.292 "/>
<path vector-effect="non-scaling-stroke" fill-rule="evenodd" d="M944.733,926.476 C944.733,933.13 939.339,938.525 932.684,938.525 C926.03,938.525 920.636,933.13 920.636,926.476 C920.636,919.822 926.03,914.427 932.684,914.427 C939.339,914.427 944.733,919.822 944.733,926.476 "/>
<path vector-effect="non-scaling-stroke" fill-rule="evenodd" d="M1429.48,1414.28 C1429.48,1420.93 1424.09,1426.33 1417.43,1426.33 C1410.78,1426.33 1405.39,1420.93 1405.39,1414.28 C1405.39,1407.63 1410.78,1402.23 1417.43,1402.23 C1424.09,1402.23 1429.48,1407.63 1429.48,1414.28 "/>
<path vector-effect="non-scaling-stroke" fill-rule="evenodd" d="M1939.01,1219.15 C1939.01,1225.68 1933.71,1230.99 1927.17,1230.99 C1920.63,1230.99 1915.33,1225.68 1915.33,1219.15 C1915.33,1212.61 1920.63,1207.31 1927.17,1207.31 C1933.71,1207.31 1939.01,1212.61 1939.01,1219.15 "/>
<path vector-effect="non-scaling-stroke" fill-rule="evenodd" d="M1227.11,1084.85 C1227.11,1091.39 1221.81,1096.69 1215.27,1096.69 C1208.73,1096.69 1203.43,1091.39 1203.43,1084.85 C1203.43,1078.31 1208.73,1073.01 1215.27,1073.01 C1221.81,1073.01 1227.11,1078.31 1227.11,1084.85 "/>
<path vector-effect="non-scaling-stroke" fill-rule="evenodd" d="M938.77,944.017 C938.77,950.556 933.469,955.857 926.93,955.857 C920.391,955.857 915.09,950.556 915.09,944.017 C915.09,937.477 920.391,932.176 926.93,932.176 C933.469,932.176 938.77,937.477 938.77,944.017 "/>
<path vector-effect="non-scaling-stroke" fill-rule="evenodd" d="M1886.17,1205.76 C1886.17,1212.19 1880.97,1217.39 1874.55,1217.39 C1868.12,1217.39 1862.92,1212.19 1862.92,1205.76 C1862.92,1199.34 1868.12,1194.14 1874.55,1194.14 C1880.97,1194.14 1886.17,1199.34 1886.17,1205.76 "/>
<path vector-effect="non-scaling-stroke" fill-rule="evenodd" d="M1935.18,1177.33 C1935.18,1183.63 1930.07,1188.74 1923.77,1188.74 C1917.47,1188.74 1912.37,1183.63 1912.37,1177.33 C1912.37,1171.04 1917.47,1165.93 1923.77,1165.93 C1930.07,1165.93 1935.18,1171.04 1935.18,1177.33 "/>
<path vector-effect="non-scaling-stroke" fill-rule="evenodd" d="M1218.82,931.372 C1218.82,937.545 1213.82,942.549 1207.65,942.549 C1201.47,942.549 1196.47,937.545 1196.47,931.372 C1196.47,925.198 1201.47,920.194 1207.65,920.194 C1213.82,920.194 1218.82,925.198 1218.82,931.372 "/>
<path vector-effect="non-scaling-stroke" fill-rule="evenodd" d="M1064.52,845.97 C1064.52,852.143 1059.52,857.148 1053.34,857.148 C1047.17,857.148 1042.17,852.143 1042.17,845.97 C1042.17,839.797 1047.17,834.792 1053.34,834.792 C1059.52,834.792 1064.52,839.797 1064.52,845.97 "/>
<path vector-effect="non-scaling-stroke" fill-rule="evenodd" d="M1013.73,1067.15 C1013.73,1073.32 1008.73,1078.33 1002.55,1078.33 C996.382,1078.33 991.377,1073.32 991.377,1067.15 C991.377,1060.98 996.382,1055.97 1002.55,1055.97 C1008.73,1055.97 1013.73,1060.98 1013.73,1067.15 "/>
<path vector-effect="non-scaling-stroke" fill-rule="evenodd" d="M599.291,476.763 C599.291,482.807 594.392,487.706 588.348,487.706 C582.305,487.706 577.406,482.807 577.406,476.763 C577.406,470.72 582.305,465.821 588.348,465.821 C594.392,465.821 599.291,470.72 599.291,476.763 "/>
<path vector-effect="non-scaling-stroke" fill-rule="evenodd" d="M1033.36,1036.26 C1033.36,1042.31 1028.46,1047.2 1022.41,1047.2 C1016.37,1047.2 1011.47,1042.31 1011.47,1036.26 C1011.47,1030.22 1016.37,1025.32 1022.41,1025.32 C1028.46,1025.32 1033.36,1030.22 1033.36,1036.26 "/>
<path vector-effect="non-scaling-stroke" fill-rule="evenodd" d="M986.776,1024.62 C986.776,1030.66 981.877,1035.56 975.834,1035.56 C969.79,1035.56 964.891,1030.66 964.891,1024.62 C964.891,1018.58 969.79,1013.68 975.834,1013.68 C981.877,1013.68 986.776,1018.58 986.776,1024.62 "/>
<path vector-effect="non-scaling-stroke" fill-rule="evenodd" d="M1910.76,1201.92 C1910.76,1207.83 1905.97,1212.62 1900.06,1212.62 C1894.15,1212.62 1889.36,1207.83 1889.36,1201.92 C1889.36,1196.01 1894.15,1191.22 1900.06,1191.22 C1905.97,1191.22 1910.76,1196.01 1910.76,1201.92 "/>
<path vector-effect="non-scaling-stroke" fill-rule="evenodd" d="M1142.11,820.766 C1142.11,826.675 1137.32,831.465 1131.41,831.465 C1125.51,831.465 1120.72,826.675 1120.72,820.766 C1120.72,814.857 1125.51,810.067 1131.41,810.067 C1137.32,810.067 1142.11,814.857 1142.11,820.766 "/>
<path vector-effect="non-scaling-stroke" fill-rule="evenodd" d="M1112.17,919.932 C1112.17,925.84 1107.38,930.63 1101.47,930.63 C1095.56,930.63 1090.77,925.84 1090.77,919.932 C1090.77,914.023 1095.56,909.233 1101.47,909.233 C1107.38,909.233 1112.17,914.023 1112.17,919.932 "/>
<path vector-effect="non-scaling-stroke" fill-rule="evenodd" d="M1132.53,934.062 C1132.53,939.971 1127.74,944.761 1121.83,944.761 C1115.92,944.761 1111.13,939.971 1111.13,934.062 C1111.13,928.153 1115.92,923.363 1121.83,923.363 C1127.74,923.363 1132.53,928.153 1132.53,934.062 "/>
<path vector-effect="non-scaling-stroke" fill-rule="evenodd" d="M881.869,902.693 C881.869,908.602 877.079,913.392 871.17,913.392 C865.261,913.392 860.471,908.602 860.471,902.693 C860.471,896.784 865.261,891.994 871.17,891.994 C877.079,891.994 881.869,896.784 881.869,902.693 "/>
<path vector-effect="non-scaling-stroke" fill-rule="evenodd" d="M956.01,1002.02 C956.01,1007.93 951.22,1012.72 945.311,1012.72 C939.402,1012.72 934.612,1007.93 934.612,1002.02 C934.612,996.113 939.402,991.323 945.311,991.323 C951.22,991.323 956.01,996.113 956.01,1002.02 "/>
<path vector-effect="non-scaling-stroke" fill-rule="evenodd" d="M1977.54,1090.56 C1977.54,1096.33 1972.87,1101 1967.1,1101 C1961.33,1101 1956.65,1096.33 1956.65,1090.56 C1956.65,1084.79 1961.33,1080.11 1967.1,1080.11 C1972.87,1080.11 1977.54,1084.79 1977.54,1090.56 "/>
<path vector-effect="non-scaling-stroke" fill-rule="evenodd" d="M1907.59,1160.52 C1907.59,1166.29 1902.91,1170.97 1897.14,1170.97 C1891.37,1170.97 1886.7,1166.29 1886.7,1160.52 C1886.7,1154.75 1891.37,1150.08 1897.14,1150.08 C1902.91,1150.08 1907.59,1154.75 1907.59,1160.52 "/>
<path vector-effect="non-scaling-stroke" fill-rule="evenodd" d="M1883.62,1184.83 C1883.62,1190.6 1878.94,1195.27 1873.17,1195.27 C1867.4,1195.27 1862.73,1190.6 1862.73,1184.83 C1862.73,1179.06 1867.4,1174.38 1873.17,1174.38 C1878.94,1174.38 1883.62,1179.06 1883.62,1184.83 "/>
<path vector-effect="non-scaling-stroke" fill-rule="evenodd" d="M619.964,527.937 C619.964,533.706 615.288,538.382 609.519,538.382 C603.75,538.382 599.074,533.706 599.074,527.937 C599.074,522.168 603.75,517.491 609.519,517.491 C615.288,517.491 619.964,522.168 619.964,527.937 "/>
<path vector-effect="non-scaling-stroke" fill-rule="evenodd" d="M605.513,534.778 C605.513,540.547 600.836,545.223 595.067,545.223 C589.298,545.223 584.622,540.547 584.622,534.778 C584.622,529.009 589.298,524.332 595.067,524.332 C600.836,524.332 605.513,529.009 605.513,534.778 "/>
<path vector-effect="non-scaling-stroke" fill-rule="evenodd" d="M951.191,976.276 C951.191,982.045 946.514,986.722 940.745,986.722 C934.977,986.722 930.3,982.045 930.3,976.276 C930.3,970.508 934.977,965.831 940.745,965.831 C946.514,965.831 951.191,970.508 951.191,976.276 "/>
<path vector-effect="non-scaling-stroke" fill-rule="evenodd" d="M1842.52,1779.24 C1842.52,1785.01 1837.85,1789.68 1832.08,1789.68 C1826.31,1789.68 1821.63,1785.01 1821.63,1779.24 C1821.63,1773.47 1826.31,1768.79 1832.08,1768.79 C1837.85,1768.79 1842.52,1773.47 1842.52,1779.24 "/>
<path vector-effect="non-scaling-stroke" fill-rule="evenodd" d="M1106.56,619.74 C1106.56,625.363 1102,629.921 1096.38,629.921 C1090.75,629.921 1086.2,625.363 1086.2,619.74 C1086.2,614.118 1090.75,609.56 1096.38,609.56 C1102,609.56 1106.56,614.118 1106.56,619.74 "/>
<path vector-effect="non-scaling-stroke" fill-rule="evenodd" d="M1080.34,798.708 C1080.34,804.331 1075.78,808.889 1070.16,808.889 C1064.54,808.889 1059.98,804.331 1059.98,798.708 C1059.98,793.085 1064.54,788.527 1070.16,788.527 C1075.78,788.527 1080.34,793.085 1080.34,798.708 "/>
<path vector-effect="non-scaling-stroke" fill-rule="evenodd" d="M601.989,479.415 C601.989,485.038 597.431,489.596 591.809,489.596 C586.186,489.596 581.628,485.038 581.628,479.415 C581.628,473.793 586.186,469.235 591.809,469.235 C597.431,469.235 601.989,473.793 601.989,479.415 "/>
<path vector-effect="non-scaling-stroke" fill-rule="evenodd" d="M1253.61,935.323 C1253.61,940.945 1249.05,945.503 1243.42,945.503 C1237.8,945.503 1233.24,940.945 1233.24,935.323 C1233.24,929.7 1237.8,925.142 1243.42,925.142 C1249.05,925.142 1253.61,929.7 1253.61,935.323 "/>
<path vector-effect="non-scaling-stroke" fill-rule="evenodd" d="M1141.32,899.495 C1141.32,905.117 1136.76,909.675 1131.14,909.675 C1125.52,909.675 1120.96,905.117 1120.96,899.495 C1120.96,893.872 1125.52,889.314 1131.14,889.314 C1136.76,889.314 1141.32,893.872 1141.32,899.495 "/>
<path vector-effect="non-scaling-stroke" fill-rule="evenodd" d="M1133.5,977.102 C1133.5,982.725 1128.94,987.283 1123.31,987.283 C1117.69,987.283 1113.13,982.725 1113.13,977.102 C1113.13,971.479 1117.69,966.921 1123.31,966.921 C1128.94,966.921 1133.5,971.479 1133.5,977.102 "/>
<path vector-effect="non-scaling-stroke" fill-rule="evenodd" d="M1057.13,987.575 C1057.13,993.198 1052.57,997.756 1046.95,997.756 C1041.33,997.756 1036.77,993.198 1036.77,987.575 C1036.77,981.953 1041.33,977.395 1046.95,977.395 C1052.57,977.395 1057.13,981.953 1057.13,987.575 "/>
<path vector-effect="non-scaling-stroke" fill-rule="evenodd" d="M1053.92,1051.81 C1053.92,1057.43 1049.36,1061.99 1043.74,1061.99 C1038.12,1061.99 1033.56,1057.43 1033.56,1051.81 C1033.56,1046.18 1038.12,1041.62 1043.74,1041.62 C1049.36,1041.62 1053.92,1046.18 1053.92,1051.81 "/>
<path vector-effect="non-scaling-stroke" fill-rule="evenodd" d="M1585.67,831.938 C1585.67,837.408 1581.23,841.842 1575.77,841.842 C1570.3,841.842 1565.86,837.408 1565.86,831.938 C1565.86,826.469 1570.3,822.035 1575.77,822.035 C1581.23,822.035 1585.67,826.469 1585.67,831.938 "/>
<path vector-effect="non-scaling-stroke" fill-rule="evenodd" d="M1943.85,1144.96 C1943.85,1150.43 1939.42,1154.86 1933.95,1154.86 C1928.48,1154.86 1924.04,1150.43 1924.04,1144.96 C1924.04,1139.49 1928.48,1135.06 1933.95,1135.06 C1939.42,1135.06 1943.85,1139.49 1943.85,1144.96 "/>
<path vector-effect="non-scaling-stroke" fill-rule="evenodd" d="M1933.19,1319.78 C1933.19,1325.25 1928.76,1329.68 1923.29,1329.68 C1917.82,1329.68 1913.38,1325.25 1913.38,1319.78 C1913.38,1314.31 1917.82,1309.88 1923.29,1309.88 C1928.76,1309.88 1933.19,1314.31 1933.19,1319.78 "/>
<path vector-effect="non-scaling-stroke" fill-rule="evenodd" d="M1225.84,896.91 C1225.84,902.379 1221.4,906.813 1215.93,906.813 C1210.46,906.813 1206.03,902.379 1206.03,896.91 C1206.03,891.441 1210.46,887.007 1215.93,887.007 C1221.4,887.007 1225.84,891.441 1225.84,896.91 "/>
<path vector-effect="non-scaling-stroke" fill-rule="evenodd" d="M2349.3,1653.23 C2349.3,1658.7 2344.87,1663.13 2339.4,1663.13 C2333.93,1663.13 2329.49,1658.7 2329.49,1653.23 C2329.49,1647.76 2333.93,1643.32 2339.4,1643.32 C2344.87,1643.32 2349.3,1647.76 2349.3,1653.23 "/>
<path vector-effect="non-scaling-stroke" fill-rule="evenodd" d="M985.781,979.966 C985.781,985.436 981.347,989.87 975.877,989.87 C970.408,989.87 965.974,985.436 965.974,979.966 C965.974,974.497 970.408,970.063 975.877,970.063 C981.347,970.063 985.781,974.497 985.781,979.966 "/>
<path vector-effect="non-scaling-stroke" fill-rule="evenodd" d="M902.567,940.579 C902.567,946.048 898.133,950.482 892.664,950.482 C887.194,950.482 882.76,946.048 882.76,940.579 C882.76,935.109 887.194,930.675 892.664,930.675 C898.133,930.675 902.567,935.109 902.567,940.579 "/>
<path vector-effect="non-scaling-stroke" fill-rule="evenodd" d="M1825.69,1768.06 C1825.69,1773.53 1821.26,1777.96 1815.79,1777.96 C1810.32,1777.96 1805.88,1773.53 1805.88,1768.06 C1805.88,1762.59 1810.32,1758.15 1815.79,1758.15 C1821.26,1758.15 1825.69,1762.59 1825.69,1768.06 "/>
<path vector-effect="non-scaling-stroke" fill-rule="evenodd" d="M1558.79,782.102 C1558.79,787.409 1554.49,791.712 1549.18,791.712 C1543.87,791.712 1539.57,787.409 1539.57,782.102 C1539.57,776.794 1543.87,772.492 1549.18,772.492 C1554.49,772.492 1558.79,776.794 1558.79,782.102 "/>
<path vector-effect="non-scaling-stroke" fill-rule="evenodd" d="M1935.03,1198.09 C1935.03,1203.4 1930.73,1207.7 1925.42,1207.7 C1920.11,1207.7 1915.81,1203.4 1915.81,1198.09 C1915.81,1192.78 1920.11,1188.48 1925.42,1188.48 C1930.73,1188.48 1935.03,1192.78 1935.03,1198.09 "/>
<path vector-effect="non-scaling-stroke" fill-rule="evenodd" d="M1146.27,923.673 C1146.27,928.981 1141.96,933.283 1136.65,933.283 C1131.35,933.283 1127.04,928.981 1127.04,923.673 C1127.04,918.366 1131.35,914.063 1136.65,914.063 C1141.96,914.063 1146.27,918.366 1146.27,923.673 "/>
<path vector-effect="non-scaling-stroke" fill-rule="evenodd" d="M1008.66,868.78 C1008.66,874.087 1004.35,878.39 999.046,878.39 C993.738,878.39 989.436,874.087 989.436,868.78 C989.436,863.472 993.738,859.169 999.046,859.169 C1004.35,859.169 1008.66,863.472 1008.66,868.78 "/>
<path vector-effect="non-scaling-stroke" fill-rule="evenodd" d="M1774.1,1706.85 C1774.1,1712.16 1769.79,1716.46 1764.49,1716.46 C1759.18,1716.46 1754.88,1712.16 1754.88,1706.85 C1754.88,1701.54 1759.18,1697.24 1764.49,1697.24 C1769.79,1697.24 1774.1,1701.54 1774.1,1706.85 "/>
<path vector-effect="non-scaling-stroke" fill-rule="evenodd" d="M1920.59,1333.32 C1920.59,1338.46 1916.43,1342.62 1911.29,1342.62 C1906.16,1342.62 1901.99,1338.46 1901.99,1333.32 C1901.99,1328.19 1906.16,1324.02 1911.29,1324.02 C1916.43,1324.02 1920.59,1328.19 1920.59,1333.32 "/>
<path vector-effect="non-scaling-stroke" fill-rule="evenodd" d="M1095.78,889.03 C1095.78,894.165 1091.61,898.328 1086.48,898.328 C1081.34,898.328 1077.18,894.165 1077.18,889.03 C1077.18,883.894 1081.34,879.731 1086.48,879.731 C1091.61,879.731 1095.78,883.894 1095.78,889.03 "/>
<path vector-effect="non-scaling-stroke" fill-rule="evenodd" d="M1166.62,937.891 C1166.62,943.026 1162.45,947.19 1157.32,947.19 C1152.18,947.19 1148.02,943.026 1148.02,937.891 C1148.02,932.755 1152.18,928.592 1157.32,928.592 C1162.45,928.592 1166.62,932.755 1166.62,937.891 "/>
<path vector-effect="non-scaling-stroke" fill-rule="evenodd" d="M1045.95,980.181 C1045.95,985.317 1041.78,989.48 1036.65,989.48 C1031.51,989.48 1027.35,985.317 1027.35,980.181 C1027.35,975.046 1031.51,970.883 1036.65,970.883 C1041.78,970.883 1045.95,975.046 1045.95,980.181 "/>
<path vector-effect="non-scaling-stroke" fill-rule="evenodd" d="M1089.85,1055.96 C1089.85,1061.09 1085.69,1065.26 1080.55,1065.26 C1075.41,1065.26 1071.25,1061.09 1071.25,1055.96 C1071.25,1050.82 1075.41,1046.66 1080.55,1046.66 C1085.69,1046.66 1089.85,1050.82 1089.85,1055.96 "/>
<path vector-effect="non-scaling-stroke" fill-rule="evenodd" d="M1021.18,1028.57 C1021.18,1033.71 1017.02,1037.87 1011.89,1037.87 C1006.75,1037.87 1002.59,1033.71 1002.59,1028.57 C1002.59,1023.44 1006.75,1019.27 1011.89,1019.27 C1017.02,1019.27 1021.18,1023.44 1021.18,1028.57 "/>
<path vector-effect="non-scaling-stroke" fill-rule="evenodd" d="M1059.56,1079.28 C1059.56,1084.42 1055.4,1088.58 1050.27,1088.58 C1045.13,1088.58 1040.97,1084.42 1040.97,1079.28 C1040.97,1074.14 1045.13,1069.98 1050.27,1069.98 C1055.4,1069.98 1059.56,1074.14 1059.56,1079.28 "/>
<path vector-effect="non-scaling-stroke" fill-rule="evenodd" d="M2007.12,1020.4 C2007.12,1025.35 2003.1,1029.36 1998.15,1029.36 C1993.2,1029.36 1989.19,1025.35 1989.19,1020.4 C1989.19,1015.45 1993.2,1011.44 1998.15,1011.44 C2003.1,1011.44 2007.12,1015.45 2007.12,1020.4 "/>
<path vector-effect="non-scaling-stroke" fill-rule="evenodd" d="M692.136,479.543 C692.136,484.493 688.123,488.506 683.173,488.506 C678.222,488.506 674.209,484.493 674.209,479.543 C674.209,474.592 678.222,470.579 683.173,470.579 C688.123,470.579 692.136,474.592 692.136,479.543 "/>
<path vector-effect="non-scaling-stroke" fill-rule="evenodd" d="M1106.81,817.441 C1106.81,822.392 1102.79,826.405 1097.84,826.405 C1092.89,826.405 1088.88,822.392 1088.88,817.441 C1088.88,812.491 1092.89,808.478 1097.84,808.478 C1102.79,808.478 1106.81,812.491 1106.81,817.441 "/>
<path vector-effect="non-scaling-stroke" fill-rule="evenodd" d="M1120.48,846.203 C1120.48,851.154 1116.47,855.167 1111.52,855.167 C1106.57,855.167 1102.56,851.154 1102.56,846.203 C1102.56,841.253 1106.57,837.239 1111.52,837.239 C1116.47,837.239 1120.48,841.253 1120.48,846.203 "/>
<path vector-effect="non-scaling-stroke" fill-rule="evenodd" d="M1120.15,885.805 C1120.15,890.755 1116.14,894.768 1111.19,894.768 C1106.24,894.768 1102.22,890.755 1102.22,885.805 C1102.22,880.854 1106.24,876.841 1111.19,876.841 C1116.14,876.841 1120.15,880.854 1120.15,885.805 "/>
<path vector-effect="non-scaling-stroke" fill-rule="evenodd" d="M1170.66,920.413 C1170.66,925.363 1166.65,929.377 1161.7,929.377 C1156.75,929.377 1152.73,925.363 1152.73,920.413 C1152.73,915.462 1156.75,911.449 1161.7,911.449 C1166.65,911.449 1170.66,915.462 1170.66,920.413 "/>
<path vector-effect="non-scaling-stroke" fill-rule="evenodd" d="M1212.57,949.016 C1212.57,953.967 1208.56,957.98 1203.61,957.98 C1198.66,957.98 1194.65,953.967 1194.65,949.016 C1194.65,944.066 1198.66,940.053 1203.61,940.053 C1208.56,940.053 1212.57,944.066 1212.57,949.016 "/>
<path vector-effect="non-scaling-stroke" fill-rule="evenodd" d="M1100.48,1063.85 C1100.48,1068.8 1096.46,1072.82 1091.51,1072.82 C1086.56,1072.82 1082.55,1068.8 1082.55,1063.85 C1082.55,1058.9 1086.56,1054.89 1091.51,1054.89 C1096.46,1054.89 1100.48,1058.9 1100.48,1063.85 "/>
<path vector-effect="non-scaling-stroke" fill-rule="evenodd" d="M976.247,1110.78 C976.247,1115.73 972.234,1119.74 967.283,1119.74 C962.333,1119.74 958.32,1115.73 958.32,1110.78 C958.32,1105.83 962.333,1101.82 967.283,1101.82 C972.234,1101.82 976.247,1105.83 976.247,1110.78 "/>
<path vector-effect="non-scaling-stroke" fill-rule="evenodd" d="M1099.22,774.472 C1099.22,779.221 1095.37,783.071 1090.62,783.071 C1085.87,783.071 1082.02,779.221 1082.02,774.472 C1082.02,769.724 1085.87,765.874 1090.62,765.874 C1095.37,765.874 1099.22,769.724 1099.22,774.472 "/>
<path vector-effect="non-scaling-stroke" fill-rule="evenodd" d="M669.236,530.922 C669.236,535.671 665.386,539.52 660.638,539.52 C655.889,539.52 652.039,535.671 652.039,530.922 C652.039,526.173 655.889,522.323 660.638,522.323 C665.386,522.323 669.236,526.173 669.236,530.922 "/>
<path vector-effect="non-scaling-stroke" fill-rule="evenodd" d="M1045.87,795.614 C1045.87,800.363 1042.02,804.213 1037.27,804.213 C1032.52,804.213 1028.67,800.363 1028.67,795.614 C1028.67,790.865 1032.52,787.016 1037.27,787.016 C1042.02,787.016 1045.87,790.865 1045.87,795.614 "/>
<path vector-effect="non-scaling-stroke" fill-rule="evenodd" d="M1071.37,852.48 C1071.37,857.229 1067.52,861.079 1062.77,861.079 C1058.03,861.079 1054.18,857.229 1054.18,852.48 C1054.18,847.732 1058.03,843.882 1062.77,843.882 C1067.52,843.882 1071.37,847.732 1071.37,852.48 "/>
<path vector-effect="non-scaling-stroke" fill-rule="evenodd" d="M1065.21,909.324 C1065.21,914.072 1061.36,917.922 1056.61,917.922 C1051.86,917.922 1048.01,914.072 1048.01,909.324 C1048.01,904.575 1051.86,900.725 1056.61,900.725 C1061.36,900.725 1065.21,904.575 1065.21,909.324 "/>
<path vector-effect="non-scaling-stroke" fill-rule="evenodd" d="M920.222,954.692 C920.222,959.44 916.372,963.29 911.623,963.29 C906.875,963.29 903.025,959.44 903.025,954.692 C903.025,949.943 906.875,946.093 911.623,946.093 C916.372,946.093 920.222,949.943 920.222,954.692 "/>
<path vector-effect="non-scaling-stroke" fill-rule="evenodd" d="M1818.12,1712.06 C1818.12,1716.81 1814.27,1720.66 1809.52,1720.66 C1804.77,1720.66 1800.92,1716.81 1800.92,1712.06 C1800.92,1707.31 1804.77,1703.46 1809.52,1703.46 C1814.27,1703.46 1818.12,1707.31 1818.12,1712.06 "/>
<path vector-effect="non-scaling-stroke" fill-rule="evenodd" d="M1957.85,1008.26 C1957.85,1012.78 1954.18,1016.45 1949.66,1016.45 C1945.13,1016.45 1941.46,1012.78 1941.46,1008.26 C1941.46,1003.73 1945.13,1000.06 1949.66,1000.06 C1954.18,1000.06 1957.85,1003.73 1957.85,1008.26 "/>
<path vector-effect="non-scaling-stroke" fill-rule="evenodd" d="M1904.02,1140.27 C1904.02,1144.79 1900.36,1148.46 1895.83,1148.46 C1891.31,1148.46 1887.64,1144.79 1887.64,1140.27 C1887.64,1135.74 1891.31,1132.08 1895.83,1132.08 C1900.36,1132.08 1904.02,1135.74 1904.02,1140.27 "/>
<path vector-effect="non-scaling-stroke" fill-rule="evenodd" d="M1930.42,1156.87 C1930.42,1161.4 1926.75,1165.07 1922.23,1165.07 C1917.7,1165.07 1914.04,1161.4 1914.04,1156.87 C1914.04,1152.35 1917.7,1148.68 1922.23,1148.68 C1926.75,1148.68 1930.42,1152.35 1930.42,1156.87 "/>
<path vector-effect="non-scaling-stroke" fill-rule="evenodd" d="M1194.92,917.19 C1194.92,921.714 1191.26,925.381 1186.73,925.381 C1182.21,925.381 1178.54,921.714 1178.54,917.19 C1178.54,912.666 1182.21,908.999 1186.73,908.999 C1191.26,908.999 1194.92,912.666 1194.92,917.19 "/>
<path vector-effect="non-scaling-stroke" fill-rule="evenodd" d="M1052.19,839.512 C1052.19,844.035 1048.52,847.703 1044,847.703 C1039.47,847.703 1035.8,844.035 1035.8,839.512 C1035.8,834.988 1039.47,831.321 1044,831.321 C1048.52,831.321 1052.19,834.988 1052.19,839.512 "/>
<path vector-effect="non-scaling-stroke" fill-rule="evenodd" d="M1050.63,878.789 C1050.63,883.313 1046.96,886.98 1042.44,886.98 C1037.91,886.98 1034.25,883.313 1034.25,878.789 C1034.25,874.265 1037.91,870.598 1042.44,870.598 C1046.96,870.598 1050.63,874.265 1050.63,878.789 "/>
<path vector-effect="non-scaling-stroke" fill-rule="evenodd" d="M1084.68,923.259 C1084.68,927.783 1081.01,931.451 1076.49,931.451 C1071.97,931.451 1068.3,927.783 1068.3,923.259 C1068.3,918.736 1071.97,915.068 1076.49,915.068 C1081.01,915.068 1084.68,918.736 1084.68,923.259 "/>
<path vector-effect="non-scaling-stroke" fill-rule="evenodd" d="M1118.83,1033.06 C1118.83,1037.59 1115.16,1041.25 1110.64,1041.25 C1106.11,1041.25 1102.44,1037.59 1102.44,1033.06 C1102.44,1028.54 1106.11,1024.87 1110.64,1024.87 C1115.16,1024.87 1118.83,1028.54 1118.83,1033.06 "/>
<path vector-effect="non-scaling-stroke" fill-rule="evenodd" d="M864.024,913.019 C864.024,917.543 860.357,921.21 855.833,921.21 C851.309,921.21 847.642,917.543 847.642,913.019 C847.642,908.495 851.309,904.828 855.833,904.828 C860.357,904.828 864.024,908.495 864.024,913.019 "/>
<path vector-effect="non-scaling-stroke" fill-rule="evenodd" d="M1032.32,1083.06 C1032.32,1087.59 1028.65,1091.25 1024.13,1091.25 C1019.6,1091.25 1015.94,1087.59 1015.94,1083.06 C1015.94,1078.54 1019.6,1074.87 1024.13,1074.87 C1028.65,1074.87 1032.32,1078.54 1032.32,1083.06 "/>
<path vector-effect="non-scaling-stroke" fill-rule="evenodd" d="M1923.04,1231.77 C1923.04,1236.03 1919.58,1239.48 1915.32,1239.48 C1911.05,1239.48 1907.6,1236.03 1907.6,1231.77 C1907.6,1227.5 1911.05,1224.05 1915.32,1224.05 C1919.58,1224.05 1923.04,1227.5 1923.04,1231.77 "/>
<path vector-effect="non-scaling-stroke" fill-rule="evenodd" d="M676.582,485.829 C676.582,490.092 673.126,493.549 668.863,493.549 C664.599,493.549 661.143,490.092 661.143,485.829 C661.143,481.566 664.599,478.11 668.863,478.11 C673.126,478.11 676.582,481.566 676.582,485.829 "/>
<path vector-effect="non-scaling-stroke" fill-rule="evenodd" d="M702.622,504.336 C702.622,508.599 699.166,512.056 694.903,512.056 C690.639,512.056 687.183,508.599 687.183,504.336 C687.183,500.073 690.639,496.617 694.903,496.617 C699.166,496.617 702.622,500.073 702.622,504.336 "/>
<path vector-effect="non-scaling-stroke" fill-rule="evenodd" d="M1182.6,830.612 C1182.6,834.875 1179.15,838.331 1174.88,838.331 C1170.62,838.331 1167.16,834.875 1167.16,830.612 C1167.16,826.348 1170.62,822.892 1174.88,822.892 C1179.15,822.892 1182.6,826.348 1182.6,830.612 "/>
<path vector-effect="non-scaling-stroke" fill-rule="evenodd" d="M1904.81,1324.13 C1904.81,1328.39 1901.36,1331.85 1897.09,1331.85 C1892.83,1331.85 1889.38,1328.39 1889.38,1324.13 C1889.38,1319.87 1892.83,1316.41 1897.09,1316.41 C1901.36,1316.41 1904.81,1319.87 1904.81,1324.13 "/>
<path vector-effect="non-scaling-stroke" fill-rule="evenodd" d="M1219.47,914.004 C1219.47,918.267 1216.02,921.723 1211.75,921.723 C1207.49,921.723 1204.03,918.267 1204.03,914.004 C1204.03,909.74 1207.49,906.284 1211.75,906.284 C1216.02,906.284 1219.47,909.74 1219.47,914.004 "/>
<path vector-effect="non-scaling-stroke" fill-rule="evenodd" d="M1094.86,849.321 C1094.86,853.584 1091.41,857.041 1087.14,857.041 C1082.88,857.041 1079.42,853.584 1079.42,849.321 C1079.42,845.058 1082.88,841.602 1087.14,841.602 C1091.41,841.602 1094.86,845.058 1094.86,849.321 "/>
<path vector-effect="non-scaling-stroke" fill-rule="evenodd" d="M1173.87,903.209 C1173.87,907.473 1170.41,910.929 1166.15,910.929 C1161.89,910.929 1158.43,907.473 1158.43,903.209 C1158.43,898.946 1161.89,895.49 1166.15,895.49 C1170.41,895.49 1173.87,898.946 1173.87,903.209 "/>
<path vector-effect="non-scaling-stroke" fill-rule="evenodd" d="M1116.11,987.989 C1116.11,992.252 1112.65,995.708 1108.39,995.708 C1104.13,995.708 1100.67,992.252 1100.67,987.989 C1100.67,983.725 1104.13,980.269 1108.39,980.269 C1112.65,980.269 1116.11,983.725 1116.11,987.989 "/>
<path vector-effect="non-scaling-stroke" fill-rule="evenodd" d="M970.828,905.746 C970.828,910.009 967.371,913.465 963.108,913.465 C958.845,913.465 955.389,910.009 955.389,905.746 C955.389,901.483 958.845,898.026 963.108,898.026 C967.371,898.026 970.828,901.483 970.828,905.746 "/>
<path vector-effect="non-scaling-stroke" fill-rule="evenodd" d="M1133.32,1021.77 C1133.32,1026.04 1129.87,1029.49 1125.6,1029.49 C1121.34,1029.49 1117.88,1026.04 1117.88,1021.77 C1117.88,1017.51 1121.34,1014.05 1125.6,1014.05 C1129.87,1014.05 1133.32,1017.51 1133.32,1021.77 "/>
<path vector-effect="non-scaling-stroke" fill-rule="evenodd" d="M909.452,882.336 C909.452,886.6 905.995,890.056 901.732,890.056 C897.469,890.056 894.013,886.6 894.013,882.336 C894.013,878.073 897.469,874.617 901.732,874.617 C905.995,874.617 909.452,878.073 909.452,882.336 "/>
<path vector-effect="non-scaling-stroke" fill-rule="evenodd" d="M1004.04,951.143 C1004.04,955.406 1000.59,958.862 996.322,958.862 C992.059,958.862 988.602,955.406 988.602,951.143 C988.602,946.879 992.059,943.423 996.322,943.423 C1000.59,943.423 1004.04,946.879 1004.04,951.143 "/>
<path vector-effect="non-scaling-stroke" fill-rule="evenodd" d="M1096.77,1017.69 C1096.77,1021.95 1093.32,1025.41 1089.05,1025.41 C1084.79,1025.41 1081.33,1021.95 1081.33,1017.69 C1081.33,1013.42 1084.79,1009.97 1089.05,1009.97 C1093.32,1009.97 1096.77,1013.42 1096.77,1017.69 "/>
<path vector-effect="non-scaling-stroke" fill-rule="evenodd" d="M1008.86,976.386 C1008.86,980.649 1005.41,984.105 1001.14,984.105 C996.881,984.105 993.425,980.649 993.425,976.386 C993.425,972.123 996.881,968.666 1001.14,968.666 C1005.41,968.666 1008.86,972.123 1008.86,976.386 "/>
<path vector-effect="non-scaling-stroke" fill-rule="evenodd" d="M875.677,944.203 C875.677,948.467 872.221,951.923 867.957,951.923 C863.694,951.923 860.238,948.467 860.238,944.203 C860.238,939.94 863.694,936.484 867.957,936.484 C872.221,936.484 875.677,939.94 875.677,944.203 "/>
<path vector-effect="non-scaling-stroke" fill-rule="evenodd" d="M1868.99,1773.19 C1868.99,1777.45 1865.53,1780.91 1861.27,1780.91 C1857,1780.91 1853.55,1777.45 1853.55,1773.19 C1853.55,1768.93 1857,1765.47 1861.27,1765.47 C1865.53,1765.47 1868.99,1768.93 1868.99,1773.19 "/>
<path vector-effect="non-scaling-stroke" fill-rule="evenodd" d="M1628.53,842.738 C1628.53,846.674 1625.34,849.865 1621.4,849.865 C1617.46,849.865 1614.27,846.674 1614.27,842.738 C1614.27,838.801 1617.46,835.61 1621.4,835.61 C1625.34,835.61 1628.53,838.801 1628.53,842.738 "/>
<path vector-effect="non-scaling-stroke" fill-rule="evenodd" d="M1658.47,895.663 C1658.47,899.599 1655.28,902.79 1651.34,902.79 C1647.41,902.79 1644.22,899.599 1644.22,895.663 C1644.22,891.726 1647.41,888.535 1651.34,888.535 C1655.28,888.535 1658.47,891.726 1658.47,895.663 "/>
<path vector-effect="non-scaling-stroke" fill-rule="evenodd" d="M1860.33,1274.51 C1860.33,1278.45 1857.14,1281.64 1853.2,1281.64 C1849.26,1281.64 1846.07,1278.45 1846.07,1274.51 C1846.07,1270.58 1849.26,1267.39 1853.2,1267.39 C1857.14,1267.39 1860.33,1270.58 1860.33,1274.51 "/>
<path vector-effect="non-scaling-stroke" fill-rule="evenodd" d="M1101.2,795.701 C1101.2,799.637 1098,802.828 1094.07,802.828 C1090.13,802.828 1086.94,799.637 1086.94,795.701 C1086.94,791.764 1090.13,788.573 1094.07,788.573 C1098,788.573 1101.2,791.764 1101.2,795.701 "/>
<path vector-effect="non-scaling-stroke" fill-rule="evenodd" d="M616.63,475.829 C616.63,479.765 613.439,482.956 609.502,482.956 C605.566,482.956 602.375,479.765 602.375,475.829 C602.375,471.892 605.566,468.701 609.502,468.701 C613.439,468.701 616.63,471.892 616.63,475.829 "/>
<path vector-effect="non-scaling-stroke" fill-rule="evenodd" d="M1095.66,811.146 C1095.66,815.083 1092.47,818.274 1088.53,818.274 C1084.6,818.274 1081.41,815.083 1081.41,811.146 C1081.41,807.21 1084.6,804.019 1088.53,804.019 C1092.47,804.019 1095.66,807.21 1095.66,811.146 "/>
<path vector-effect="non-scaling-stroke" fill-rule="evenodd" d="M1123.83,830.183 C1123.83,834.119 1120.64,837.311 1116.71,837.311 C1112.77,837.311 1109.58,834.119 1109.58,830.183 C1109.58,826.247 1112.77,823.056 1116.71,823.056 C1120.64,823.056 1123.83,826.247 1123.83,830.183 "/>
<path vector-effect="non-scaling-stroke" fill-rule="evenodd" d="M1187.95,893.134 C1187.95,897.071 1184.76,900.262 1180.82,900.262 C1176.88,900.262 1173.69,897.071 1173.69,893.134 C1173.69,889.198 1176.88,886.007 1180.82,886.007 C1184.76,886.007 1187.95,889.198 1187.95,893.134 "/>
<path vector-effect="non-scaling-stroke" fill-rule="evenodd" d="M1123.28,869.147 C1123.28,873.083 1120.08,876.274 1116.15,876.274 C1112.21,876.274 1109.02,873.083 1109.02,869.147 C1109.02,865.21 1112.21,862.019 1116.15,862.019 C1120.08,862.019 1123.28,865.21 1123.28,869.147 "/>
<path vector-effect="non-scaling-stroke" fill-rule="evenodd" d="M1036.18,849.167 C1036.18,853.104 1032.99,856.295 1029.06,856.295 C1025.12,856.295 1021.93,853.104 1021.93,849.167 C1021.93,845.231 1025.12,842.04 1029.06,842.04 C1032.99,842.04 1036.18,845.231 1036.18,849.167 "/>
<path vector-effect="non-scaling-stroke" fill-rule="evenodd" d="M1030.57,865.493 C1030.57,869.429 1027.38,872.62 1023.44,872.62 C1019.51,872.62 1016.32,869.429 1016.32,865.493 C1016.32,861.556 1019.51,858.365 1023.44,858.365 C1027.38,858.365 1030.57,861.556 1030.57,865.493 "/>
<path vector-effect="non-scaling-stroke" fill-rule="evenodd" d="M1093.69,930.306 C1093.69,934.242 1090.49,937.433 1086.56,937.433 C1082.62,937.433 1079.43,934.242 1079.43,930.306 C1079.43,926.369 1082.62,923.178 1086.56,923.178 C1090.49,923.178 1093.69,926.369 1093.69,930.306 "/>
<path vector-effect="non-scaling-stroke" fill-rule="evenodd" d="M1078.73,940.784 C1078.73,944.72 1075.54,947.911 1071.6,947.911 C1067.66,947.911 1064.47,944.72 1064.47,940.784 C1064.47,936.848 1067.66,933.657 1071.6,933.657 C1075.54,933.657 1078.73,936.848 1078.73,940.784 "/>
<path vector-effect="non-scaling-stroke" fill-rule="evenodd" d="M974.14,929.931 C974.14,933.867 970.949,937.058 967.012,937.058 C963.076,937.058 959.885,933.867 959.885,929.931 C959.885,925.994 963.076,922.803 967.012,922.803 C970.949,922.803 974.14,925.994 974.14,929.931 "/>
<path vector-effect="non-scaling-stroke" fill-rule="evenodd" d="M869.319,895.999 C869.319,899.935 866.128,903.126 862.191,903.126 C858.255,903.126 855.064,899.935 855.064,895.999 C855.064,892.062 858.255,888.871 862.191,888.871 C866.128,888.871 869.319,892.062 869.319,895.999 "/>
<path vector-effect="non-scaling-stroke" fill-rule="evenodd" d="M1877.68,1728.12 C1877.68,1732.05 1874.49,1735.24 1870.55,1735.24 C1866.62,1735.24 1863.43,1732.05 1863.43,1728.12 C1863.43,1724.18 1866.62,1720.99 1870.55,1720.99 C1874.49,1720.99 1877.68,1724.18 1877.68,1728.12 "/>
<path vector-effect="non-scaling-stroke" fill-rule="evenodd" d="M1790.52,1745.78 C1790.52,1749.72 1787.33,1752.91 1783.39,1752.91 C1779.46,1752.91 1776.27,1749.72 1776.27,1745.78 C1776.27,1741.84 1779.46,1738.65 1783.39,1738.65 C1787.33,1738.65 1790.52,1741.84 1790.52,1745.78 "/>
<path vector-effect="non-scaling-stroke" fill-rule="evenodd" d="M1162.63,624.662 C1162.63,627.923 1159.99,630.567 1156.73,630.567 C1153.47,630.567 1150.82,627.923 1150.82,624.662 C1150.82,621.4 1153.47,618.756 1156.73,618.756 C1159.99,618.756 1162.63,621.4 1162.63,624.662 "/>
<path vector-effect="non-scaling-stroke" fill-rule="evenodd" d="M1835.59,1060.76 C1835.59,1064.02 1832.95,1066.67 1829.69,1066.67 C1826.43,1066.67 1823.78,1064.02 1823.78,1060.76 C1823.78,1057.5 1826.43,1054.86 1829.69,1054.86 C1832.95,1054.86 1835.59,1057.5 1835.59,1060.76 "/>
<path vector-effect="non-scaling-stroke" fill-rule="evenodd" d="M1954.75,1173.62 C1954.75,1176.88 1952.1,1179.52 1948.84,1179.52 C1945.58,1179.52 1942.93,1176.88 1942.93,1173.62 C1942.93,1170.35 1945.58,1167.71 1948.84,1167.71 C1952.1,1167.71 1954.75,1170.35 1954.75,1173.62 "/>
<path vector-effect="non-scaling-stroke" fill-rule="evenodd" d="M1061.28,678.498 C1061.28,681.76 1058.63,684.404 1055.37,684.404 C1052.11,684.404 1049.46,681.76 1049.46,678.498 C1049.46,675.237 1052.11,672.593 1055.37,672.593 C1058.63,672.593 1061.28,675.237 1061.28,678.498 "/>
<path vector-effect="non-scaling-stroke" fill-rule="evenodd" d="M1297.95,832.042 C1297.95,835.304 1295.31,837.948 1292.05,837.948 C1288.78,837.948 1286.14,835.304 1286.14,832.042 C1286.14,828.781 1288.78,826.137 1292.05,826.137 C1295.31,826.137 1297.95,828.781 1297.95,832.042 "/>
<path vector-effect="non-scaling-stroke" fill-rule="evenodd" d="M1370.59,878.922 C1370.59,882.184 1367.95,884.828 1364.68,884.828 C1361.42,884.828 1358.78,882.184 1358.78,878.922 C1358.78,875.661 1361.42,873.017 1364.68,873.017 C1367.95,873.017 1370.59,875.661 1370.59,878.922 "/>
<path vector-effect="non-scaling-stroke" fill-rule="evenodd" d="M1853.55,1188.6 C1853.55,1191.86 1850.91,1194.51 1847.65,1194.51 C1844.39,1194.51 1841.74,1191.86 1841.74,1188.6 C1841.74,1185.34 1844.39,1182.7 1847.65,1182.7 C1850.91,1182.7 1853.55,1185.34 1853.55,1188.6 "/>
<path vector-effect="non-scaling-stroke" fill-rule="evenodd" d="M1866.97,1197.17 C1866.97,1200.43 1864.33,1203.07 1861.07,1203.07 C1857.81,1203.07 1855.16,1200.43 1855.16,1197.17 C1855.16,1193.9 1857.81,1191.26 1861.07,1191.26 C1864.33,1191.26 1866.97,1193.9 1866.97,1197.17 "/>
<path vector-effect="non-scaling-stroke" fill-rule="evenodd" d="M1293.87,848.054 C1293.87,851.315 1291.22,853.959 1287.96,853.959 C1284.7,853.959 1282.05,851.315 1282.05,848.054 C1282.05,844.792 1284.7,842.148 1287.96,842.148 C1291.22,842.148 1293.87,844.792 1293.87,848.054 "/>
<path vector-effect="non-scaling-stroke" fill-rule="evenodd" d="M684.95,476.635 C684.95,479.897 682.306,482.541 679.045,482.541 C675.783,482.541 673.139,479.897 673.139,476.635 C673.139,473.374 675.783,470.73 679.045,470.73 C682.306,470.73 684.95,473.374 684.95,476.635 "/>
<path vector-effect="non-scaling-stroke" fill-rule="evenodd" d="M693.272,482.491 C693.272,485.753 690.628,488.397 687.366,488.397 C684.105,488.397 681.461,485.753 681.461,482.491 C681.461,479.23 684.105,476.586 687.366,476.586 C690.628,476.586 693.272,479.23 693.272,482.491 "/>
<path vector-effect="non-scaling-stroke" fill-rule="evenodd" d="M1285.9,880.876 C1285.9,884.137 1283.26,886.781 1280,886.781 C1276.74,886.781 1274.09,884.137 1274.09,880.876 C1274.09,877.614 1276.74,874.97 1280,874.97 C1283.26,874.97 1285.9,877.614 1285.9,880.876 "/>
<path vector-effect="non-scaling-stroke" fill-rule="evenodd" d="M1306.9,894.665 C1306.9,897.926 1304.25,900.57 1300.99,900.57 C1297.73,900.57 1295.09,897.926 1295.09,894.665 C1295.09,891.403 1297.73,888.759 1300.99,888.759 C1304.25,888.759 1306.9,891.403 1306.9,894.665 "/>
<path vector-effect="non-scaling-stroke" fill-rule="evenodd" d="M1871.35,1261.46 C1871.35,1264.72 1868.7,1267.37 1865.44,1267.37 C1862.18,1267.37 1859.53,1264.72 1859.53,1261.46 C1859.53,1258.2 1862.18,1255.56 1865.44,1255.56 C1868.7,1255.56 1871.35,1258.2 1871.35,1261.46 "/>
<path vector-effect="non-scaling-stroke" fill-rule="evenodd" d="M662.641,477.144 C662.641,480.405 659.997,483.049 656.735,483.049 C653.474,483.049 650.83,480.405 650.83,477.144 C650.83,473.882 653.474,471.238 656.735,471.238 C659.997,471.238 662.641,473.882 662.641,477.144 "/>
<path vector-effect="non-scaling-stroke" fill-rule="evenodd" d="M1190.55,837.098 C1190.55,840.359 1187.91,843.003 1184.65,843.003 C1181.39,843.003 1178.74,840.359 1178.74,837.098 C1178.74,833.836 1181.39,831.192 1184.65,831.192 C1187.91,831.192 1190.55,833.836 1190.55,837.098 "/>
<path vector-effect="non-scaling-stroke" fill-rule="evenodd" d="M1873.01,1283.5 C1873.01,1286.76 1870.37,1289.41 1867.1,1289.41 C1863.84,1289.41 1861.2,1286.76 1861.2,1283.5 C1861.2,1280.24 1863.84,1277.59 1867.1,1277.59 C1870.37,1277.59 1873.01,1280.24 1873.01,1283.5 "/>
<path vector-effect="non-scaling-stroke" fill-rule="evenodd" d="M1915.06,1310.66 C1915.06,1313.92 1912.42,1316.57 1909.16,1316.57 C1905.9,1316.57 1903.25,1313.92 1903.25,1310.66 C1903.25,1307.4 1905.9,1304.76 1909.16,1304.76 C1912.42,1304.76 1915.06,1307.4 1915.06,1310.66 "/>
<path vector-effect="non-scaling-stroke" fill-rule="evenodd" d="M663.038,511.045 C663.038,514.307 660.394,516.951 657.132,516.951 C653.871,516.951 651.227,514.307 651.227,511.045 C651.227,507.784 653.871,505.14 657.132,505.14 C660.394,505.14 663.038,507.784 663.038,511.045 "/>
<path vector-effect="non-scaling-stroke" fill-rule="evenodd" d="M1201.34,883.164 C1201.34,886.426 1198.7,889.07 1195.44,889.07 C1192.17,889.07 1189.53,886.426 1189.53,883.164 C1189.53,879.903 1192.17,877.259 1195.44,877.259 C1198.7,877.259 1201.34,879.903 1201.34,883.164 "/>
<path vector-effect="non-scaling-stroke" fill-rule="evenodd" d="M1061.24,807.956 C1061.24,811.217 1058.6,813.861 1055.34,813.861 C1052.07,813.861 1049.43,811.217 1049.43,807.956 C1049.43,804.694 1052.07,802.05 1055.34,802.05 C1058.6,802.05 1061.24,804.694 1061.24,807.956 "/>
<path vector-effect="non-scaling-stroke" fill-rule="evenodd" d="M1088.96,826.85 C1088.96,830.112 1086.32,832.756 1083.06,832.756 C1079.8,832.756 1077.15,830.112 1077.15,826.85 C1077.15,823.589 1079.8,820.945 1083.06,820.945 C1086.32,820.945 1088.96,823.589 1088.96,826.85 "/>
<path vector-effect="non-scaling-stroke" fill-rule="evenodd" d="M1136.81,859.359 C1136.81,862.621 1134.17,865.265 1130.91,865.265 C1127.65,865.265 1125,862.621 1125,859.359 C1125,856.098 1127.65,853.454 1130.91,853.454 C1134.17,853.454 1136.81,856.098 1136.81,859.359 "/>
<path vector-effect="non-scaling-stroke" fill-rule="evenodd" d="M1131.89,875.857 C1131.89,879.119 1129.24,881.763 1125.98,881.763 C1122.72,881.763 1120.08,879.119 1120.08,875.857 C1120.08,872.596 1122.72,869.952 1125.98,869.952 C1129.24,869.952 1131.89,872.596 1131.89,875.857 "/>
<path vector-effect="non-scaling-stroke" fill-rule="evenodd" d="M1087.79,865.656 C1087.79,868.917 1085.15,871.561 1081.89,871.561 C1078.63,871.561 1075.98,868.917 1075.98,865.656 C1075.98,862.394 1078.63,859.75 1081.89,859.75 C1085.15,859.75 1087.79,862.394 1087.79,865.656 "/>
<path vector-effect="non-scaling-stroke" fill-rule="evenodd" d="M1249.23,996.798 C1249.23,1000.06 1246.58,1002.7 1243.32,1002.7 C1240.06,1002.7 1237.42,1000.06 1237.42,996.798 C1237.42,993.537 1240.06,990.893 1243.32,990.893 C1246.58,990.893 1249.23,993.537 1249.23,996.798 "/>
<path vector-effect="non-scaling-stroke" fill-rule="evenodd" d="M1271.56,1012.03 C1271.56,1015.29 1268.92,1017.93 1265.66,1017.93 C1262.4,1017.93 1259.75,1015.29 1259.75,1012.03 C1259.75,1008.77 1262.4,1006.12 1265.66,1006.12 C1268.92,1006.12 1271.56,1008.77 1271.56,1012.03 "/>
<path vector-effect="non-scaling-stroke" fill-rule="evenodd" d="M1023.8,882.083 C1023.8,885.345 1021.15,887.989 1017.89,887.989 C1014.63,887.989 1011.99,885.345 1011.99,882.083 C1011.99,878.822 1014.63,876.178 1017.89,876.178 C1021.15,876.178 1023.8,878.822 1023.8,882.083 "/>
<path vector-effect="non-scaling-stroke" fill-rule="evenodd" d="M1102.62,937.405 C1102.62,940.666 1099.97,943.31 1096.71,943.31 C1093.45,943.31 1090.81,940.666 1090.81,937.405 C1090.81,934.143 1093.45,931.499 1096.71,931.499 C1099.97,931.499 1102.62,934.143 1102.62,937.405 "/>
<path vector-effect="non-scaling-stroke" fill-rule="evenodd" d="M1112.86,944.556 C1112.86,947.817 1110.21,950.461 1106.95,950.461 C1103.69,950.461 1101.05,947.817 1101.05,944.556 C1101.05,941.294 1103.69,938.65 1106.95,938.65 C1110.21,938.65 1112.86,941.294 1112.86,944.556 "/>
<path vector-effect="non-scaling-stroke" fill-rule="evenodd" d="M1133.59,959.014 C1133.59,962.275 1130.95,964.919 1127.69,964.919 C1124.43,964.919 1121.78,962.275 1121.78,959.014 C1121.78,955.752 1124.43,953.108 1127.69,953.108 C1130.95,953.108 1133.59,955.752 1133.59,959.014 "/>
<path vector-effect="non-scaling-stroke" fill-rule="evenodd" d="M1139.82,984.522 C1139.82,987.784 1137.18,990.428 1133.92,990.428 C1130.66,990.428 1128.01,987.784 1128.01,984.522 C1128.01,981.261 1130.66,978.617 1133.92,978.617 C1137.18,978.617 1139.82,981.261 1139.82,984.522 "/>
<path vector-effect="non-scaling-stroke" fill-rule="evenodd" d="M1227.74,1045.75 C1227.74,1049.01 1225.09,1051.65 1221.83,1051.65 C1218.57,1051.65 1215.93,1049.01 1215.93,1045.75 C1215.93,1042.49 1218.57,1039.84 1221.83,1039.84 C1225.09,1039.84 1227.74,1042.49 1227.74,1045.75 "/>
<path vector-effect="non-scaling-stroke" fill-rule="evenodd" d="M1179.33,1033.67 C1179.33,1036.93 1176.69,1039.57 1173.43,1039.57 C1170.16,1039.57 1167.52,1036.93 1167.52,1033.67 C1167.52,1030.41 1170.16,1027.76 1173.43,1027.76 C1176.69,1027.76 1179.33,1030.41 1179.33,1033.67 "/>
<path vector-effect="non-scaling-stroke" fill-rule="evenodd" d="M1027.3,947.653 C1027.3,950.914 1024.66,953.558 1021.4,953.558 C1018.14,953.558 1015.49,950.914 1015.49,947.653 C1015.49,944.391 1018.14,941.747 1021.4,941.747 C1024.66,941.747 1027.3,944.391 1027.3,947.653 "/>
<path vector-effect="non-scaling-stroke" fill-rule="evenodd" d="M1088.77,991.489 C1088.77,994.75 1086.13,997.394 1082.87,997.394 C1079.6,997.394 1076.96,994.75 1076.96,991.489 C1076.96,988.227 1079.6,985.583 1082.87,985.583 C1086.13,985.583 1088.77,988.227 1088.77,991.489 "/>
<path vector-effect="non-scaling-stroke" fill-rule="evenodd" d="M1109.96,1006.53 C1109.96,1009.79 1107.32,1012.43 1104.06,1012.43 C1100.8,1012.43 1098.15,1009.79 1098.15,1006.53 C1098.15,1003.26 1100.8,1000.62 1104.06,1000.62 C1107.32,1000.62 1109.96,1003.26 1109.96,1006.53 "/>
<path vector-effect="non-scaling-stroke" fill-rule="evenodd" d="M1142.41,1029.48 C1142.41,1032.74 1139.77,1035.38 1136.51,1035.38 C1133.24,1035.38 1130.6,1032.74 1130.6,1029.48 C1130.6,1026.22 1133.24,1023.57 1136.51,1023.57 C1139.77,1023.57 1142.41,1026.22 1142.41,1029.48 "/>
<path vector-effect="non-scaling-stroke" fill-rule="evenodd" d="M1022.21,965.554 C1022.21,968.816 1019.57,971.46 1016.31,971.46 C1013.04,971.46 1010.4,968.816 1010.4,965.554 C1010.4,962.293 1013.04,959.649 1016.31,959.649 C1019.57,959.649 1022.21,962.293 1022.21,965.554 "/>
<path vector-effect="non-scaling-stroke" fill-rule="evenodd" d="M1032.34,972.841 C1032.34,976.102 1029.69,978.746 1026.43,978.746 C1023.17,978.746 1020.53,976.102 1020.53,972.841 C1020.53,969.579 1023.17,966.935 1026.43,966.935 C1029.69,966.935 1032.34,969.579 1032.34,972.841 "/>
<path vector-effect="non-scaling-stroke" fill-rule="evenodd" d="M1172.04,1072.42 C1172.04,1075.68 1169.4,1078.33 1166.14,1078.33 C1162.88,1078.33 1160.23,1075.68 1160.23,1072.42 C1160.23,1069.16 1162.88,1066.52 1166.14,1066.52 C1169.4,1066.52 1172.04,1069.16 1172.04,1072.42 "/>
<path vector-effect="non-scaling-stroke" fill-rule="evenodd" d="M883.4,885.828 C883.4,889.089 880.756,891.733 877.495,891.733 C874.233,891.733 871.589,889.089 871.589,885.828 C871.589,882.566 874.233,879.922 877.495,879.922 C880.756,879.922 883.4,882.566 883.4,885.828 "/>
<path vector-effect="non-scaling-stroke" fill-rule="evenodd" d="M1022.57,1009.71 C1022.57,1012.97 1019.92,1015.62 1016.66,1015.62 C1013.4,1015.62 1010.76,1012.97 1010.76,1009.71 C1010.76,1006.45 1013.4,1003.81 1016.66,1003.81 C1019.92,1003.81 1022.57,1006.45 1022.57,1009.71 "/>
<path vector-effect="non-scaling-stroke" fill-rule="evenodd" d="M961.299,1009.5 C961.299,1012.76 958.655,1015.41 955.394,1015.41 C952.132,1015.41 949.488,1012.76 949.488,1009.5 C949.488,1006.24 952.132,1003.59 955.394,1003.59 C958.655,1003.59 961.299,1006.24 961.299,1009.5 "/>
<path vector-effect="non-scaling-stroke" fill-rule="evenodd" d="M1067.17,1087.31 C1067.17,1090.57 1064.53,1093.21 1061.27,1093.21 C1058,1093.21 1055.36,1090.57 1055.36,1087.31 C1055.36,1084.04 1058,1081.4 1061.27,1081.4 C1064.53,1081.4 1067.17,1084.04 1067.17,1087.31 "/>
</g>

<g fill="none" stroke="#000000" stroke-opacity="1" stroke-width="1" stroke-linecap="square" stroke-linejoin="bevel" transform="matrix(11.8081,0,0,11.8081,307.01,82.6566)"
font-family=".SF NS Text" font-size="54.1667" font-weight="400" font-style="normal" 
>
</g>

<g fill="none" stroke="#000000" stroke-opacity="1" stroke-width="1" stroke-linecap="square" stroke-linejoin="bevel" transform="matrix(11.8081,0,0,11.8081,307.01,82.6566)"
font-family=".SF NS Text" font-size="54.1667" font-weight="400" font-style="normal" 
>
</g>

<g fill="none" stroke="#000000" stroke-opacity="1" stroke-width="1" stroke-linecap="square" stroke-linejoin="bevel" transform="matrix(11.8081,0,0,11.8081,307.01,82.6566)"
font-family=".SF NS Text" font-size="54.1667" font-weight="400" font-style="normal" 
>
</g>

<g fill="none" stroke="#000000" stroke-opacity="1" stroke-width="1" stroke-linecap="square" stroke-linejoin="bevel" transform="matrix(1,0,0,1,0,0)"
font-family=".SF NS Text" font-size="54.1667" font-weight="400" font-style="normal" 
>
</g>

<g fill="none" stroke="#000000" stroke-opacity="1" stroke-width="1" stroke-linecap="square" stroke-linejoin="bevel" transform="matrix(11.8081,0,0,11.8081,307.01,82.6566)"
font-family=".SF NS Text" font-size="54.1667" font-weight="400" font-style="normal" 
>
</g>

<g fill="none" stroke="#000000" stroke-opacity="1" stroke-width="1" stroke-linecap="square" stroke-linejoin="bevel" transform="matrix(11.8081,0,0,11.8081,307.01,82.6566)"
font-family=".SF NS Text" font-size="54.1667" font-weight="400" font-style="normal" 
>
</g>

<g fill="none" stroke="#000000" stroke-opacity="1" stroke-width="1" stroke-linecap="square" stroke-linejoin="bevel" transform="matrix(11.8081,0,0,11.8081,2173.36,167.572)"
font-family=".SF NS Text" font-size="54.1667" font-weight="400" font-style="normal" 
>
</g>

<g fill="#ffffff" fill-opacity="1" stroke="none" transform="matrix(11.8081,0,0,11.8081,2173.36,167.572)"
font-family=".SF NS Text" font-size="54.1667" font-weight="400" font-style="normal" 
>
<path vector-effect="non-scaling-stroke" fill-rule="evenodd" d="M0,0 L44.0281,0 L44.0281,16.9984 L0,16.9984 L0,0"/>
</g>

<g fill="none" stroke="#000000" stroke-opacity="1" stroke-width="1" stroke-linecap="square" stroke-linejoin="bevel" transform="matrix(11.8081,0,0,11.8081,2173.36,167.572)"
font-family=".SF NS Text" font-size="54.1667" font-weight="400" font-style="normal" 
>
</g>

<g fill="none" stroke="#000000" stroke-opacity="1" stroke-width="1" stroke-linecap="square" stroke-linejoin="bevel" transform="matrix(11.8081,0,0,11.8081,2173.36,167.572)"
font-family=".SF NS Text" font-size="54.1667" font-weight="400" font-style="normal" 
>
</g>

<g fill="#ff7f00" fill-opacity="1" stroke="#000000" stroke-opacity="1" stroke-width="1" stroke-linecap="square" stroke-linejoin="bevel" transform="matrix(0.999751,0,0,0.999751,2196.97,297.442)"
font-family=".SF NS Text" font-size="54.1667" font-weight="400" font-style="normal" 
>
<path vector-effect="non-scaling-stroke" fill-rule="evenodd" d="M52.811,23.5 C52.811,30.023 47.523,35.311 41,35.311 C34.477,35.311 29.189,30.023 29.189,23.5 C29.189,16.977 34.477,11.689 41,11.689 C47.523,11.689 52.811,16.977 52.811,23.5 "/>
</g>

<g fill="none" stroke="#000000" stroke-opacity="1" stroke-width="1" stroke-linecap="square" stroke-linejoin="bevel" transform="matrix(11.8081,0,0,11.8081,2173.36,167.572)"
font-family=".SF NS Text" font-size="54.1667" font-weight="400" font-style="normal" 
>
</g>

<g fill="none" stroke="#000000" stroke-opacity="1" stroke-width="1" stroke-linecap="square" stroke-linejoin="bevel" transform="matrix(1.18081,0,0,1.18081,2173.36,167.572)"
font-family=".SF NS Text" font-size="42" font-weight="400" font-style="normal" 
>
<text fill="#000000" fill-opacity="1" stroke="none" xml:space="preserve" x="110" y="145.062" font-family=".SF NS Text" font-size="42" font-weight="400" font-style="normal" 
 >iomGrid-sort.shp</text>
</g>

<g fill="none" stroke="#000000" stroke-opacity="1" stroke-width="1" stroke-linecap="square" stroke-linejoin="bevel" transform="matrix(11.8081,0,0,11.8081,2173.36,167.572)"
font-family=".SF NS Text" font-size="54.1667" font-weight="400" font-style="normal" 
>
</g>

<g fill="none" stroke="#000000" stroke-opacity="1" stroke-width="1" stroke-linecap="square" stroke-linejoin="bevel" transform="matrix(1.18081,0,0,1.18081,2173.36,167.572)"
font-family=".SF NS Text" font-size="56" font-weight="400" font-style="normal" 
>
<text fill="#000000" fill-opacity="1" stroke="none" xml:space="preserve" x="20" y="62.25" font-family=".SF NS Text" font-size="56" font-weight="400" font-style="normal" 
 >Lgende</text>
</g>

<g fill="none" stroke="#000000" stroke-opacity="1" stroke-width="1" stroke-linecap="square" stroke-linejoin="bevel" transform="matrix(11.8081,0,0,11.8081,2173.36,167.572)"
font-family=".SF NS Text" font-size="54.1667" font-weight="400" font-style="normal" 
>
</g>

<g fill="none" stroke="#000000" stroke-opacity="1" stroke-width="1" stroke-linecap="square" stroke-linejoin="bevel" transform="matrix(11.8081,0,0,11.8081,2173.36,167.572)"
font-family=".SF NS Text" font-size="54.1667" font-weight="400" font-style="normal" 
>
</g>

<g fill="none" stroke="#000000" stroke-opacity="1" stroke-width="1" stroke-linecap="square" stroke-linejoin="bevel" transform="matrix(11.8081,0,0,11.8081,2173.36,167.572)"
font-family=".SF NS Text" font-size="54.1667" font-weight="400" font-style="normal" 
>
</g>

<g fill="none" stroke="#000000" stroke-opacity="1" stroke-width="1" stroke-linecap="square" stroke-linejoin="bevel" transform="matrix(11.8081,0,0,11.8081,0,0)"
font-family=".SF NS Text" font-size="54.1667" font-weight="400" font-style="normal" 
>
</g>

<g fill="none" stroke="#000000" stroke-opacity="1" stroke-width="1" stroke-linecap="square" stroke-linejoin="bevel" transform="matrix(11.8081,0,0,11.8081,0,0)"
font-family=".SF NS Text" font-size="54.1667" font-weight="400" font-style="normal" 
>
</g>

<g fill="none" stroke="#000000" stroke-opacity="1" stroke-width="1" stroke-linecap="square" stroke-linejoin="bevel" transform="matrix(1,0,0,1,0,0)"
font-family=".SF NS Text" font-size="54.1667" font-weight="400" font-style="normal" 
>
</g>
</g>
</svg>
