<?xml version="1.0" encoding="utf-8"?>
<!DOCTYPE svg PUBLIC "-//W3C//DTD SVG 1.1//EN" "http://www.w3.org/Graphics/SVG/1.1/DTD/svg11.dtd">
<svg version="1.1" xmlns="http://www.w3.org/2000/svg" xmlns:xlink="http://www.w3.org/1999/xlink" width="960" height="500" viewBox="0 0 960 500" fill="none" stroke="black">
  <path d="M755.018328,417.808121L760.920102,421.39204L755.642473,426.424909L749.709773,422.8105ZM732.054581,412.062219L737.915545,415.628989L732.507717,420.627233L726.616948,417.030112ZM542.616302,305.332279L547.539921,308.302363L541.279596,312.393086L536.338171,309.397239ZM576.74748,333.925772L581.938127,337.081214L575.79905,341.435601L570.58799,338.25295ZM555.141526,328.82431L560.259083,331.947221L554.026775,336.271873L548.890076,333.122032ZM590.862032,358.880188L596.24781,362.188759L590.146909,366.787474L584.739337,363.450558ZM740.224058,450.882935L746.328162,454.652926L740.918402,460.035848L734.783382,456.234217ZM728.67306,452.448464L734.783382,456.234217L729.303971,461.643468L723.163213,457.825987ZM734.783382,456.234217L740.918402,460.035848L735.469766,465.476927L729.303971,461.643468ZM740.918402,460.035848L747.077813,463.853168L741.660287,469.326173L735.469766,465.476927ZM747.077813,463.853168L753.261303,467.685985L747.875221,473.191011L741.660287,469.326173ZM356.923527,231.108534L360.738708,233.456662L353.937146,236.965957L350.11682,234.597042ZM735.469766,465.476927L741.660287,469.326173L736.203792,474.857643L729.982303,470.976283ZM741.660287,469.326173L747.875221,473.191011L742.45003,478.754692L736.203792,474.857643ZM675.153176,436.781353L681.138288,440.513067L675.377933,445.816085L669.365135,442.053029ZM328.336192,228.789667L332.021691,231.091922L325.158015,234.607012L321.469045,232.284304ZM724.456074,476.534029L730.708382,480.447693L725.174118,486.096428L718.891141,482.150272ZM730.708382,480.447693L736.985779,484.37714L731.482526,490.058461L725.174118,486.096428ZM706.402753,474.30639L712.633914,478.220192L707.000181,483.862446L700.739201,479.916157ZM712.633914,478.220192L718.891141,482.150272L713.287575,487.825111L707.000181,483.862446ZM718.891141,482.150272L725.174118,486.096428L719.601067,491.803949L713.287575,487.825111ZM731.482526,490.058461L737.816038,494.036165L732.305045,499.809325L725.940333,495.798756ZM707.000181,483.862446L713.287575,487.825111L707.645454,493.558638L701.328053,489.563199ZM719.601067,491.803949L725.940333,495.798756L720.35927,501.598117L713.989301,497.570347ZM720.35927,501.598117L726.75503,505.641739L721.166062,511.53349L714.739412,507.456628ZM695.617618,495.322537L701.964861,499.35094L696.245887,505.202094L689.868971,501.140538ZM708.338901,503.395707L714.739412,507.456628L709.080844,513.374368L702.649954,509.280108ZM714.739412,507.456628L721.166062,511.53349L715.538222,517.484657L709.080844,513.374368ZM721.166062,511.53349L727.618514,515.626076L722.021751,521.610757L715.538222,517.484657ZM308.812623,256.463696L312.658497,258.960939L305.703055,262.783873L301.85382,260.264635ZM420.721499,328.824252L425.520071,331.915007L418.763287,336.370801L413.952881,333.253538ZM455.071498,350.930993L460.122672,354.178382L453.458686,358.824484L448.393178,355.549404ZM683.519528,497.09565L689.868971,501.140538L684.08221,507.017272L677.703625,502.93914ZM689.868971,501.140538L696.245887,505.202094L690.488627,511.112169L684.08221,507.017272ZM696.245887,505.202094L702.649954,509.280108L696.922551,515.223619L690.488627,511.112169ZM709.080844,513.374368L715.538222,517.484657L709.871595,523.495309L703.383652,519.351405ZM715.538222,517.484657L722.021751,521.610757L716.386037,527.655108L709.871595,523.495309ZM342.006906,286.493464L346.225722,289.243229L339.297203,293.342452L335.0722,290.568774ZM418.763287,336.370801L423.610354,339.51077L416.837928,344.043191L411.978926,340.876354ZM703.383652,519.351405L709.871595,523.495309L704.166273,529.565508L697.647935,525.387803ZM709.871595,523.495309L716.386037,527.655108L710.711463,533.759193L704.166273,529.565508ZM697.647935,525.387803L704.166273,529.565508L698.422354,535.695308L691.873795,531.483615ZM704.166273,529.565508L710.711463,533.759193L704.998122,539.923064L698.422354,535.695308ZM710.711463,533.759193L717.283156,537.968629L711.600746,544.166652L704.998122,539.923064ZM130.823695,161.5219L132.774871,162.886697L125.98207,165.849161L124.040488,164.470447ZM132.774871,162.886697L134.757007,164.271157L127.954761,167.247671L125.98207,165.849161ZM134.757007,164.271157L136.770261,165.675376L129.958723,168.666074L127.954761,167.247671ZM142.998315,170.007529L145.137617,171.491723L138.290481,174.540523L136.159837,173.041596ZM414.945914,351.842502L419.891143,355.082341L413.087739,359.769811L408.130374,356.502385ZM424.873541,358.345071L429.893033,361.630633L423.114984,366.373789L418.082634,363.060299ZM691.873795,531.483615L698.422354,535.695308L692.639946,541.884754L686.061341,537.638887ZM698.422354,535.695308L704.998122,539.923064L699.246116,546.146767L692.639946,541.884754ZM704.998122,539.923064L711.600746,544.166652L705.879499,550.424692L699.246116,546.146767ZM711.600746,544.166652L718.22987,548.425836L712.539736,554.718289L705.879499,550.424692ZM120.250004,161.772023L122.129854,163.111434L115.35003,166.082185L113.48027,164.728978ZM125.98207,165.849161L127.954761,167.247671L121.145536,170.260609L119.182498,168.847903ZM138.290481,174.540523L140.45319,176.059815L133.589302,179.160794L131.435302,177.626483ZM325.370922,301.681486L329.645553,304.527146L322.654095,308.791666L318.373743,305.921374ZM365.212723,328.141578L369.829792,331.19929L362.904669,335.693438L358.278883,332.609509ZM369.829792,331.19929L374.48484,334.280458L367.568777,338.801L362.904669,335.693438ZM374.48484,334.280458L379.177834,337.385052L372.271178,341.932161L367.568777,338.801ZM686.061341,537.638887L692.639946,541.884754L686.81916,548.133884L680.210691,543.853659ZM692.639946,541.884754L699.246116,546.146767L693.455556,552.430339L686.81916,548.133884ZM712.539736,554.718289L719.226461,559.027316L713.528716,565.414676L706.810698,561.070979ZM719.226461,559.027316L725.939304,563.351528L720.273203,569.773627L713.528716,565.414676ZM129.313533,176.112676L131.435302,177.626483L124.572392,180.749606L122.45971,179.22077ZM314.131754,303.074872L318.373743,305.921374L311.354271,310.208217L307.107147,307.337078ZM326.972824,311.685747L331.329941,314.603609L324.327808,318.96543L319.964585,316.022398ZM344.631669,323.499784L349.142365,326.512657L342.167964,330.976923L337.649834,327.938174ZM367.568777,338.801L372.271178,341.932161L365.339053,346.528448L360.627509,343.370532ZM401.287525,361.212544L406.256769,364.507749L399.398501,369.296188L394.417636,365.973016ZM706.810698,561.070979L713.528716,565.414676L707.792,571.862481L701.042864,567.483932ZM713.528716,565.414676L720.273203,569.773627L714.567959,576.256352L707.792,571.862481ZM97.867482,161.180533L99.574138,162.44985L92.836339,165.423451L91.140844,164.140698ZM120.379258,177.712485L122.45971,179.22077L115.59868,182.365879L113.527689,180.842555ZM315.640077,313.103325L319.964585,316.022398L312.933825,320.406397L308.603805,317.462149ZM324.327808,318.96543L328.729754,321.932411L321.711001,326.367294L317.302887,323.374782ZM328.729754,321.932411L333.170429,324.923331L326.158175,329.383922L321.711001,326.367294ZM337.649834,327.938174L342.167964,330.976923L335.169709,335.489461L330.644411,332.42465ZM342.167964,330.976923L346.724812,334.039559L339.734062,338.578335L335.169709,335.489461ZM370.089205,349.710104L374.877928,352.915461L367.939425,357.615365L363.141125,354.382716ZM374.877928,352.915461L379.705181,356.144476L372.776607,360.871849L367.939425,357.615365ZM384.570918,359.397107L389.475088,362.673304L382.567439,367.456131L377.652628,364.15212ZM435.331196,393.210005L440.61577,396.718494L433.834487,401.788832L428.535619,398.250838ZM748.836546,598.446451L755.765227,602.92675L750.216073,609.681956L743.254009,605.166222ZM87.840213,161.633257L89.475527,162.877334L82.756106,165.859159L81.132393,164.601758ZM89.475527,162.877334L91.140844,164.140698L84.409945,167.135974L82.756106,165.859159ZM91.140844,164.140698L92.836339,165.423451L86.094085,168.432305L84.409945,167.135974ZM122.006636,187.060375L124.208162,188.667032L117.303142,191.911316L115.110646,190.288903ZM300.060818,311.646082L304.312809,314.542043L297.249669,318.922869L292.993078,316.001905ZM308.603805,317.462149L312.933825,320.406397L305.880852,324.837765L301.545586,321.868157ZM321.711001,326.367294L326.158175,329.383922L319.122903,333.892434L314.669499,330.849914ZM335.169709,335.489461L339.734062,338.578335L332.719493,343.165591L328.147902,340.050292ZM344.33746,341.691248L348.979887,344.828174L341.980816,349.468811L337.330469,346.305107ZM353.661325,347.989083L358.381747,351.173942L351.399552,355.868665L346.670518,352.656675ZM367.939425,357.615365L372.776607,360.871849L365.822348,365.649016L360.975502,362.364877ZM382.567439,367.456131L387.520985,370.783829L380.597853,375.645008L375.633573,372.289132ZM397.544041,377.510065L402.613417,380.908482L395.724655,385.855221L390.643459,382.428113ZM916.150123,716.657578L923.568731,721.412106L918.871057,729.087125L911.41206,724.297093ZM319.122903,333.892434L323.615704,336.959233L316.564021,341.541939L312.064925,338.448884ZM323.615704,336.959233L328.147902,340.050292L321.10285,344.659433L316.564021,341.541939ZM337.330469,346.305107L341.980816,349.468811L334.957694,354.158318L330.299694,350.967648ZM341.980816,349.468811L346.670518,352.656675L339.655392,357.373325L334.957694,354.158318ZM351.399552,355.868665L356.167891,359.104746L349.1698,363.87621L344.392769,360.612634ZM360.975502,362.364877L365.822348,365.649016L358.842697,370.475996L353.986454,367.164011ZM370.708387,368.957118L375.633573,372.289132L368.673782,377.172326L363.738488,373.812118ZM380.597853,375.645008L385.601169,379.024688L378.662674,383.964788L373.648529,380.556568ZM88.173229,178.325004L90.032093,179.755118L83.214095,182.920392L81.366191,181.475619ZM97.785905,185.680291L99.804815,187.213267L92.934144,190.453892L90.925477,188.905568ZM303.185914,332.336159L307.605559,335.380286L300.519499,339.95842L296.094493,336.888208ZM307.605559,335.380286L312.064925,338.448884L304.984557,343.053282L300.519499,339.95842ZM312.064925,338.448884L316.564021,341.541939L309.489677,346.172778L304.984557,343.053282ZM321.10285,344.659433L325.68141,347.801343L318.620124,352.485601L314.034866,349.316892ZM334.957694,354.158318L339.655392,357.373325L332.616253,362.139043L327.910828,358.896706ZM344.392769,360.612634L349.1698,363.87621L342.147156,368.697119L337.361703,365.405859ZM358.842697,370.475996L363.738488,373.812118L356.743228,378.71713L351.837954,375.352799ZM378.662674,383.964788L383.716154,387.396925L376.762418,392.416511L371.698014,388.955472ZM81.366191,181.475619L83.214095,182.920392L76.391386,186.121749L74.554641,184.66217ZM90.925477,188.905568L92.934144,190.453892L86.057742,193.731345L84.059524,192.167523ZM296.094493,336.888208L300.519499,339.95842L293.411641,344.58432L288.981547,341.487838ZM318.620124,352.485601L323.245448,355.678881L316.168045,360.438813L311.535954,357.218369ZM323.245448,355.678881L327.910828,358.896706L320.840535,363.683978L316.168045,360.438813ZM327.910828,358.896706L332.616253,362.139043L325.553414,366.953833L320.840535,363.683978ZM346.972584,372.01278L351.837954,375.352799L344.808427,380.27943L339.934201,376.911186ZM351.837954,375.352799L356.743228,378.71713L349.722912,383.67216L344.808427,380.27943ZM356.743228,378.71713L361.688362,382.105722L354.677617,387.089326L349.722912,383.67216ZM366.673308,385.518522L371.698014,388.955472L364.707489,393.996744L359.672493,390.530873ZM376.762418,392.416511L381.866458,395.901575L374.897609,401.001205L369.782548,397.486876ZM397.415664,406.500225L402.677492,410.080678L395.756412,415.299066L390.482085,411.688671ZM407.978551,413.684781L413.318743,417.312448L406.423783,422.591222L401.070343,418.933279ZM293.411641,344.58432L297.882119,347.70563L290.757939,352.405929L286.282315,349.257984ZM302.392992,350.851755L306.94427,354.022675L299.831386,358.77678L295.274293,355.578868ZM311.535954,357.218369L316.168045,360.438813L309.067808,365.24744L304.429224,361.999646ZM330.306666,370.248346L335.10027,373.567477L328.029458,378.487283L323.227976,375.140091ZM335.10027,373.567477L339.934201,376.911186L332.871618,381.85923L328.029458,378.487283ZM339.934201,376.911186L344.808427,380.27943L337.754428,385.255887L332.871618,381.85923ZM364.707489,393.996744L369.782548,397.486876L362.776849,402.608018L357.691406,399.088601ZM281.847404,346.135047L286.282315,349.257984L279.131854,353.979405L274.692401,350.829829ZM290.757939,352.405929L295.274293,355.578868L288.133911,360.354108L283.612352,357.15417ZM299.831386,358.77678L304.429224,361.999646L297.300262,366.829424L292.696545,363.5792ZM309.067808,365.24744L313.747135,368.520133L306.630954,373.405165L301.945065,370.104755ZM313.747135,368.520133L318.467195,371.817695L311.357921,376.730621L306.630954,373.405165ZM318.467195,371.817695L323.227976,375.140091L316.125956,380.081089L311.357921,376.730621ZM323.227976,375.140091L328.029458,378.487283L320.935042,383.45653L316.125956,380.081089ZM328.029458,378.487283L332.871618,381.85923L325.785158,386.856903L320.935042,383.45653ZM332.871618,381.85923L337.754428,385.255887L330.676278,390.282162L325.785158,386.856903ZM342.677854,388.677206L347.641856,392.123135L340.581395,397.207142L335.608369,393.732259ZM347.641856,392.123135L352.646389,395.59362L345.595313,400.706754L340.581395,397.207142ZM378.275107,413.312198L383.521597,416.928658L376.534502,422.220178L371.276426,418.57356ZM279.131854,353.979405L283.612352,357.15417L276.445695,361.95034L271.960599,358.74857ZM283.612352,357.15417L288.133911,360.354108L280.972184,365.177464L276.445695,361.95034ZM292.696545,363.5792L297.300262,366.829424L290.149405,371.70769L285.540084,368.429921ZM297.300262,366.829424L301.945065,370.104755L294.800152,375.010745L290.149405,371.70769ZM301.945065,370.104755L306.630954,373.405165L299.492326,378.339058L294.800152,375.010745ZM306.630954,373.405165L311.357921,376.730621L304.225924,381.692596L299.492326,378.339058ZM311.357921,376.730621L316.125956,380.081089L309.000938,385.071324L304.225924,381.692596ZM316.125956,380.081089L320.935042,383.45653L313.817352,388.475202L309.000938,385.071324ZM340.581395,397.207142L345.595313,400.706754L338.519584,405.87026L333.496557,402.34133ZM345.595313,400.706754L350.650076,404.231037L343.583819,409.424034L338.519584,405.87026ZM387.171892,429.586042L392.551025,433.305114L385.573825,438.740203L380.182252,434.99028ZM276.445695,361.95034L280.972184,365.177464L273.789457,370.048915L269.258313,366.79442ZM280.972184,365.177464L285.540084,368.429921L278.362346,373.328923L273.789457,370.048915ZM290.149405,371.70769L294.800152,375.010745L287.633406,379.96539L282.976993,376.634424ZM299.492326,378.339058L304.225924,381.692596L297.071542,386.7036L292.33159,383.321793ZM309.000938,385.071324L313.817352,388.475202L306.676721,393.54328L301.853256,390.110776ZM313.817352,388.475202L318.675147,391.90419L311.541919,397.001071L306.676721,393.54328ZM323.574301,395.358241L328.514782,398.837305L321.397424,403.992322L316.448829,400.484102ZM333.496557,402.34133L338.519584,405.87026L331.41953,411.084117L326.38767,407.52568ZM338.519584,405.87026L343.583819,409.424034L336.492959,414.667572L331.41953,411.084117ZM353.835699,416.605858L359.023226,420.233769L351.962149,425.567387L346.764327,421.909277ZM364.251721,423.886247L369.521111,427.563214L362.48174,432.957742L357.201311,429.250235ZM264.768896,363.565459L269.258313,366.79442L262.050558,371.686384L257.557096,368.430047ZM278.362346,373.328923L282.976993,376.634424L275.783374,381.609599L271.163679,378.276181ZM287.633406,379.96539L292.33159,383.321793L285.14909,388.353343L280.445176,384.968663ZM292.33159,383.321793L297.071542,386.7036L289.895118,391.763607L285.14909,388.353343ZM301.853256,390.110776L306.676721,393.54328L299.513491,398.660736L294.683254,395.199418ZM306.676721,393.54328L311.541919,397.001071L304.385813,402.147518L299.513491,398.660736ZM321.397424,403.992322L326.38767,407.52568L319.255069,412.760162L314.25663,409.197284ZM331.41953,411.084117L336.492959,414.667572L329.37783,419.961621L324.295483,416.348295ZM341.60791,418.275982L346.764327,421.909277L339.668128,427.263588L334.502062,423.600075ZM346.764327,421.909277L351.962149,425.567387L344.875968,430.952087L339.668128,427.263588ZM384.014483,448.032626L389.499961,451.862094L382.494397,457.464247L376.996266,453.603214ZM235.719626,352.534536L240.003264,355.66212L232.759921,360.465949L228.474134,357.311712ZM266.586078,374.968435L271.163679,378.276181L263.944437,383.271662L259.362404,379.935993ZM280.445176,384.968663L285.14909,388.353343L277.945178,393.433676L273.235813,390.020532ZM289.895118,391.763607L294.683254,395.199418L287.491281,400.337217L282.697002,396.872583ZM294.683254,395.199418L299.513491,398.660736L292.328009,403.827536L287.491281,400.337217ZM299.513491,398.660736L304.385813,402.147518L297.207175,407.343498L292.328009,403.827536ZM304.385813,402.147518L309.300201,405.659718L302.128761,410.885054L297.207175,407.343498ZM314.25663,409.197284L319.255069,412.760162L312.099097,418.044742L307.092745,414.452154ZM324.295483,416.348295L329.37783,419.961621L322.238768,425.306146L317.147784,421.66276ZM334.502062,423.600075L339.668128,427.263588L332.547438,432.668753L327.372003,428.974834ZM360.749466,442.166713L366.123703,445.954349L359.055439,451.514109L353.669966,447.695216ZM224.230501,354.183423L228.474134,357.311712L221.210652,362.1356L216.965462,358.980659ZM237.087912,363.646131L241.458155,366.852256L234.201246,371.757195L229.828493,368.523871ZM241.458155,366.852256L245.870691,370.084316L238.616615,375.016637L234.201246,371.757195ZM250.325557,373.342302L254.822785,376.6262L247.575357,381.61383L243.07464,378.302187ZM263.944437,383.271662L268.568902,386.633184L261.333936,391.705139L256.704981,388.315328ZM268.568902,386.633184L273.235813,390.020532L266.005675,395.120957L261.333936,391.705139ZM277.945178,393.433676L282.697002,396.872583L275.477549,402.03049L270.720211,398.562752ZM282.697002,396.872583L287.491281,400.337217L280.27769,405.524133L275.477549,402.03049ZM292.328009,403.827536L297.207175,407.343498L290.006358,412.588969L285.120629,409.043641ZM297.207175,407.343498L302.128761,410.885054L294.93486,416.16007L290.006358,412.588969ZM302.128761,410.885054L307.092745,414.452154L299.906116,419.756891L294.93486,416.16007ZM312.099097,418.044742L317.147784,421.66276L309.97678,427.027469L304.9201,423.379377ZM343.024678,440.131989L348.326353,443.901146L341.211003,449.449939L335.899126,445.649673ZM552.675589,586.069307L559.354808,590.629352L552.842457,597.362459L546.139232,592.766401ZM216.965462,358.980659L221.210652,362.1356L213.929553,367.006157L209.683081,363.824381ZM221.210652,362.1356L225.498312,365.316671L218.218808,370.214246L213.929553,367.006157ZM247.575357,381.61383L252.118795,384.95155L244.855618,390.015063L240.308641,386.64923ZM252.118795,384.95155L256.704981,388.315328L249.445676,393.407134L244.855618,390.015063ZM266.005675,395.120957L270.720211,398.562752L263.474552,403.740525L258.755127,400.269894ZM270.720211,398.562752L275.477549,402.03049L268.237122,407.237279L263.474552,403.740525ZM290.006358,412.588969L294.93486,416.16007L287.718855,421.484717L282.783719,417.883885ZM299.906116,419.756891L304.9201,423.379377L297.718433,428.76402L292.697101,425.111448ZM309.97678,427.027469L315.076119,430.701104L307.890235,436.146445L302.782823,432.442373ZM320.218075,434.400214L325.402599,438.12473L318.233958,443.631466L313.040629,439.876166ZM325.402599,438.12473L330.629636,441.874575L323.47017,447.412268L318.233958,443.631466ZM341.211003,449.449939L346.565195,453.275288L339.435492,458.906876L334.071005,455.050059ZM213.929553,367.006157L218.218808,370.214246L210.921787,375.158623L206.631214,371.923335ZM231.343811,379.99636L235.804716,383.309657L228.516159,388.364663L224.052654,385.023435ZM235.804716,383.309657L240.308641,386.64923L233.023011,391.732351L228.516159,388.364663ZM240.308641,386.64923L244.855618,390.015063L237.573246,395.126479L233.023011,391.732351ZM254.07884,396.82542L258.755127,400.269894L251.484538,405.46729L246.803986,401.993975ZM273.042843,410.760119L277.89171,414.309002L270.641618,419.623567L265.787106,416.045122ZM282.783719,417.883885L287.718855,421.484717L280.481109,426.858942L275.539623,423.22819ZM287.718855,421.484717L292.697101,425.111448L285.466061,430.515768L280.481109,426.858942ZM292.697101,425.111448L297.718433,428.76402L290.494457,434.198614L285.466061,430.515768ZM302.782823,432.442373L307.890235,436.146445L300.681472,441.642112L295.566272,437.907417ZM334.071005,455.050059L339.435492,458.906876L332.281207,464.589919L326.906707,460.701446ZM219.632455,381.708678L224.052654,385.023435L216.743524,390.097805L212.321329,386.755117ZM224.052654,385.023435L228.516159,388.364663L221.209348,393.467148L216.743524,390.097805ZM228.516159,388.364663L233.023011,391.732351L225.718847,396.863133L221.209348,393.467148ZM233.023011,391.732351L237.573246,395.126479L230.272058,400.285742L225.718847,396.863133ZM237.573246,395.126479L242.166896,398.547029L234.869017,403.734954L230.272058,400.285742ZM242.166896,398.547029L246.803986,401.993975L239.509751,407.210745L234.869017,403.734954ZM246.803986,401.993975L251.484538,405.46729L244.194285,410.713086L239.509751,407.210745ZM251.484538,405.46729L256.208569,408.966943L248.922638,414.241947L244.194285,410.713086ZM256.208569,408.966943L260.97609,412.4929L253.694825,417.797292L248.922638,414.241947ZM260.97609,412.4929L265.787106,416.045122L258.510853,421.379082L253.694825,417.797292ZM270.641618,419.623567L275.539623,423.22819L268.274441,428.621824L263.370725,424.987275ZM305.84002,445.402633L311.04187,449.188905L303.826697,454.79698L298.616611,450.979549ZM311.04187,449.188905L316.286973,453.000852L309.080405,458.64026L303.826697,454.79698ZM258.510853,421.379082L263.370725,424.987275L256.079409,430.400057L251.214462,426.761931ZM283.248539,439.683096L288.327493,443.422535L281.066859,448.987658L275.981052,445.217396ZM293.450196,447.188042L298.616611,450.979549L291.370772,456.606842L286.196777,452.784163ZM539.912493,622.633344L546.759481,627.377472L540.159583,634.415161L533.288797,629.634123ZM289.328572,466.164744L294.598627,470.071248L287.32417,475.862658L282.046377,471.924264ZM479.432873,603.526865L486.059738,608.202937L479.238724,615.09726L472.591443,610.384626ZM693.87686,751.86044L701.521134,757.044647L695.49912,765.070784L687.822622,759.848315ZM266.481543,460.267597L271.625025,464.126655L264.307467,469.872847L259.157639,465.982236ZM282.046377,471.924264L287.32417,475.862658L280.027848,481.704553L274.742607,477.734085ZM657.402103,739.084318L664.963422,744.255702L658.777012,752.189295L651.185176,746.97952ZM664.963422,744.255702L672.554274,749.440405L666.398756,757.412398L658.777012,752.189295ZM643.623731,741.783435L651.185176,746.97952L644.931015,754.934889L637.33967,749.700282ZM674.049919,762.648464L681.730001,767.897119L675.599208,776.006655L667.887724,770.719455ZM689.438497,773.15799L697.174895,778.430697L691.108007,786.617298L683.339474,781.306064ZM629.779574,744.479741L637.33967,749.700282L631.018857,757.676951L623.429488,752.41776ZM652.553131,760.183198L660.205532,765.444844L653.974831,773.537536L646.292013,768.237208ZM667.887724,770.719455L675.599208,776.006655L669.430467,784.17671L661.687817,778.85083ZM675.599208,776.006655L683.339474,781.306064L677.202269,789.514791L669.430467,784.17671Z"></path>
</svg>
