<?xml version="1.0" encoding="utf-8"?>
<!DOCTYPE svg PUBLIC "-//W3C//DTD SVG 1.1//EN" "http://www.w3.org/Graphics/SVG/1.1/DTD/svg11.dtd">
<svg version="1.1" xmlns="http://www.w3.org/2000/svg" xmlns:xlink="http://www.w3.org/1999/xlink" width="960" height="500" viewBox="0 0 960 500" fill="none" stroke="black">
  <path d="M1339.524,819.341L1339.832,819.241L1339.834,819.238L1340.062,818.953L1340.271,819.023L1341.097,819.726L1341.032,820.038L1340.989,820.244L1341.203,820.656L1341.571,821.085L1341.6,821.119L1342.797,822.643L1343.11,823.176L1342.74,823.674L1342.733,823.683L1342.328,824.077L1342.067,824.127L1341.566,824.03L1341.042,823.793L1340.269,823.68M1330.91,792.138L1331.219,792.337L1331.591,792.447L1331.85,792.64L1332.574,792.915L1332.843,793.144L1333.101,793.664L1333.278,794.02L1333.597,794.943L1333.846,795.279L1334.2,795.471L1334.998,795.67L1335.253,795.953L1335.418,796.326L1335.463,797.075L1335.418,797.38L1335.781,798L1336.165,798.27L1336.436,798.621L1336.234,798.887L1335.277,798.647L1335.047,798.684L1335.049,798.896M876.97,822.393M959.591,323.434L960.02,323.695L960.329,323.977L960.718,324.535L961.173,324.942L961.416,325.098L961.563,325.261L961.508,325.413L961.263,325.605L961.06,325.682M959.109,323.35L959.591,323.434M961.06,325.682L960.874,325.558L960.686,325.368M960.686,325.368L960.468,325.244L960.232,325.225L959.303,325.24L958.7,325.18L958.319,325.189L958.048,325.301L958.021,325.66M960.674,326.188L960.727,326.305L960.773,326.494L960.897,326.669M958.021,325.66L958.563,325.858L960.161,326.002L960.4,326.055L960.674,326.188M961.729,326.856L961.96,327.191L962.043,327.823L962.486,328.565M960.897,326.669L961.729,326.856M963.221,328.89L963.561,329.516L963.551,330.114L963.148,330.478L963.302,330.722L963.574,331.152L965.085,332.421L965.803,333.023L965.809,333.028L966.292,333.849L965.86,334.27L964.081,334.79L963.624,335.083L962.848,336.049L962.589,336.574L962.57,336.673L962.598,336.827L962.367,336.997L962.077,337.13L961.945,337.178L961.812,337.544L961.957,338.201L961.889,338.442L961.571,338.79L961.376,339.115L961.333,339.456L961.477,339.851L961.479,339.855L962.155,340.719L962.158,340.723L962.257,341.013L962.211,341.206L962.181,341.333L961.948,341.45L961.307,341.514L960.642,341.924L960.899,342.472L961.416,343.147L961.543,343.939L961.113,343.995L960.677,343.921L960.306,343.71M962.486,328.565L963.204,328.883L963.219,328.889M960.306,343.71L959.894,342.903M959.894,342.903L959.627,342.842L959.408,343.113L959.354,343.646L959.481,344.647L959.636,345.857L959.637,345.868L959.448,346.634L959.014,346.519L958.128,346.761L957.191,346.562L956.551,346.584L955.908,346.685L955.453,346.819L955.449,346.821L955.752,347.063L955.956,347.349L955.96,347.355L956.181,347.848L956.245,347.992M959.379,347.475L959.575,347.713L959.581,347.721L959.616,347.963L959.617,347.97M958.051,348.105L958.31,348.197L958.608,348.053L958.646,347.791L958.638,347.51L958.792,347.319L959.096,347.321L959.379,347.475M960.185,347.953L960.412,348.186L960.414,348.188L960.574,348.544L960.575,348.546L960.797,348.825L961.043,349.018L961.052,349.025L961.014,349.113L961.007,349.13L960.87,349.225L960.852,349.389L960.893,349.461L960.979,349.608L961.396,350.054L961.4,350.058L961.785,350.908L961.87,351.097L961.874,351.106L961.89,351.322L961.529,351.873L961.291,352.073M959.617,347.97L959.756,348.05L960.185,347.953M957.597,347.738L957.821,347.89L958.051,348.105M956.245,347.992L956.502,347.938L957.136,347.918L957.597,347.738M961.291,352.073L961.281,352.062L961.264,352.04L961.117,351.862M961.117,351.862L960.978,351.782L960.854,352.105L960.847,352.264L960.847,352.273M960.962,352.307L960.708,352.385L960.633,352.379M960.847,352.273L960.94,352.301L960.962,352.307M960.633,352.379L960.553,352.329M960.553,352.329L959.802,352.185L959.374,352.034L959.019,351.83M959.019,351.83L958.77,351.586M958.77,351.586L958.671,351.982L958.701,352.426L958.856,352.864L958.896,352.921L959.113,353.234L959.675,353.606M961.389,354.004L961.857,354.383L961.859,354.385L961.871,354.444L961.927,354.732L961.703,355.088L961.318,355.5L961.22,355.693L961.22,356.143L961.17,356.401L960.999,356.638L960.794,356.816L960.656,356.987L960.683,357.206L960.292,357.494L960.376,357.919L960.377,357.926L960.734,358.248M959.675,353.606L960.274,353.75L960.859,353.829L961.389,354.004M963.573,358.345L963.605,358.438L963.526,358.549L963.397,358.606L963.277,358.537L963.296,358.646L963.268,358.75L963.29,358.863L963.44,358.993M961.529,358.591L962.102,358.507L962.744,358.315L963.155,358.268L963.231,358.287L963.317,358.279L963.424,358.285L963.573,358.345M963.891,359.223L963.993,359.312L964.081,359.69L963.831,360.526L963.806,360.932L963.666,361.402L963.144,361.652L962.129,361.885L962.118,361.888M963.44,358.993L963.891,359.223M961.33,358.304L961.529,358.591M960.734,358.248L960.788,358.244L961.173,358.214L961.33,358.304M962.568,362.13L962.778,362.279L962.781,362.281L962.837,362.385L962.781,362.568L962.779,362.574M962.118,361.888L962.568,362.13M963.427,362.81L963.836,363.164L963.948,363.415L963.864,364.161L963.481,364.058L963.037,363.993L962.595,364.006L962.218,364.138L962.212,364.14L962.533,364.356L963.087,365.014M962.779,362.574L962.966,362.682L963.233,362.746L963.427,362.81M964.51,365.284L964.466,365.599L964.588,365.826L964.594,365.837L964.855,366.036L965.188,366.23L965.195,366.234L965.201,366.345L965.364,366.933L965.472,367.13M963.087,365.014L963.378,365.121L964.503,365.283L964.51,365.284M1205.525,640.509L1205.679,640.542L1206.409,640.698L1206.755,640.772L1207.959,640.903L1208.76,640.687L1209.253,640.554L1210.807,641.043L1210.962,641.091L1213.504,641.425L1216.223,641.104L1216.326,641.092L1216.815,640.879L1217.498,640.867L1218.062,640.93L1218.469,640.565L1218.573,639.964L1218.702,639.219L1218.285,637.731L1218.41,636.969L1218.602,636.455L1218.693,636.255L1218.846,634.77L1218.737,634.387L1218.858,634.093L1219.226,634.03L1219.616,634.072L1220.173,633.889L1220.242,633.192L1220.19,632.608L1220.193,632.556L1220.259,631.673L1220.229,630.943L1219.916,630.18L1220.476,630.012L1220.752,629.929L1221.807,630.392L1223.459,631.159L1224.997,631.556L1225.712,631.225L1226.504,631.062L1227.254,630.707L1227.696,630.298L1227.883,630.143L1228.122,629.353L1228.286,628.488L1228.811,627.937L1229.394,627.503M1268.558,667.685L1268.497,667.922L1268.025,668.678L1267.304,669.091L1266.08,668.327L1265.273,669.042L1263.737,668.432L1262.469,669.022L1261.237,668.961L1261.115,669.916L1261.432,670.986L1261.186,671.864L1260.234,673.043L1260.112,674.003L1259.887,674.541L1259.65,675.111L1260.384,676.445L1259.503,676.773L1259.584,677.539L1261.304,679.326L1260.652,679.656L1260.379,679.794L1259.82,679.941L1259.197,680.106L1258.876,680.62L1258.979,681.405L1258.812,681.991L1258.882,682.177L1259.167,682.932L1258.953,683.684L1259.839,685.126L1260.602,686.3M1279.976,680.821L1279.667,679.759L1279.307,678.722L1279.057,678.168M1282.71,687.76L1282.098,687.021L1281.443,686.094L1282.203,686.05L1282.697,686.002L1282.309,685.054L1282.235,684.137L1281.534,683.183L1281.195,682.263L1280.966,681.279M1280.966,681.279L1280.424,680.94L1279.976,680.821M1286.493,692.949L1285.853,691.834L1285.099,691.197L1284.436,690.073L1283.933,688.362L1283.452,687.868M1283.452,687.868L1282.71,687.76M1280.721,702.099L1281.671,702.456L1282.175,702.645L1282.987,702.428L1283.565,702.095L1284.576,701.668L1285.192,701.164L1285.095,700.382L1285.738,700.257L1286.76,700.535L1286.906,699.381L1287.309,698.941L1287.266,698.525L1287.415,697.929L1287.052,696.295L1286.629,695.481L1286.886,695.118L1287.398,694.916L1287.827,694.469L1287.035,693.288M1287.035,693.288L1286.493,692.949M1271.392,689.156L1272.181,690.339L1272.523,691.44L1272.807,693.225L1272.943,694.008L1273.092,694.657L1273.01,694.964M1268.079,688.664L1268.881,689.164L1270.792,689.111L1271.392,689.156M1267.207,687.786L1268.079,688.664M1266.329,689.178L1267.254,688.148L1267.207,687.786M1261.299,685.51L1263.31,686.932L1263.058,687.833L1263.514,689.031M1260.602,686.3L1261.086,686.266L1261.299,685.51M1265.169,688.26L1266.329,689.178M1263.514,689.031L1264.047,689.364L1265.213,689.179L1265.169,688.26M1274.58,694.333L1275.727,695.941L1276.008,696.328L1276.428,696.906L1276.601,697.377L1276.398,698.144L1276.279,698.597L1276.636,698.949L1277.272,699.578L1278.018,700.408M1273.01,694.964L1273.618,694.985L1273.949,694.301L1274.58,694.333M1280.354,701.145L1280.721,702.099M1278.018,700.408L1279.004,700.859L1279.806,700.802L1280.354,701.145M1995.584,1565.338L1995.721,1565.844L1996.167,1568.155L1996.516,1570.018L1996.681,1571.854L1996.852,1573.147L1996.927,1573.715L1997.687,1574.696M1998.686,1574.316L1999.572,1575.844M1997.687,1574.696L1998.686,1574.316M1999.572,1575.844L2000.838,1576.005L2000.841,1576.006M2005.835,1585.76L2006.135,1588.007L2006.674,1589.491L2006.827,1591.272L2006.949,1594.339L2007.526,1594.947L2007.993,1596.85L2008.301,1598.674L2008.585,1600.336M1989.638,1522.971L1988.944,1524.629L1989.682,1527.451M1989.91,1526.742L1990.724,1530.502L1991.533,1532.945L1992.409,1535.749L1992.892,1538.831M1989.682,1527.451L1989.91,1526.742M1945.666,1329.498L1947.59,1331.373L1949.156,1336.3M1949.937,1336.331L1950.794,1337.589L1951.62,1340.772L1952.157,1341.825L1953.357,1343.629M1949.156,1336.3L1949.937,1336.331M1954.395,1344.19L1955.083,1345.748L1955.779,1348.067L1956.389,1351.136L1956.732,1353.673L1957.124,1356.603L1958.022,1359.072L1959.146,1360.428L1959.961,1361.653L1960.786,1363.649L1961.217,1365.438L1961.671,1366.073L1962.575,1367.345M1953.357,1343.629L1954.395,1344.19M1963.895,1367.628L1965.048,1371.357M1962.575,1367.345L1963.505,1367.427L1963.895,1367.628M1965.446,1371.098L1966.228,1374.325L1966.846,1378.402L1966.894,1378.722M1965.048,1371.357L1965.446,1371.098M1916.627,1295.576L1916.631,1295.615L1916.707,1296.414L1916.808,1296.942L1916.812,1296.962L1916.814,1296.972L1916.875,1297.189L1916.978,1297.456L1917.022,1297.548L1917.055,1297.617L1917.133,1297.755L1917.241,1297.907L1917.733,1298.399L1917.888,1298.632L1918.075,1298.97L1918.093,1299.002L1918.324,1299.587L1918.338,1299.623L1919.194,1301.295L1919.209,1301.323L1919.406,1301.769L1919.512,1302.05L1919.517,1302.062L1919.518,1302.066L1919.573,1302.337L1919.645,1302.686L1919.648,1302.704L1919.685,1302.905L1919.704,1303.101L1919.702,1303.444L1919.713,1303.604L1919.737,1303.769L1919.778,1303.973L1919.814,1304.214L1919.817,1304.44L1919.752,1304.504L1919.688,1304.49M1915.126,1301.099L1915.048,1301.03L1914.193,1299.915L1913.862,1299.573L1913.683,1299.431M1913.683,1299.431L1912.545,1299.992L1912.336,1300.016L1912.223,1299.959M1916.617,1302.779L1916.539,1302.718L1916.471,1302.6L1916.459,1302.57L1916.397,1302.424L1916.289,1302.122L1916.121,1301.596L1916.054,1301.446M1916.054,1301.446L1916.05,1301.445L1916,1301.429L1915.856,1301.578L1915.792,1301.6M1911.348,1299.647L1911.288,1299.592L1911.211,1299.456L1911.201,1299.432L1910.931,1298.782L1910.767,1298.465L1910.689,1298.382M1910.689,1298.382L1910.635,1298.424L1910.354,1299.011L1910.229,1299.12L1909.83,1299.149L1909.591,1299.091L1909.541,1299.152L1909.533,1299.288L1909.557,1299.454L1909.6,1299.685L1909.73,1300.639L1909.851,1301.2L1910.234,1302.741L1910.31,1303.11L1910.326,1303.233L1910.33,1303.366L1910.281,1303.862L1910.195,1304.464L1910.185,1304.654L1910.21,1305.166L1910.207,1305.447L1910.15,1305.786L1910.094,1305.932L1910.027,1306.051L1909.416,1306.364L1909.35,1306.454L1909.328,1306.579L1909.346,1306.729L1909.394,1306.921L1909.459,1307.138L1909.54,1307.444L1909.582,1307.679L1909.605,1307.995L1909.578,1308.115L1909.533,1308.165L1909.219,1308.095M1915.792,1301.6L1915.719,1301.55L1915.601,1301.352L1915.54,1301.274L1915.388,1301.169M1915.388,1301.169L1915.126,1301.099M1919.688,1304.49L1919.422,1304.191L1919.124,1303.76L1918.693,1303.237L1918.551,1303.127M1918.551,1303.127L1918.508,1303.133L1918.322,1303.449L1918.258,1303.474M1918.258,1303.474L1918.189,1303.42L1917.894,1302.939L1917.785,1302.791L1917.69,1302.714M1917.69,1302.714L1917.625,1302.76L1917.459,1303.238L1917.348,1303.389L1917.284,1303.389M1912.223,1299.959L1912,1299.782M1912,1299.782L1911.653,1299.659L1911.348,1299.647M1917.284,1303.389L1917.214,1303.327L1917.045,1303.049L1916.947,1302.936M1916.947,1302.936L1916.617,1302.779M1909.219,1308.095L1908.82,1307.857M1908.82,1307.857L1908.575,1307.827L1908.454,1307.92L1908.4,1308.066L1908.404,1308.252L1908.44,1308.814L1908.572,1309.884L1908.648,1310.391L1908.664,1310.611L1908.652,1310.806L1908.602,1311.085L1908.523,1311.224L1908.14,1311.235L1908.049,1311.326L1907.964,1311.509L1907.648,1312.763L1907.534,1312.943L1907.461,1313.008L1907.282,1313.046L1907.108,1313.171L1906.908,1313.492L1906.862,1313.624L1906.697,1314.539L1906.633,1314.579M1906.633,1314.579L1906.55,1314.525L1906.149,1313.946L1905.988,1313.819M1905.988,1313.819L1905.861,1313.764L1905.713,1313.757L1905.537,1313.815L1905.4,1314.077L1905.319,1314.289L1905.25,1314.57L1905.204,1314.833L1905.178,1315.058L1905.169,1315.319L1905.219,1317L1905.261,1317.651L1905.278,1317.802L1905.32,1317.967L1905.474,1318.49L1905.523,1318.75L1905.527,1318.998L1905.307,1319.98L1905.29,1320.14L1905.291,1320.312L1905.303,1320.54L1905.326,1320.758L1905.385,1321.053L1905.479,1321.429L1905.51,1321.585L1905.55,1321.739L1905.612,1321.931L1906.15,1323.143L1906.274,1323.508L1906.333,1323.863L1906.515,1324.619L1906.537,1324.734L1906.54,1324.872L1906.058,1329.024L1906.693,1329.973L1908.185,1332.208L1908.215,1332.253L1909.541,1333.369L1910.151,1334.003M1912.373,1333.586L1912.461,1333.672L1912.53,1333.766L1912.577,1333.829L1912.803,1334.203L1912.805,1334.207L1912.911,1334.412L1912.937,1334.463L1913.043,1334.636L1913.054,1334.654L1913.277,1334.951L1913.422,1335.063M1910.151,1334.003L1910.232,1334.042L1910.331,1334.057L1910.357,1333.964L1910.402,1333.714L1910.434,1333.605L1910.859,1333.067L1910.961,1333.019L1911.056,1333.011L1912.373,1333.586M1913.898,1334.496L1913.913,1334.513L1913.936,1334.539L1913.939,1334.542L1913.942,1334.545L1913.979,1334.637L1914.016,1334.779L1914.056,1334.915L1914.302,1335.545L1914.481,1335.95L1914.488,1335.966L1914.491,1335.973L1914.644,1336.271L1914.953,1336.872L1914.965,1336.896L1915.028,1337.086L1915.067,1337.237L1915.076,1337.387L1915.057,1337.534L1914.881,1338.048L1914.859,1338.158L1914.855,1338.282L1915.029,1340.486L1915.064,1340.816L1915.105,1341.105L1915.154,1341.358L1915.224,1341.581L1915.329,1341.854L1916.796,1344.751L1917.006,1345.247L1917.066,1345.417L1917.198,1345.729L1917.685,1346.712L1917.807,1346.958L1917.814,1346.973L1917.925,1347.268L1917.975,1347.453L1918.088,1347.958L1918.133,1348.058L1918.134,1348.061L1918.138,1348.07L1918.18,1348.134L1918.194,1348.155L1918.396,1348.392L1918.452,1348.44M1913.422,1335.063L1913.56,1335.12L1913.645,1335.117L1913.7,1335.076L1913.741,1335.013L1913.783,1334.904L1913.851,1334.595L1913.898,1334.496M1918.704,1348.507L1918.781,1348.562L1918.934,1348.719L1918.941,1348.727L1919.053,1348.891L1919.06,1348.904L1919.181,1349.125L1919.187,1349.135L1919.282,1349.36L1919.353,1349.555L1919.412,1349.804L1919.458,1350.034L1919.715,1351.022L1919.725,1351.061L1919.726,1351.066L1919.731,1351.084M1918.452,1348.44L1918.704,1348.507M1920.096,1350.71L1920.393,1351.029L1920.414,1351.052L1920.417,1351.055L1920.418,1351.056L1921.018,1352.32L1921.03,1352.344L1921.031,1352.347L1921.038,1352.361M1919.731,1351.084L1920.096,1350.71M1922.614,1352.84L1924.339,1354.421L1924.347,1354.428L1924.539,1354.732L1924.542,1354.737L1924.545,1354.742L1924.696,1355.487L1924.72,1355.637L1924.954,1357.457L1924.985,1357.638L1925.022,1357.819L1925.044,1357.955L1925.05,1358.071L1925.027,1358.16L1924.979,1358.225L1924.873,1358.295L1924.605,1358.625L1924.459,1358.961L1924.45,1359.058L1924.443,1359.164L1924.442,1359.327L1924.417,1359.743L1924.266,1360.959L1924.255,1361.17L1924.254,1361.32L1924.264,1361.444L1924.3,1361.71L1924.318,1361.857L1924.397,1363.029L1924.413,1363.205L1924.433,1363.358L1924.467,1363.517L1925.041,1365.577L1925.084,1365.815L1925.107,1366.001L1925.141,1366.652L1925.133,1366.864L1925.146,1367.031L1925.178,1367.254L1925.305,1367.71L1925.397,1367.931L1925.453,1368.035L1925.462,1368.052L1925.509,1368.084M1921.038,1352.361L1921.798,1352.447L1922.614,1352.84M1925.917,1367.238L1926.238,1367.415L1926.336,1367.516L1926.352,1367.532L1926.4,1367.598L1926.514,1367.757L1926.786,1368.244L1927.114,1369.126L1927.18,1369.24L1927.192,1369.261L1927.194,1369.264M1925.509,1368.084L1925.545,1368.082L1925.58,1368.041L1925.619,1367.957L1925.809,1367.338L1925.843,1367.275L1925.878,1367.241L1925.917,1367.238M1927.468,1369.171L1927.599,1369.288L1927.609,1369.296L1927.774,1369.532L1927.844,1369.631L1927.975,1369.818L1928.411,1371.131L1928.481,1371.245L1928.537,1371.313L1928.542,1371.32L1928.546,1371.325L1928.572,1371.357M1927.194,1369.264L1927.264,1369.291L1927.468,1369.171M1928.947,1371.303L1928.979,1371.341L1928.981,1371.344L1929.035,1371.407L1929.096,1371.546L1929.127,1371.688L1929.171,1371.838L1929.206,1371.93L1929.483,1372.642L1929.571,1372.806L1929.637,1372.9L1929.649,1372.916L1929.839,1373.066L1930.198,1373.347L1930.2,1373.349M1928.572,1371.357L1928.656,1371.265L1928.753,1371.239L1928.946,1371.303M1930.436,1373.46L1930.468,1373.513L1930.49,1373.548L1930.496,1373.572L1930.522,1373.667L1930.529,1373.799L1930.531,1373.976L1930.559,1374.161L1930.617,1374.403L1930.841,1374.938L1930.905,1375.127L1930.932,1375.239L1930.933,1375.244L1930.961,1375.485M1930.2,1373.349L1930.425,1373.455L1930.434,1373.459L1930.436,1373.46M45.744,2169.219L41.494,2165.429L37.257,2161.638L36.26,2160.744M32.141,2157.044L28.794,2154.028L24.58,2150.22L20.376,2146.409L16.186,2142.597L12,2138.778L7.824,2134.955L3.653,2131.124L-0.499,2127.297L-4.65,2123.459L-8.788,2119.621L-12.915,2115.78L-17.033,2111.936L-21.141,2108.088M36.26,2160.744L33.025,2157.839L32.141,2157.044M1982.193,1371.972L1981.794,1371.432L1981.585,1370.454L1981.434,1369.221L1981.21,1367.907L1980.884,1366.892L1980.506,1366.196L1980.149,1365.829M1980.149,1365.829L1979.889,1365.803L1979.225,1366.848L1978.234,1366.733L1977.457,1367.733L1977.212,1367.755M1977.212,1367.755L1976.921,1367.456L1976.215,1366.308L1975.859,1365.913M1975.859,1365.913L1975.548,1365.824L1975.339,1366.187L1975.301,1366.625L1975.329,1368.301L1975.287,1368.73L1974.695,1370.751L1974.45,1371.141L1973.834,1371.099L1973.61,1371.591L1973.426,1372.288L1973.186,1372.787L1972.895,1372.953L1972.779,1373.149L1972.713,1373.582L1972.679,1374.581L1972.626,1374.918L1972.291,1375.2L1972.144,1375.61L1972.065,1376.269L1972.068,1377.165L1972.154,1378.718L1972.067,1378.92M1986.722,1385.214L1986.526,1384.832L1986.361,1384.137L1986.227,1383.361L1986.079,1382.672L1985.873,1382.251L1985.183,1381.549L1984.842,1380.679L1984.316,1378.279L1983.931,1376.882L1983.799,1376.156L1983.776,1375.507L1983.812,1375.035L1983.783,1374.499L1983.561,1373.664L1983.469,1373.465L1983.187,1373.165L1983.079,1372.917L1983.006,1372.551L1982.941,1372.161L1982.857,1371.843L1982.646,1371.512M1982.646,1371.512L1982.477,1371.557L1982.193,1371.972M1989.246,1392.635L1988.949,1391.966L1988.654,1390.775L1988.382,1389.38L1988.159,1388.088L1987.876,1386.681L1987.422,1384.691L1987.016,1383.344M1987.016,1383.344L1986.884,1383.864L1986.888,1384.515L1986.838,1385.036L1986.722,1385.214M1972.067,1378.92L1971.794,1378.709L1970.843,1377.325M1970.843,1377.325L1970.574,1377.251L1970.53,1377.819L1970.577,1378.788L1970.576,1379.912L1970.406,1380.317M1990.531,1389.428L1990.398,1389.293L1990.306,1389.017L1990.253,1388.858L1989.957,1387.676L1989.796,1387.197L1989.481,1386.775M1989.481,1386.775L1989.434,1387.406L1989.615,1389.879L1989.621,1390.833L1989.564,1391.803L1989.44,1392.502L1989.246,1392.635M1992.967,1423.927L1993.224,1423.641L1993.257,1423.032L1993.055,1420.391L1993,1418.815L1993.006,1418.142L1993.159,1416.039L1993.156,1415.164L1993.068,1414.002L1992.105,1406.775L1992.006,1405.504L1992.046,1404.221L1992.129,1403.134L1992.135,1402.001L1992.003,1400.633L1991.675,1398.839L1991.39,1397.043L1991.374,1395.769L1991.605,1393.923L1991.558,1392.761L1991.357,1391.08L1991.288,1390.704L1991.074,1389.551L1990.777,1388.836M1990.777,1388.836L1990.681,1388.958L1990.676,1388.977L1990.612,1389.234L1990.531,1389.428M1970.406,1380.317L1970.115,1380.079L1969.783,1379.608L1969.487,1379.317M1992.198,1423.026L1992.463,1423.337L1992.967,1423.927M1991.566,1432.936L1991.861,1432.759L1991.876,1432.75L1991.936,1431.595L1991.835,1430.806L1991.683,1430.248L1991.516,1429.743L1991.369,1429.126L1991.273,1428.281L1991.293,1427.71L1991.386,1427.34L1991.512,1427.119L1991.823,1426.976L1991.941,1426.765L1992.002,1426.173L1991.973,1425.393L1991.898,1424.44L1991.85,1423.57L1991.897,1423.049L1992.198,1423.026M1990.434,1431.603L1991.164,1432.584L1991.566,1432.936M1991.365,1441.91L1991.516,1441.924L1991.55,1440.91L1991.33,1439.157L1990.653,1434.802L1990.331,1433.028L1990.241,1432.185L1990.277,1431.64L1990.434,1431.603M1991.217,1441.709L1991.365,1441.91M1991.006,1448.733L1991.207,1448.387L1991.357,1446.593L1991.491,1445.777L1991.567,1445.117L1991.524,1444.521L1991.267,1442.933L1991.157,1441.868L1991.217,1441.709M1988.868,1447.241L1991.006,1448.733M1988.406,1448.323L1988.476,1448.344L1988.545,1448.185L1988.592,1447.618L1988.634,1447.409L1988.868,1447.241M1987.244,1447.357L1988.176,1447.956L1988.406,1448.323M1989.512,1464.22L1989.541,1463.639L1989.427,1462.59L1989.093,1460.499L1988.982,1459.457L1988.853,1458.489L1988.646,1457.682L1988.245,1456.272L1987.951,1454.74L1987.68,1453.129L1987.356,1451.486L1987.097,1449.78L1987.068,1448.264L1987.244,1447.357M1988.948,1463.385L1989.257,1463.886L1989.512,1464.22M1989.693,1473.895L1989.604,1473.251L1989.476,1472.319L1989.364,1471.26L1989.211,1469.28L1989.048,1468.082L1988.711,1466.072L1988.594,1464.995L1988.571,1463.815L1988.705,1463.318L1988.948,1463.385M876.771,823.492L877.018,823.667L877.226,823.927L877.236,823.939L876.71,824.298L876.325,824.909L875.74,826.296L875.345,826.964L874.947,827.361L873.939,828.124L872.616,829.804L872.074,830.235L871.509,830.435L869.376,830.677L869.41,830.984L869.474,831.571L869.476,831.583L868.374,834.525L867.824,835.541L867.818,835.553L868.263,835.911L868.537,836.762L868.619,837.204L868.622,837.219L868.511,837.653L868.135,838.176L867.851,838.472L867.652,838.768L867.523,839.282L866.719,840.134L866.473,840.581L866.442,841.064L866.178,841.025L866.052,841.152L865.945,841.377L865.761,841.639L863.791,842.136M875.66,823.247L875.811,823.322L875.983,823.346L876.169,823.322L876.492,823.387L876.771,823.492M875.541,823.121L875.66,823.247M863.791,842.136L863.084,841.535M863.084,841.535L862.913,842.059L862.912,842.063L862.968,842.429L863.408,843.719L863.416,843.743M1966.838,1471.065L1967.019,1471.202L1967.729,1473.105L1967.897,1473.374M1961.225,1483.04L1961.342,1482.949L1961.517,1482.605L1962.237,1480.391L1962.435,1479.449L1962.482,1479.145L1962.66,1478.694L1963.186,1478.09L1963.622,1477.804L1963.836,1477.56L1964.032,1477.111L1964.233,1476.212L1964.279,1475.498L1964.273,1474.936L1964.245,1474.488L1964.283,1474.09L1964.393,1473.647L1964.94,1472.504L1965.36,1471.931L1966.562,1471.613L1966.838,1471.065M1969.098,1473.537L1969.265,1473.729L1969.444,1474.134L1970.305,1477.107L1970.544,1477.665L1971.266,1479.716L1971.621,1481.053L1971.793,1481.619L1971.993,1482.094L1972.516,1483.071L1973.638,1485.965L1974.211,1487.2L1975.169,1488.644L1976.614,1490.705L1976.846,1490.806M1967.897,1473.374L1969.098,1473.537M1979.785,1485.693L1979.879,1485.81L1980.031,1486.339L1980.177,1487.017L1980.49,1488.176L1981.248,1490.69L1981.711,1492.457L1982.296,1495.662L1982.504,1496.262L1982.675,1496.99L1982.778,1497.572L1982.981,1499.848L1983.093,1500.552L1983.24,1501.147L1983.552,1502.218L1983.682,1502.792L1983.779,1503.438L1983.883,1504.05L1984.055,1504.543M1976.846,1490.806L1976.895,1490.605L1976.93,1490.113L1976.959,1489.969L1977.002,1489.891L1977.497,1489.893L1977.817,1489.731L1977.995,1489.46L1978.38,1489.225L1978.51,1489.061L1978.622,1488.83L1978.734,1488.484L1978.92,1487.563L1978.982,1487.338L1979.062,1487.234L1979.232,1487.107L1979.303,1486.948L1979.362,1486.715L1979.451,1486.202L1979.465,1486.165L1979.63,1485.904L1979.7,1485.713L1979.785,1485.693M1959.964,1480.595L1960.109,1480.66L1960.243,1480.81L1960.551,1481.339L1960.664,1481.469L1960.772,1481.646L1960.884,1481.937L1961.122,1482.774L1961.225,1483.04M1961.218,1499.608L1961.281,1499.218L1961.363,1498.327L1961.313,1497.734L1961.556,1496.254L1961.719,1495.725L1961.795,1495.585L1961.812,1495.467L1961.811,1494.891L1961.784,1494.418L1961.738,1493.93L1961.395,1492.075L1961.322,1491.543L1961.247,1490.056L1961.304,1489.242L1961.276,1488.96L1961.208,1488.463L1961.112,1488.036L1960.866,1487.147L1960.772,1486.712L1960.696,1486.3L1960.586,1485.829L1960.422,1485.233L1959.93,1483.685L1959.743,1483.006L1959.621,1482.334L1959.562,1481.729L1959.567,1481.226L1959.632,1480.903L1959.749,1480.682L1959.964,1480.595M1986.832,1498.828L1986.902,1498.897L1986.969,1499.023L1987.018,1499.215L1987.071,1499.538L1987.224,1500.642L1987.297,1501.3L1987.356,1501.962L1987.421,1503.269L1987.434,1503.778L1987.433,1504.142L1987.403,1504.513L1987.337,1504.835L1987.14,1505.351L1986.997,1505.847L1986.938,1506.204L1986.918,1506.517L1986.899,1507.075L1986.935,1508.382L1986.931,1508.923L1986.899,1509.489L1986.911,1510.122L1986.986,1510.706L1987.097,1511.194L1987.229,1511.556L1987.326,1511.703M1985.906,1501.821L1986.047,1501.755L1986.127,1501.574L1986.21,1500.847L1986.292,1500.631L1986.509,1500.371L1986.576,1500.142L1986.58,1499.797L1986.502,1499.051L1986.51,1498.877L1986.573,1498.812L1986.651,1498.794L1986.832,1498.828M1985.71,1501.664L1985.906,1501.821M1984.055,1504.543L1984.385,1504.619L1984.516,1504.37L1984.582,1503.882L1984.619,1503.464L1984.672,1503.284L1984.746,1503.147L1984.786,1502.958L1984.811,1502.622L1984.893,1502.403L1985.045,1502.298L1985.257,1502.268L1985.438,1501.708L1985.552,1501.612L1985.71,1501.664M1987.326,1511.703L1987.422,1511.691L1987.715,1509.922L1987.884,1509.451M1961.218,1499.608L1961.149,1500.024L1961.05,1500.363L1960.935,1500.451L1960.733,1500.965L1960.136,1501.452L1960.086,1501.802L1960.085,1502.622L1960.068,1502.946L1960.009,1503.158L1959.832,1503.586L1959.762,1503.854L1959.594,1504.058L1958.766,1503.908L1958.359,1504.655L1958.011,1505.806L1957.696,1507.64M1957.696,1507.64L1957.418,1507.223L1957.328,1506.98L1957.2,1506.68L1957.024,1506.331L1956.927,1506.015L1956.88,1505.736L1956.867,1504.982L1956.82,1504.674L1956.757,1504.627M1956.757,1504.627L1956.603,1504.837L1956.519,1505.154L1956.257,1505.509M1956.257,1505.509L1955.478,1504.989M1955.478,1504.989L1955.147,1505.184M-82.091,1664.998L-72.939,1651.756L-63.753,1638.497M-63.753,1638.497L-78.026,1623.841L-92.109,1609.215L-106,1594.623L-119.282,1613.593L-121.518,1622.99M1930.962,1375.498L1930.672,1375.612L1930.567,1375.875L1930.505,1376.119L1930.505,1376.122L1930.475,1376.364L1930.434,1377.03L1930.44,1377.268L1930.461,1377.452L1930.492,1377.603L1930.522,1377.715L1930.532,1377.754L1930.552,1377.809L1930.584,1377.899L1930.618,1377.971L1930.635,1378.007L1930.808,1378.289L1930.879,1378.448L1930.966,1378.711L1931.044,1379.062L1931.05,1379.225L1931.05,1379.243L1931.028,1379.357L1930.971,1379.46L1930.906,1379.578L1930.904,1379.582L1930.819,1379.89L1930.749,1380.239L1930.75,1380.55L1930.77,1380.926L1930.85,1381.601L1930.853,1381.955L1930.832,1382.308L1930.809,1382.382L1930.793,1382.429L1930.684,1382.648L1930.682,1382.652L1930.643,1382.858L1930.625,1382.957L1930.624,1382.963L1930.61,1383.349L1930.61,1384.052L1930.596,1384.131L1930.561,1384.331L1930.56,1384.336L1930.54,1384.396L1930.509,1384.49L1930.507,1384.496L1930.374,1384.582L1930.244,1384.667L1930.182,1384.679L1930.114,1384.692L1929.916,1384.645L1929.828,1384.702L1929.826,1384.704L1929.759,1384.861L1929.757,1384.868L1929.711,1385.014L1929.662,1385.17L1929.613,1385.564L1929.612,1385.566L1929.6,1385.61L1929.569,1385.728L1929.556,1385.778L1929.48,1385.945L1929.423,1386.019L1929.392,1386.06L1929.207,1386.457L1929.204,1386.463L1929.179,1386.483L1929.14,1386.514M1929.14,1386.514L1929.138,1386.513L1928.573,1386.078M1928.573,1386.078L1928.308,1386.093L1928.265,1386.126L1928.074,1386.49L1928.065,1386.508L1927.983,1386.608L1927.92,1386.644L1927.839,1386.637M1927.839,1386.637L1927.591,1386.472M1927.591,1386.472L1927.499,1386.53L1927.498,1386.533L1927.386,1386.69L1927.163,1387.136L1927.064,1387.419L1926.998,1387.704L1926.951,1388.144L1926.924,1389.024L1926.895,1389.342L1926.657,1390.838L1926.65,1391.012L1926.655,1391.209L1926.69,1391.427L1926.734,1391.619L1926.858,1392.084L1926.905,1392.338L1926.933,1392.563L1926.943,1392.792L1926.863,1394.776L1926.799,1395.419L1926.758,1395.568L1926.744,1395.619L1926.742,1395.618L1926.678,1395.586M1926.678,1395.586L1926.678,1395.583L1926.635,1395.446L1926.597,1395.324L1926.523,1395.016L1926.473,1394.775L1926.472,1394.769L1926.446,1394.665L1926.424,1394.574L1926.349,1394.436L1926.249,1394.341L1926.224,1394.328L1926.118,1394.272M1926.118,1394.272L1926.008,1394.265L1925.901,1394.306L1925.751,1394.457L1925.533,1394.677L1925.521,1394.675L1925.467,1394.667M1925.467,1394.667L1925.441,1394.651L1925.412,1394.634L1925.122,1394.341L1925.054,1394.289M1925.054,1394.289L1925.036,1394.281L1924.991,1394.259L1924.608,1394.248L1924.603,1394.254L1924.497,1394.367L1924.454,1394.504L1924.431,1394.684L1924.435,1394.865L1924.446,1395.067L1924.479,1395.454L1924.484,1395.605L1924.474,1395.744L1924.435,1396.04L1924.43,1396.198L1924.44,1396.407L1924.564,1397.578L1924.573,1397.726L1924.572,1397.856L1924.566,1397.973L1924.515,1398.322L1924.507,1398.419L1924.506,1398.439L1924.511,1398.613L1924.627,1399.953L1924.635,1400.184L1924.635,1400.271L1924.636,1401.064L1924.612,1401.559L1924.523,1402.223L1924.494,1402.438L1924.663,1403.393L1925.381,1405.841L1925.542,1406.509L1925.631,1406.969L1925.875,1407.655L1925.876,1407.663L1926.349,1410.909L1926.422,1411.674L1926.511,1413.068L1926.52,1413.205L1926.548,1413.495L1926.594,1413.969L1926.603,1414.029L1927.05,1416.809L1927.387,1419.501L1927.392,1419.544L1927.393,1419.551M1930.961,1375.485L1930.961,1375.49L1930.962,1375.497M1927.393,1419.551L1927.396,1419.576L1928.546,1424.319L1928.695,1425.841L1928.733,1429.014L1928.943,1430.25L1929.153,1430.991L1929.304,1431.785L1929.411,1432.62L1929.485,1433.471L1929.464,1434.032L1929.323,1435.352L1929.338,1435.759L1929.385,1436.061L1929.358,1436.649L1929.425,1436.997L1929.857,1438.091L1930.043,1438.736L1930.239,1439.595L1930.4,1440.48L1930.478,1441.214L1930.454,1441.619L1930.375,1441.71L1930.297,1441.761L1930.27,1442.031L1930.303,1442.46L1930.506,1443.99L1930.573,1444.348L1930.628,1444.72L1930.648,1445.149L1930.589,1445.271L1930.566,1445.275L1930.471,1445.293L1930.465,1445.302L1930.366,1445.47L1930.322,1446.748L1930.201,1447.206L1930.116,1447.71L1930.203,1448.53L1930.385,1449.226L1930.579,1449.871L1930.671,1450.345L1930.665,1450.831L1930.648,1451.119L1930.623,1451.576L1930.696,1452.422L1930.808,1453.319L1930.88,1454.214L1930.84,1454.303L1930.755,1454.394L1930.734,1454.406L1930.667,1454.446M1930.667,1454.446L1930.624,1454.419M1930.624,1454.419L1930.627,1454.457L1930.67,1454.883L1930.709,1454.968M1931.044,1454.911L1931.114,1454.949L1931.132,1455.083L1931.157,1455.357L1931.198,1455.669L1931.254,1455.909L1931.555,1456.53L1931.687,1456.864L1931.791,1457.357L1931.819,1457.881L1931.786,1458.355L1931.734,1458.658L1931.778,1459.174L1931.52,1459.869L1931.821,1460.939L1932.307,1461.973L1933.165,1463.349L1933.635,1464.314L1933.805,1465.052L1933.993,1465.402L1934.285,1465.955L1934.512,1466.145M1930.856,1455.013L1930.921,1454.949L1930.939,1454.931L1931.044,1454.911M1930.762,1454.957L1930.852,1455.01L1930.856,1455.013M1930.709,1454.968L1930.762,1454.957M1935.6,1465.912L1935.859,1466.206L1936.105,1466.66L1936.231,1467.014L1936.314,1467.283L1936.368,1467.5L1936.38,1467.562L1936.671,1468.778L1936.769,1469.121L1941.538,1477.697M1934.512,1466.145L1934.596,1466.088L1934.603,1466.083L1934.821,1465.826L1934.843,1465.799L1934.97,1465.752L1935.156,1465.76L1935.6,1465.912M1330.854,792.108L1331.483,792.877L1332.198,793.751L1332.696,795.113L1333.461,796.908L1334.152,798.044L1335.049,798.896M1313.865,787.328L1315.187,788.245L1316.665,789.437L1317.412,789.994L1318.052,790.61M1308.454,785.359L1309.707,785.687L1311.012,786.065L1312.653,786.567L1313.865,787.328M1337.764,802.868L1338.296,803.899L1338.878,805.233L1338.715,806.013L1338.601,806.56L1338.536,806.872L1338.625,808.165L1338.889,809.305L1339.154,810.446L1339.571,811.601L1339.61,811.708L1339.922,812.97L1339.964,814.152L1339.92,816.084L1339.778,817.196L1339.704,817.772L1339.526,819.219L1339.51,819.346L1339.93,821.744L1340.269,823.68M1340.269,823.68L1340.463,826.096L1340.55,827.172L1340.466,829.892L1340.267,833.159L1340.235,836.84L1340.228,837.62M153.713,125.016L153.732,125.194L153.427,125.565L152.727,125.899L151.402,126.404L150.782,126.435M150.782,126.435L150.88,126.143L151.426,125.782L151.657,125.473M-171.006,245.428L-171.07,245.083M-171.07,245.083L-171.133,244.741L-171.195,244.399M-170.723,246.82L-170.796,246.469L-170.868,246.12M-170.868,246.12L-170.938,245.772L-171.006,245.428M-170.401,248.241L-170.484,247.882M-170.484,247.882L-170.566,247.526L-170.646,247.172L-170.723,246.82M-169.848,250.428L-169.946,250.059L-170.04,249.691M-170.04,249.691L-170.134,249.325L-170.226,248.962L-170.315,248.601L-170.401,248.241M-169.207,252.681L-169.318,252.3M-169.318,252.3L-169.429,251.921L-169.537,251.545L-169.582,251.388L-169.599,251.33L-169.644,251.171L-169.747,250.798L-169.848,250.428M-168.731,254.221L-168.854,253.833L-168.973,253.446M-168.973,253.446L-169.091,253.063L-169.207,252.681M-168.215,255.791L-168.346,255.394M-168.346,255.394L-168.477,255.001L-168.605,254.61L-168.731,254.221M-167.659,257.391L-167.801,256.987L-167.941,256.586M-167.941,256.586L-168.08,256.188L-168.215,255.791M-167.062,259.022L-167.214,258.611M-167.214,258.611L-167.365,258.202L-167.514,257.795L-167.659,257.391M-166.425,260.684L-166.588,260.266L-166.747,259.849M-166.747,259.849L-166.906,259.434L-167.062,259.022M-165.39,263.235L-165.567,262.804M-165.567,262.804L-165.744,262.376L-165.918,261.951L-166.09,261.527L-166.259,261.105L-166.425,260.684M-164.26,265.857L-164.455,265.415L-164.646,264.974M-164.646,264.974L-164.836,264.537L-165.023,264.101L-165.208,263.667L-165.39,263.235M-163.454,267.646L-163.658,267.194M-163.658,267.194L-163.862,266.746L-164.062,266.301L-164.26,265.857M-162.803,269.045L-162.821,269.004L-163.034,268.551M-163.034,268.551L-163.245,268.097L-163.454,267.646M1340.269,823.68L1339.757,823.852L1339.267,823.915L1338.724,823.793L1338.102,823.403L1337.937,823.111L1337.703,822.81L1337.132,822.667L1336.846,822.951L1336.673,822.813L1336.54,822.978L1336.493,823.318L1336.177,823.616L1335.708,823.603L1335.313,823.447L1334.891,823.306L1333.993,823.394L1333.789,823.517L1333.637,823.857L1334.14,824.327L1334.313,824.44L1335.379,825.134L1335.765,825.533L1335.891,825.768L1335.823,826.318L1335.665,826.588L1335.216,826.434L1335.043,826.326L1334.086,825.724L1333.746,825.666L1333.28,826.091L1333.119,826.237L1333.173,826.457L1334.447,826.976L1335.686,827.411L1335.792,827.759L1335.603,827.923L1335.383,828.125L1335.33,828.372L1335.104,829.415L1334.888,829.593L1334.582,829.494L1334.464,829.432L1333.969,829.172L1333.51,829.413L1333.468,829.606L1333.591,830.033L1333.787,830.714L1333.852,831.003L1333.661,830.95L1333.166,830.43L1332.918,830.168L1332.247,829.31L1331.829,829.017L1331.737,829.083L1332.371,831.028L1332.405,831.13L1332.639,832.127L1332.402,832.165L1332.232,832.072L1332.018,831.955L1331.76,832.325L1331.112,832.143L1330.512,832.33L1330.325,832.276L1329.678,831.397L1329.594,831.091L1329.695,830.969L1329.744,830.75L1329.522,830.264L1329.488,829.961L1329.106,829.407L1328.773,828.947L1328.789,828.641L1328.998,828.397L1328.384,828.072L1327.947,827.769L1327.64,827.42L1327.401,826.893L1327.207,826.523L1326.721,826.28L1326.696,826.294L1326.431,826.444L1326.031,826.895L1326.022,826.905L1326,827.362L1326.062,827.722L1326.097,827.926L1326.047,828.146L1325.823,828.069L1325.266,827.879L1324.519,827.69L1324.296,827.612L1324.19,827.575L1324.2,827.508L1324.288,826.918L1324.402,825.826L1324.458,825.284L1324.463,825.24L1324.869,824.805L1324.782,824.28L1325.138,823.943L1324.917,823.46L1324.614,822.987L1324.23,822.652L1323.493,822.314L1322.922,822.092L1322.696,822.004L1322.937,821.624L1323.531,820.687L1322.928,820.249L1322.901,820.23L1322.613,819.925L1322.551,819.636L1323.298,819.699L1324.109,819.958L1324.829,820.224L1324.876,820.288L1325.041,820.516L1325.122,820.627L1325.19,820.419L1325.444,819.646L1325.273,819.166L1325.714,818.788L1325.003,817.783L1324.363,817.136L1323.94,816.87L1323.444,816.712L1323.094,817.751L1323.055,817.866L1322.745,818.449L1322.18,818.393L1321.744,818.35L1321.443,817.012L1321.323,816.656L1320.388,816.069L1320.6,815.147L1320.535,814.549L1320.33,814.106L1320.372,813.92L1320.517,813.291L1320.621,813.284L1320.694,813.279L1321.295,813.656L1321.488,813.469L1321.529,813.062L1321.403,812.178L1321.432,811.65L1321.443,811.459L1321.764,810.489L1321.757,809.74L1321.53,809.075L1321.746,808.441L1321.323,807.744L1320.886,806.239L1320.604,805.358L1320.17,804.929L1319.79,804.292L1319.735,803.859L1319.79,803.28L1319.905,802.778L1319.938,802.635L1319.475,801.791L1319.072,800.776M1992.127,1481.43L1992.547,1484.451L1992.676,1485.974L1992.601,1487.405L1992.55,1488.849L1992.85,1490.936L1993.485,1491.771L1993.516,1492.146L1994.201,1495.023L1994.38,1496.77L1994.081,1499.162L1994.69,1500.669L1994.827,1502.435L1995.084,1504.608L1995.142,1506.547L1995.177,1508.007L1995.269,1509.759L1995.52,1512.946M1935.076,1376.642L1935.401,1376.958L1935.856,1377.774L1936.319,1379.077L1936.776,1380.712L1937.585,1384.173L1937.985,1385.692L1938.418,1386.838L1940.385,1390.579L1941.295,1392.01L1942.1,1393.041L1942.101,1393.043L1942.666,1393.348M1932.83,1376.987L1933.814,1377.224L1934.481,1376.819L1935.068,1376.644L1935.076,1376.642M1930.962,1375.498L1931.128,1375.594L1931.598,1375.867L1931.623,1375.882L1932.816,1376.974L1932.83,1376.987M1944.385,1391.853L1944.662,1392.338L1945.392,1394.374L1945.793,1395.687L1946.137,1397.191L1946.36,1398.688L1946.459,1400.057L1946.458,1400.065L1946.373,1401.994L1946.373,1402.005L1946.392,1402.395L1946.394,1402.436M1942.666,1393.348L1943.009,1393.356L1943.255,1393.188L1943.691,1393.142L1943.885,1392.88L1944.183,1391.903L1944.371,1391.857L1944.385,1391.853M1337.764,802.868L1337.563,802.89L1336.882,802.613L1336.383,802.179L1335.859,801.612L1335.63,801.283L1335.322,801.12L1335.089,801.278L1335.045,801.613L1335.249,802.164L1335.217,802.236L1335.112,802.472L1334.907,802.532L1334.846,802.55L1334.364,802.488L1334.145,802.471L1333.913,802.415L1333.588,801.97L1333.383,801.872L1332.978,801.798L1331.948,801.85L1331.728,801.955L1331.711,802.156L1331.905,802.521L1331.855,802.664L1331.836,802.721L1331.664,802.628L1331.501,802.541L1331.137,802.162L1330.728,802.088L1330.031,802.319L1329.571,802.729L1329.105,803.136L1329.129,803.488L1329.447,803.992L1329.456,804.179L1328.955,804.172L1328.461,804.134L1328.42,804.148L1327.953,804.305L1327.406,804.173L1326.727,803.842L1326.741,804.122L1326.693,804.458L1327.226,804.762L1327.77,805.133L1327.791,805.147L1328.437,805.735L1329.092,806.176L1330.078,806.796L1330.392,807.086L1330.65,807.616L1330.919,808.213L1330.935,809.076L1330.753,809.669L1330.674,809.799L1330.443,810.179L1330.199,810.825L1330.365,810.99L1330.509,810.924L1330.799,810.834L1330.746,811.073L1330.793,811.322L1331.201,811.109L1331.674,810.861L1332.215,810.77L1332.404,810.92L1332.503,811.164L1332.64,811.467L1332.928,811.862L1332.992,812.15L1332.799,813.043L1332.425,813.606L1331.963,814.116L1331.65,814.289L1331.32,814.247L1331.285,814.243L1330.796,814.305L1330.488,814.453L1330.435,814.695L1330.502,814.868L1330.547,814.982L1330.841,815.135L1331.482,815.168L1331.989,815.272L1332.336,815.18L1332.502,814.979L1332.734,814.474L1333.008,814.251L1333.449,814.188L1334.704,814.605L1335.05,814.883L1335.522,815.581L1335.921,815.801L1336.867,816.181L1337.208,816.456L1337.874,817.549L1338.528,818.575L1339.03,819.136L1339.303,819.336L1339.333,819.357L1339.499,819.347M1319.072,800.776L1318.945,799.931L1318.779,799.213L1318.593,798.918L1318.251,798.644L1317.64,798.351L1317.322,798.182L1317.11,797.895L1317.166,797.655L1317.548,797.315L1318.312,796.849L1318.586,796.748L1318.74,796.509L1318.559,796.091L1318.196,796.046L1317.836,796.062L1317.547,795.881L1317.388,795.6L1317.475,795.44L1317.693,795.363L1317.631,795.082L1317.17,794.793L1317.084,794.618L1317.33,794.316L1317.499,794.117L1317.336,793.834L1317.482,793.437L1317.304,793.202L1317.128,793.337L1316.95,793.562L1316.836,793.52L1316.716,793.169L1317.032,792.121L1317.475,792.16L1317.8,792.149L1317.975,791.502L1318.052,790.611M877.739,823.444L878.766,823.434L879.799,823.258L880.68,823.119L881.107,822.887L881.25,822.478M876.97,822.395L877.034,822.709L877.416,823.027L877.739,823.444M1322.049,791.759L1322.496,791.887L1324.395,792.056L1324.974,792.01L1325.083,792.002L1325.434,791.865L1325.476,791.777L1325.569,791.586L1326.012,791.503L1326.159,791.595L1326.378,791.733L1326.505,791.682L1326.788,791.567L1327.434,791.583L1328.465,791.839L1328.782,791.979L1329.183,791.958L1329.574,791.845L1329.931,791.918L1330.155,791.908L1330.854,792.108M1320.01,790.267L1320.723,790.774L1321.566,791.335L1322.049,791.759M1318.052,790.61L1318.376,790.39L1319.179,790.5L1319.456,790.403L1319.742,790.128L1320.01,790.267M1322.049,791.759L1322.496,791.887L1324.395,792.056L1324.974,792.01L1325.083,792.002L1325.434,791.865L1325.476,791.777L1325.569,791.586L1326.012,791.503L1326.159,791.595L1326.378,791.733L1326.505,791.682L1326.788,791.567L1327.434,791.583L1328.465,791.839L1328.782,791.979L1329.183,791.958L1329.574,791.845L1329.931,791.918L1330.155,791.908L1330.854,792.108M1320.01,790.267L1320.723,790.774L1321.566,791.335L1322.049,791.759M1318.052,790.61L1318.376,790.39L1319.179,790.5L1319.456,790.403L1319.742,790.128L1320.01,790.267M1335.049,798.896L1335.24,799.169L1335.518,799.374L1335.821,799.685L1335.961,800.074L1336.05,800.458L1336.59,801.072L1336.913,801.305L1337.146,801.811L1337.56,802.436L1337.764,802.868M1335.049,798.896L1335.24,799.169L1335.518,799.374L1335.821,799.685L1335.961,800.074L1336.05,800.458L1336.59,801.072L1336.913,801.305L1337.146,801.811L1337.56,802.436L1337.764,802.868"></path>
</svg>
